<?xml version="1.0" standalone="no"?>
<!DOCTYPE svg PUBLIC "-//W3C//DTD SVG 20010904//EN"
 "http://www.w3.org/TR/2001/REC-SVG-20010904/DTD/svg10.dtd">
<svg version="1.0" xmlns="http://www.w3.org/2000/svg"
 width="512.000000pt" height="512.000000pt" viewBox="0 0 512.000000 512.000000"
 preserveAspectRatio="xMidYMid meet">
<metadata>
Created by potrace 1.11, written by Peter Selinger 2001-2013
</metadata>
<g transform="translate(0.000000,512.000000) scale(0.100000,-0.100000)"
fill="#000000" stroke="none">
<path d="M465 5104 c-103 -25 -203 -81 -281 -159 -79 -78 -121 -146 -156 -250
l-23 -70 0 -2065 0 -2065 23 -70 c34 -102 77 -171 151 -246 72 -71 141 -115
241 -151 l65 -23 2050 -2 c2259 -3 2108 -7 2244 59 162 79 288 238 326 412 11
49 13 444 14 2091 1 2247 6 2078 -64 2221 -65 134 -188 243 -343 303 l-67 26
-2060 2 c-1769 1 -2068 -1 -2120 -13z"/>
</g>
</svg>
