<svg class="an-svg" xmlns="http://www.w3.org/2000/svg" width="100%" height="100%" style="shape-rendering:geometricPrecision; text-rendering:geometricPrecision; image-rendering:optimizeQuality; fill-rule:evenodd; clip-rule:evenodd" viewBox="0 0 16413.52 19551.92" xmlns:xlink="http://www.w3.org/1999/xlink">
<defs>
<style>
.an-svg .fil1 {fill:#211F1F}
.an-svg .fil0 {fill:#FBBA00}
</style>
</defs>
<path class="fil0" d="M5272.14 3668.36c901.78,0 1632.88,716.86 1632.88,1601.19 0,1108.88 -829.92,1469.58 -829.92,1943.49 0,60.9 -2.71,118.29 -7.79,172.35l-1590.43 0c-5.08,-54.07 -7.79,-111.45 -7.79,-172.35 0,-473.91 -829.92,-834.62 -829.92,-1943.49 0,-884.33 731.07,-1601.19 1632.96,-1601.19l0.01 0zm6460.06 9991.84l-4674.71 0 0 -2282.13 4674.71 0 0 2282.13zm-6463.57 -6963.45c18.48,0 37.19,-2.21 56.09,-6.53l10.69 -2.52c131,-30.81 212.37,-161.55 181.52,-292.28 -30.77,-130.66 -162.01,-211.57 -293.08,-180.94l-10.77 2.56c-131.12,30.62 -212.37,161.47 -181.55,292.13 26.42,112.06 126.5,187.59 237.11,187.59l-0.01 -0.01z"/>
<path class="fil1" d="M1527.27 1527.27l0 381.82 0 15733.73 -1145.45 0 0 -15733.73 0 -1527.27 14122.61 0 0 1588.67 -410.65 -443.21 -572.73 0 -11611.97 0 -381.82 0 0.01 -0.01zm5431.44 5213.96c-50.67,-49.75 -132.91,-49.75 -183.62,0 -50.74,49.71 -50.74,130.31 0,180.07l244.63 239.93c25.39,24.86 58.61,37.3 91.83,37.3 33.22,0 66.47,-12.45 91.83,-37.3 50.71,-49.71 50.71,-130.31 0,-180.1l-244.67 -239.9zm-1698.86 -3200.06c-744.05,9.89 -1415.44,461.47 -1659.5,1185.43 -116.15,336.69 -112.6,726.03 -23.29,1068.59 53.19,309.12 312.79,682.23 503.77,932.06 78.58,102.98 212.29,267.35 249.02,403.47l1.83 6.95c16,64.57 11.45,185.68 17.45,252.65 0,596.44 -169.53,1226.74 328.1,1634.75 41.85,34.48 86.67,64.99 133.64,91.45 338.63,189.27 755.85,158.03 1060.5,-91.45 500.91,-410.87 328.02,-1076.35 328.02,-1634.75 5.15,-56.74 7.79,-116.3 7.79,-177.28 0,-178.92 183.2,-385.75 277.16,-507.47 9.81,-12.83 19.63,-25.7 29.32,-38.64 200.68,-264.87 367.12,-529.39 455.2,-859.59 295.79,-1131.75 -462.88,-2283.04 -1709.02,-2266.17l0.01 0zm-110.23 3295.67l249.21 0 0 421.22 547.95 0c8.17,-349.59 184.69,-503.58 379.15,-770.47 215.69,-287.24 451.39,-648.82 451.39,-1218.04 0,-1959.64 -3006.05,-1959.64 -3006.05,0 0,995.02 815.53,1347.13 830.53,1988.51l547.83 0 0 -421.22 -0.01 0zm122.56 2142.88c-264.1,0 -502.21,-156.55 -614.99,-389.11l1229.99 0c-112.9,232.57 -351.01,389.11 -614.99,389.11l-0.01 0zm665.32 -1184.82l-1330.71 0 0 -286.36 1330.71 0 0 286.36zm-1330.71 254.67l1330.71 0 0 286.33 -1330.71 0 0 -286.33zm-1016.98 -1308.34l-244.75 239.9c-50.67,49.79 -50.67,130.39 0,180.1 25.39,24.86 58.61,37.3 91.9,37.3 33.22,0 66.44,-12.45 91.79,-37.3l244.67 -239.93c50.74,-49.75 50.74,-130.31 0,-180.07 -50.71,-49.75 -132.95,-49.75 -183.62,0l0.01 0zm-441.19 -1599.02l-346.04 0c-71.71,0 -129.86,57.01 -129.86,127.34 0,70.37 58.15,127.34 129.86,127.34l346.04 0c71.71,0 129.86,-56.97 129.86,-127.34 0,-70.33 -58.15,-127.34 -129.86,-127.34zm530.77 -1256.48c25.39,24.86 58.61,37.3 91.83,37.3 33.22,0 66.44,-12.45 91.83,-37.3 50.71,-49.75 50.71,-130.39 0,-180.07l-244.75 -239.93c-50.67,-49.71 -132.91,-49.71 -183.62,0 -50.74,49.71 -50.74,130.35 0,180.07l244.71 239.93zm1594.85 -573.19c71.74,0 129.89,-57.01 129.89,-127.34l0 -339.32c0,-70.33 -58.15,-127.34 -129.89,-127.34 -71.71,0 -129.86,57.01 -129.86,127.34l0 339.32c0,70.33 58.15,127.34 129.86,127.34zm1503.07 610.49c33.22,0 66.44,-12.45 91.83,-37.3l244.67 -239.93c50.71,-49.71 50.71,-130.35 0,-180.1 -50.71,-49.75 -132.95,-49.67 -183.65,0l-244.67 239.93c-50.71,49.71 -50.71,130.35 -0.04,180.1 25.35,24.86 58.65,37.3 91.87,37.3l-0.01 0zm968.56 1219.18l-346 0c-71.74,0 -129.89,57.01 -129.89,127.34 0,70.37 58.15,127.34 129.89,127.34l346 0c71.74,0 129.89,-56.97 129.89,-127.34 0,-70.33 -58.15,-127.34 -129.89,-127.34zm-688.38 6617.64l4674.71 0 0 -381.78 -4674.71 0 0 381.78zm0 954.54l4674.71 0 0 -381.78 -4674.71 0 0 381.78zm0 945.81l3900.23 0 0 -381.74 -3900.23 0 0 381.74zm4476.28 0c14.39,0 28.98,-1.72 43.68,-5.08l8.32 -1.99c102.02,-24.05 165.4,-126.19 141.35,-228.33 -23.94,-102.06 -126.15,-165.25 -228.21,-141.35l-8.44 2.02c-102.06,23.9 -165.33,126.11 -141.35,228.17 20.58,87.55 98.51,146.54 184.65,146.54l0 0.02zm396.4 1776.52c-658.29,539.01 -1499.9,862.53 -2417.14,862.53 -2108.74,0 -3818.18,-1709.44 -3818.18,-3818.18 0,-2108.74 1709.44,-3818.18 3818.18,-3818.18 2108.74,0 3818.18,1709.44 3818.18,3818.18 0,985.28 -373.3,1883.36 -986.05,2560.66l3300.55 3300.59 -404.99 404.96 -3310.55 -3310.55 0 -0.01zm-2417.13 -6201.11c1792.41,0 3245.45,1453.01 3245.45,3245.45 0,1792.45 -1453.05,3245.45 -3245.45,3245.45 -1792.41,0 -3245.45,-1453.01 -3245.45,-3245.45 0,-1792.45 1453.05,-3245.45 3245.45,-3245.45zm-6840.31 6889.15l2021.08 0 0 -381.78 -2021.08 0 0 381.78zm0 763.56l4042.19 0 0 -381.78 -4042.19 0 0 381.78zm0.03 754.58l6536.35 0 0 -381.78 -6536.35 0 0 381.78zm0 763.56l8869.14 0 0 -381.78 -8869.14 0 0 381.78zm6414.47 -11139.24l5197.46 0 0 -381.78 -5197.46 0 0 381.78zm0 -763.56l4034.6 0 0 -381.78 -4034.6 0 0 381.78zm0 -754.58l3175.89 0 0 -381.78 -3175.89 0 0 381.78zm0 -763.56l2598.73 0 0 -381.78 -2598.73 0 0 381.78zm-7559.96 13039.13l0 1145.45 0 381.82 381.82 0 14122.61 0 381.82 0 0 -381.82 0 -14566.36 0 -572.73 -1527.27 -1648.42 0 -2000.77 0 -381.82 -381.82 0 -14122.61 0 -381.82 0 0 381.82 0 17261.01 0 381.82 381.82 0 1145.45 0zm11993.79 -13420.91l0 -381.82 0 -2312.83 -11611.97 0 0 17261.01 14122.61 0 0 -14566.36 -2128.83 0 -381.82 0 0.01 0zm381.82 -2694.65l0 2312.83 2128.83 0 -2128.83 -2312.83z"/>
</svg>
