<svg class="brief-svg" xmlns="http://www.w3.org/2000/svg" xml:space="preserve" width="100%" height="100%" style="shape-rendering:geometricPrecision; text-rendering:geometricPrecision; image-rendering:optimizeQuality; fill-rule:evenodd; clip-rule:evenodd" viewBox="0 0 15649.9 19551.92" xmlns:xlink="http://www.w3.org/1999/xlink">
<defs>
<style>
.brief-svg .fil1 {fill:#211F1F}
.brief-svg .fil0 {fill:#FBBA00;fill-rule:nonzero}
</style>
</defs>
<path class="fil0" d="M3436.14 7671.03l-983.37 -983.33 269.91 -269.91 713.47 713.43 1492.18 -1492.18 269.91 269.91 -1492.18 1492.18 -269.91 269.91 -0.01 -0.01zm0 3902.87l-983.37 -983.33 269.91 -269.91 713.47 713.43 1492.18 -1492.18 269.91 269.91 -1492.18 1492.18 -269.91 269.91 -0.01 -0.01zm10083.86 3924.48l-6787.24 0 0 -1909.13 6787.24 0 0 1909.13z"/>
<path class="fil1" d="M0.01 19551.92l0 -381.82 0 -18788.28 0 -381.82 381.82 0 14886.25 0 381.82 0 0 381.82 0 16093.64 0 572.73 -2319.74 2503.73 -572.73 0 -12375.61 0 -381.82 0 0.01 0zm2440.2 -16087.19c0,-65.6 16.04,-127.49 44.41,-181.9l-354.71 0 0 -212.29 701.74 0 2.79 -0.04c217.71,0 394.23,176.51 394.23,394.23 0,217.79 -176.51,394.27 -394.23,394.27 -217.71,0 -394.23,-176.48 -394.23,-394.27l0 0zm6338.14 -866.53l342.57 0c39.9,0 77.01,-18.29 111.45,-54.87 34.33,-36.58 51.51,-102.56 51.51,-197.9 0,-97.55 -19.97,-164.07 -59.87,-199.54 -39.9,-35.47 -79.8,-53.23 -119.74,-53.23l-325.92 0 0 505.53 0 0 0 0 0 0.01zm3837.01 395.79l-209.54 -731.68 -219.51 731.68 429.05 0zm-505.53 -1466.72l592.01 0 818.16 2361.35 -658.52 0 -143.03 -462.27 -628.59 0 -139.67 462.27 -661.84 0 821.48 -2361.35zm-8768.99 2361.36l0 -2361.35 648.52 0 0 898 718.39 -898 731.68 0 -858.06 1057.64 917.93 1303.72 -744.97 0 -585.37 -868.03 -179.61 186.25 0 681.77 -648.52 0 0 0 0 0 0.01 0zm2270.6 -1290.43l409.08 0c39.9,0 77.05,-22.15 111.45,-66.51 34.33,-44.33 51.51,-106.41 51.51,-186.25 0,-82.01 -19.89,-144.67 -59.87,-187.89 -39.9,-43.26 -79.8,-64.87 -119.7,-64.87l-392.47 0 0 505.53 0 0 0 -0.01zm2150.05 395.79l-209.54 -731.68 -219.51 731.68 429.05 0zm-505.53 -1466.72l592.01 0 818.2 2361.35 -658.52 0 -143.07 -462.27 -628.59 0 -139.67 462.27 -94.69 0 -567.15 0 -164.53 0 -415.72 -725.03 -242.8 0 0 725 -917.89 -1303.68 858.1 -1057.64 495.52 0c115.27,0 221.68,23.83 319.28,71.51 97.55,47.65 181.25,109.73 251.12,186.25 69.83,76.48 124.7,164.07 164.6,262.73 39.94,98.66 59.87,197.9 59.87,297.67 0,137.49 -29.93,265.52 -89.8,384.15 -59.87,118.63 -142.99,215.61 -249.44,291.02l145.59 253.3 607.63 -1746.63 0 0 -0.04 0 -0.01 0zm2508.55 2361.36l0 -1020.52c-11.65,15.2 -23.86,30.01 -36.58,44.41 -67.66,76.48 -149.67,137.45 -246.12,182.89 -96.45,45.47 -202.33,68.19 -317.63,68.19l-385.83 0 0 725.03 0 0 -818.24 -2361.35 1187.42 0c115.31,0 221.72,23.83 319.31,71.51 97.55,47.65 181.25,109.73 251.08,186.25 16.34,17.91 31.88,36.43 46.58,55.55l0 -313.32 648.56 0 0 898 718.39 -898 731.68 0 -858.06 1057.64 418.05 593.8 -246.39 708.12 -584.11 -866.23 -179.61 186.25 0 681.77 -648.56 0 0 0 0.04 0 0.02 0.01zm-7142.41 -423.9c0,-117.26 95.07,-212.29 212.33,-212.33 117.26,0 212.33,95.07 212.33,212.33 0,117.26 -95.07,212.33 -212.33,212.33 -117.26,0 -212.33,-95.07 -212.33,-212.33zm602.17 -650.08l-780.51 228.14 0 -251.31 559.4 -121.15 -559.4 -122.45 0 -228.1 780.51 228.1 0 266.78 0 0 0 0 0 -0.01zm-784.06 -863.44c0,-217.71 176.51,-394.27 394.23,-394.27 217.71,0 394.23,176.55 394.23,394.27 0,217.71 -176.51,394.23 -394.23,394.23 -217.71,0 -394.23,-176.51 -394.23,-394.23zm181.89 0c0,-117.26 95.07,-212.37 212.33,-212.37 117.26,0 212.33,95.11 212.33,212.37 0,117.26 -95.07,212.33 -212.33,212.33 -117.26,0 -212.33,-95.07 -212.33,-212.33zm4110.66 7843.04l6787.24 0 0 -381.78 -6787.24 0 0 381.78zm0 954.54l4814.96 0 0 -381.78 -4814.96 0 0 381.78zm0 954.55l3676.57 0 0 -381.74 -3676.57 0 0 381.74zm0 -3902.87l3676.57 0 0 -381.74 -3676.57 0 0 381.74zm0 -954.54l4814.96 0 0 -381.78 -4814.96 0 0 381.78zm0 -954.55l6787.24 0 0 -381.78 -6787.24 0 0 381.78zm0 8079.69l6787.24 0 0 -381.82 -6787.24 0 0 381.82zm0 763.64l6787.24 0 0 -381.82 -6787.24 0 0 381.82zm0 763.64l5955.68 0 0 -381.78 -5955.68 0 0 381.78zm6557.31 30.27c16.69,0 33.56,-1.99 50.59,-5.88l9.66 -2.33c118.21,-27.83 191.6,-146.16 163.76,-264.49 -27.76,-118.25 -146.16,-191.44 -264.41,-163.76l-9.74 2.33c-118.25,27.68 -191.56,146.08 -163.76,264.37 23.83,101.41 114.13,169.76 213.89,169.76l0.01 0zm-10455.48 -1639.29l1339.15 0 0 1339.19 -1339.15 0 0 -1339.19zm0 -381.82l1339.15 0c210,0 381.82,171.82 381.82,381.82l0 1339.19c0,210 -171.82,381.82 -381.82,381.82l-1339.15 0c-210,0 -381.82,-171.82 -381.82,-381.82l0 -1339.19c0,-210 171.82,-381.82 381.82,-381.82zm9922.84 2967.95l0 381.82 0 2312.83 -12375.61 0 0 -18788.28 14886.25 0 0 16093.64 -2128.83 0 -381.82 0 0.01 -0.01zm381.82 2694.64l0 -2312.83 2128.83 0 -2128.83 2312.83z"/>
</svg>
