<?xml version="1.0" encoding="UTF-8"?>
<!DOCTYPE svg PUBLIC "-//W3C//DTD SVG 1.1//EN" "http://www.w3.org/Graphics/SVG/1.1/DTD/svg11.dtd">
<!-- Creator: CorelDRAW 2018 (64-Bit) -->
<svg xmlns="http://www.w3.org/2000/svg" xml:space="preserve" width="100%" height="100%" version="1.1" style="shape-rendering:geometricPrecision; text-rendering:geometricPrecision; image-rendering:optimizeQuality; fill-rule:evenodd; clip-rule:evenodd"
viewBox="0 0 49615.76 23457.58"
 xmlns:xlink="http://www.w3.org/1999/xlink">
 <defs>
  <style type="text/css">
   <![CDATA[
    .fil0 {fill:#C5C6C6;fill-opacity:0.501961}
    .fil1 {fill:#FEFEFE;fill-rule:nonzero;fill-opacity:0.501961}
    .fil3 {fill:#D9DADA;fill-rule:nonzero;fill-opacity:0.501961}
    .fil2 {fill:#C5C6C6;fill-rule:nonzero;fill-opacity:0.501961}
   ]]>
  </style>
 </defs>
 <g id="Layer_x0020_1">
  <metadata id="CorelCorpID_0Corel-Layer"/>
  <polygon class="fil0" points="-0,23457.58 49615.76,23457.58 49615.76,18684.49 -0,18684.49 "/>
  <path class="fil1" d="M49615.76 16184.2c-486.83,-279.65 -1023.76,-468.9 -1545.52,-468.9 -299.5,0 -594.07,62.36 -871,205.87 -551.75,-1053.24 -1750.14,-1663.9 -2928.77,-1663.9 -599.37,0 -1193.8,158.15 -1695.45,496.46 -248,-1567.11 -1819.27,-2734.59 -3375.02,-2734.59 -154.16,0 -307.98,11.43 -460.73,35.14 -291.04,-95.53 -585.96,-175.65 -885.82,-228.99 -466.02,-593.87 -992.01,-1147.69 -1582.21,-1609.13 540.45,2.23 1075.26,184.22 1464.38,564.94 346.43,-1521.25 2466.27,-2165.7 3999.09,-2165.7 370.41,0 706.96,37.75 975.43,109.82 337.96,90.84 769.05,197.38 1038.93,430.64 191.2,165.06 625.47,1118.12 856.54,1280.65 290.69,204.4 836.44,172.19 1184.63,349.88 398.29,203.1 751.77,506.42 1010,871.51 54.33,76.94 483.31,1000.51 430.39,1000.51l0 0c511.18,1.16 1899.36,668.48 2198.16,1083.56 68.44,94.86 130.53,188.49 186.97,280.91l0 2161.32zm-42108.42 -2450.03c-591.26,-657.93 -1486.43,-1000.23 -2376.25,-1000.23 -790.08,0 -1576.07,269.98 -2140.78,828.46 -439.57,-324.24 -974.79,-475.15 -1515.68,-475.15 -512.22,0 -1029.45,135.5 -1474.63,387.56l0 -677.86c417.19,-239.43 903.14,-363.44 1387.15,-363.44 544.75,0 1087,157.2 1525.46,483.94 785.61,-727.71 1858.05,-1108.11 2926.83,-1108.11 725.03,0 1448.47,175.19 2079.02,535.8 -173.18,-1279.91 1067.65,-2471.56 2314.3,-2471.56 228.52,0 457.41,40.08 677.61,127 -217.17,-1126.17 230.68,-2355.53 1121.34,-3078.13 567.58,-460.48 1299.42,-702.59 2029.32,-702.59 415.47,0 830.37,78.46 1213.84,239.75 456.56,-1393.97 2783.3,-2196.01 4215.96,-2196.01 221.87,0 422.46,19.27 591.15,58.53 3363.23,782.8 3239.58,3656.8 3597.95,3663.1 748.06,13.2 1448.01,-2.5 2110.95,404.32 64.59,39.62 330.38,293.3 608.08,599.55 -252.44,49.84 -500.76,120.89 -741.46,213.57 -780.14,300.46 -1564.54,1028.31 -1363.98,1839.91 -656.35,-165.95 -1339.57,-311.64 -2011.51,-311.64 -347.41,0 -691.8,38.94 -1027.82,134.23 -425.34,-161.61 -878.8,-248.57 -1330.11,-248.57 -447,0 -892,85.27 -1305.74,267.8 -704.18,-688.77 -1688.28,-1076.65 -2671.61,-1076.65 -210.78,0 -421.36,17.78 -629.32,54.3 -1178.17,206.62 -2236.5,1007.21 -2755.9,2084.7 -453.07,-199.6 -937.75,-292.17 -1424.51,-292.17 -1448.76,0 -2916.74,820.1 -3629.66,2079.59z"/>
  <path class="fil2" d="M30777.32 11421.25c-518.93,-908.33 -1569.01,-1451.78 -2607.41,-1451.78 -381.04,0 -760.34,73.09 -1111.46,228.24 248,-109.57 -220.63,-724.74 -659.49,-1208.61 301.45,-59.55 608.83,-88.87 916.45,-88.87 1043.41,0 2089.29,337.51 2913.56,979.31 720.62,-637.04 1675.76,-930.02 2643.43,-930.02 594.96,0 1194.58,110.7 1747.56,320.28 598.69,226.91 1148.22,553.12 1651.28,946.36 -3.18,0 -6.35,0 -9.88,0 -763.41,0 -1536.35,358.71 -1924.01,1022.99 -475.9,-352.11 -1065.85,-525.32 -1656.68,-525.32 -694.06,0 -1389.45,238.9 -1903.35,707.42z"/>
  <path class="fil3" d="M49615.76 18672.2c-370.41,-385.23 -798.33,-719.66 -1231.9,-1001.96 -172.15,-111.86 -2161.47,-942.83 -2784.82,-942.83 -141.47,0 -212.38,42.69 -176.04,146.23 -312.56,-890.84 -1266.47,-1449.84 -2197.1,-1449.84 -393,0 -781.76,99.62 -1116.54,315.97 -343.96,-1244.73 -975.79,-2736.17 -2170.29,-3226.85 -394.76,-162.24 -793.75,-325.43 -1199.8,-458.64 152.75,-23.71 306.57,-35.14 460.73,-35.14 1555.75,0 3127.02,1167.48 3375.02,2734.59 501.65,-338.31 1096.08,-496.46 1695.45,-496.46 1178.63,0 2377.02,610.66 2928.77,1663.9 276.93,-143.51 571.5,-205.87 871,-205.87 521.76,0 1058.69,189.25 1545.52,468.9l0 2488zm-49615.76 -1448.61l0 -3748.78c445.18,-252.06 962.41,-387.56 1474.63,-387.56 540.89,0 1076.11,150.91 1515.68,475.15 564.71,-558.48 1350.7,-828.46 2140.78,-828.46 889.82,0 1784.99,342.3 2376.25,1000.23 -153,270.33 -271.22,560.85 -347,867.9 -191.31,-59.76 -386.57,-87.73 -580.81,-87.73 -1337.91,0 -2636.98,1324.32 -2415.15,2687.17 -627.46,-347.17 -1344.25,-520.46 -2060.93,-520.46 -732.85,0 -1465.59,181.05 -2103.45,542.54zm25846.97 -3058.29c84.63,-960.76 -768.91,-1538.25 -1695.17,-1538.25 -285.18,0 -577.21,54.71 -850.93,169.86 -360.82,-903.75 -1140.07,-1587.32 -2046.68,-1931.74 336.02,-95.29 680.41,-134.23 1027.82,-134.23 671.94,0 1355.16,145.69 2011.51,311.64 -200.56,-811.6 583.84,-1539.45 1363.98,-1839.91 240.7,-92.68 489.02,-163.73 741.46,-213.57 438.86,483.87 907.49,1099.04 659.49,1208.61 351.12,-155.15 730.42,-228.24 1111.46,-228.24 1038.4,0 2088.48,543.45 2607.41,1451.78 513.9,-468.52 1209.29,-707.42 1903.35,-707.42 590.83,0 1180.78,173.21 1656.68,525.32 387.66,-664.28 1160.6,-1022.99 1924.01,-1022.99 3.53,0 6.7,0 9.88,0 590.2,461.44 1116.19,1015.26 1582.21,1609.13 -152.76,-27.16 -306.57,-47.38 -462.14,-59.16 -44.81,-3.39 -91.72,-5.05 -140.41,-5.05 -911.58,0 -2438.08,582.19 -2984.11,1225.59 -411.94,-245.96 -884.38,-364.98 -1360.98,-370.31 -902.2,-520.88 -2067.14,-803.31 -2917.23,-803.31 -221.86,0 -422.45,19.26 -591.15,58.52 -829.2,193.01 -1629.12,515.41 -2359.44,953.17 -130.25,78.07 -291.12,456 -456.96,905.97 -259.22,117.72 -505.78,262.65 -734.06,434.59z"/>
  <path class="fil2" d="M13970.93 14715.6c-884.24,-1032.05 -2246.88,-1577.1 -3601.3,-1577.1 -952.29,0 -1900.55,269.49 -2675.5,828.61 -58.17,-81.63 -120.54,-159.21 -186.79,-232.94 712.92,-1259.49 2180.9,-2079.59 3629.66,-2079.59 486.76,0 971.44,92.57 1424.51,292.17 519.4,-1077.49 1577.73,-1878.08 2755.9,-2084.7 207.96,-36.52 418.54,-54.3 629.32,-54.3 983.33,0 1967.43,387.88 2671.61,1076.65 413.74,-182.53 858.74,-267.8 1305.74,-267.8 451.31,0 904.77,86.96 1330.11,248.57 -17.25,4.9 -34.53,9.95 -51.75,15.13 -1000.48,301.88 -1872.26,1277.06 -1705.54,2308.69 -471.06,-132.93 -958.74,-197.17 -1446.99,-197.17 -1515.49,0 -3035.92,619.02 -4078.98,1723.78z"/>
  <path class="fil2" d="M-0 18684.49l0 -1460.9c637.86,-361.49 1370.6,-542.54 2103.45,-542.54 716.68,0 1433.47,173.29 2060.93,520.46 -221.83,-1362.85 1077.24,-2687.17 2415.15,-2687.17 194.24,0 389.5,27.97 580.81,87.73 75.78,-307.05 194,-597.57 347,-867.9 66.25,73.73 128.62,151.31 186.79,232.94 774.95,-559.12 1723.21,-828.61 2675.5,-828.61 1354.42,0 2717.06,545.05 3601.3,1577.1 1043.06,-1104.76 2563.49,-1723.78 4078.98,-1723.78 488.25,0 975.93,64.24 1446.99,197.17 -166.72,-1031.63 705.06,-2006.81 1705.54,-2308.69 17.22,-5.18 34.5,-10.23 51.75,-15.13 906.61,344.42 1685.86,1027.99 2046.68,1931.74 273.72,-115.15 565.75,-169.86 850.93,-169.86 926.26,0 1779.8,577.49 1695.17,1538.25 228.28,-171.94 474.84,-316.87 734.06,-434.59 -291,789.45 -597.46,1800.72 -781.54,1803.97 -748.07,13.19 -1448.05,-2.51 -2110.95,404.31 -166.69,102.27 -1672.52,1629.23 -1267.57,1808.16 -351.08,-155.15 -730.43,-228.25 -1111.46,-228.25 -924.2,0 -1857.63,430.51 -2417.64,1165.59l-570.17 0c-452.7,-279.38 -988.21,-421.23 -1522.95,-421.23 -529.34,0 -1057.95,139.07 -1504.5,421.23l-217.82 0c-404.9,-597.54 -1135.9,-918.89 -1858.5,-918.89 -543.67,0 -1082.54,181.93 -1473.98,564.94 -346.43,-1521.25 -2466.45,-2165.71 -3999.05,-2165.71 -370.56,0 -707.08,37.75 -975.54,109.82 -338.14,90.84 -769.13,197.38 -1039.14,430.64 -191.1,165.06 -625.2,1118.13 -856.34,1280.65 -290.65,204.4 -836.4,172.19 -1184.8,349.89 -187.05,95.42 -364.28,212.97 -526.4,348.66l-3162.68 0z"/>
  <path class="fil1" d="M38145.9 12213.52c-94.9,-130.95 -192.26,-260.49 -292.45,-388.23 299.86,53.34 594.78,133.46 885.82,228.99 -201.08,31.22 -400.05,83.75 -593.37,159.24z"/>
  <path class="fil1" d="M41314.38 18684.49c-408.76,-732.04 -1236.87,-1261.47 -2067.81,-1261.47 -228.25,0 -457.2,40.07 -677.69,127 217.31,-1126.18 -230.36,-2355.53 -1121.13,-3078.12 -567.62,-460.52 -1299.28,-702.59 -2029.53,-702.59 -415.29,0 -830.19,78.45 -1213.66,239.74 -185.67,-566.84 -680.44,-1035.75 -1298.75,-1392.69 476.6,5.33 949.04,124.35 1360.98,370.31 546.03,-643.4 2072.53,-1225.59 2984.11,-1225.59 48.69,0 95.6,1.66 140.41,5.05 155.57,11.78 309.38,32 462.14,59.16 100.19,127.74 197.55,257.28 292.45,388.23 193.32,-75.49 392.29,-128.02 593.37,-159.24 406.05,133.21 805.04,296.4 1199.8,458.64 1194.5,490.68 1826.33,1982.12 2170.29,3226.85 334.78,-216.35 723.54,-315.97 1116.54,-315.97 930.63,0 1884.54,559 2197.1,1449.84 -36.34,-103.54 34.57,-146.23 176.04,-146.23 623.35,0 2612.67,830.97 2784.82,942.83 433.57,282.3 861.49,616.73 1231.9,1001.96l0 12.29 -8301.38 0z"/>
  <path class="fil1" d="M30411.92 13894.37c-623.36,-362.66 -1343.03,-541.2 -2063.4,-541.2 -607.63,0 -1215.81,127 -1767.49,377.54 165.84,-449.97 326.71,-827.9 456.96,-905.97 730.32,-437.76 1530.24,-760.16 2359.44,-953.17 168.7,-39.26 369.29,-58.52 591.15,-58.52 850.09,0 2015.03,282.43 2917.23,803.31 -11.15,-0.14 -22.4,-0.21 -33.55,-0.21 -962.91,0 -1937.46,462.42 -2460.34,1278.22z"/>
  <path class="fil2" d="M3162.68 18684.49c162.12,-135.69 339.35,-253.24 526.4,-348.66 348.4,-177.7 894.15,-145.49 1184.8,-349.89 231.14,-162.52 665.24,-1115.59 856.34,-1280.65 270.01,-233.26 701,-339.8 1039.14,-430.64 268.46,-72.07 604.98,-109.82 975.54,-109.82 1532.6,0 3652.62,644.46 3999.05,2165.71 391.44,-383.01 930.31,-564.94 1473.98,-564.94 722.6,0 1453.6,321.35 1858.5,918.89l-11913.75 0zm12131.57 0c446.55,-282.16 975.16,-421.23 1504.5,-421.23 534.74,0 1070.25,141.85 1522.95,421.23l-3027.45 0zm3597.62 0c560.01,-735.08 1493.44,-1165.59 2417.64,-1165.59 381.03,0 760.38,73.1 1111.46,228.25 -404.95,-178.93 1100.88,-1705.89 1267.57,-1808.16 662.9,-406.82 1362.88,-391.12 2110.95,-404.31 184.08,-3.25 490.54,-1014.52 781.54,-1803.97 551.68,-250.54 1159.86,-377.54 1767.49,-377.54 720.37,0 1440.04,178.54 2063.4,541.2 522.88,-815.8 1497.43,-1278.22 2460.34,-1278.22 11.15,0 22.4,0.07 33.55,0.21 618.31,356.94 1113.08,825.85 1298.75,1392.69 383.47,-161.29 798.37,-239.74 1213.66,-239.74 730.25,0 1461.91,242.07 2029.53,702.59 890.77,722.59 1338.44,1951.94 1121.13,3078.12 220.49,-86.93 449.44,-127 677.69,-127 830.94,0 1659.05,529.43 2067.81,1261.47l-22422.51 0z"/>
  <path class="fil1" d="M44669.47 7968.83c-177.1,0 -355.25,-50.13 -518.94,-121.29 -187.33,-81.45 -389.82,-286.63 -278.34,-458.04 -164.4,197.16 -408.17,281.16 -664.99,281.16 -254.35,0 -521.76,-82.62 -736.25,-219.36 -153.1,-97.4 -299.86,-229.13 -341.84,-405.51 -41.98,-176.43 68.79,-395.29 249.77,-407.43 -194.03,-180.8 -137.94,-523.73 51.51,-709.65 189.08,-185.91 463.9,-250.64 726.36,-289.13 88.2,-12.95 181.69,-20.99 275.17,-20.99 288.57,0 575.73,76.8 696.38,323.92 171.81,-368.27 567.62,-620.04 974.02,-620.04 2.47,0 4.94,0 7.77,0.03 408.86,3.28 804.68,262.29 971.55,635.64 213.07,-14.64 426.5,-22.05 639.93,-22.23 2.12,0 3.88,0 5.65,0 156.63,0 319.62,6.1 458.61,77.75 200.02,102.66 318.21,343.26 277.99,564.17 -40.57,220.87 -236.36,403.96 -459.67,429.29 -23.28,267.58 -222.25,496.78 -462.14,617.72 -239.54,120.93 -515.41,148.9 -784.22,148.9 -183.8,0 -430.04,-95.46 -423.34,-257.17 -53.27,216.29 -256.11,381.49 -476.25,431.66 -62.44,14.18 -125.59,20.6 -188.73,20.6zm-15807.24 -1112.52c-286.56,0 -553.65,-84.77 -705.87,-319.16 -179.17,91.55 -380.29,137.37 -581.45,137.37 -195.68,0 -391.37,-43.39 -566.77,-130.28 -355.74,-176.21 -619.58,-527.08 -690.1,-917.75 -151.77,1.8 -303.53,3.63 -455.26,5.43 -38.1,0.46 -76.38,0.88 -114.73,0.88 -197.48,0 -396.48,-11.14 -577.88,-85.9 -216.61,-89.28 -403.51,-294 -396.67,-528.18 5.58,-190.85 185.35,-364.73 364.57,-364.73 40.71,0 81.38,8.96 119.94,28.75 151.8,-307.31 489.2,-510.86 830.69,-510.86 29.88,0 59.86,1.55 89.67,4.73 114.76,12.28 253.72,94.61 236.86,199.25 73.09,-240.74 344.52,-383.93 599.01,-383.93 1.87,0 3.78,0 5.68,0 264.45,2.22 511.85,123.44 745.18,247.97 113.55,60.6 239.85,194.17 192.08,294.25 248.64,-332.18 660.54,-535.31 1074.95,-535.31 40.99,0 82.02,2.01 122.91,6.04 468.03,46.32 900.08,360.71 1088.14,791.81 93.21,213.64 127.18,465.1 33.8,678.67 -79.55,181.93 -268.89,320.92 -462.46,320.92 -33.65,0 -67.45,-4.2 -100.79,-13.09 142.1,188.35 291.82,424.18 205,643.58 -69.32,175.12 -263.06,262.04 -441.75,321.62 -191.24,63.82 -408.05,107.92 -614.75,107.92zm8037.66 -3317.63c-206.38,0 -404.29,-51.61 -564.09,-182.42 -210.96,-172.72 -345.02,-472.93 -614.19,-516.4 -92.78,243.35 -357.01,379.24 -619.97,379.24 -87,0 -173.85,-14.85 -254.32,-45.65 -323.71,-123.86 -540.91,-441.78 -636.02,-775.05 -101.46,74.72 -225.53,109.29 -350.66,109.29 -265.96,0 -536.65,-156.28 -604.38,-415.36 -83.36,-318.74 222.95,-657.51 531.92,-657.51 60.36,0 120.86,12.95 178.57,41.49 40.57,-218.44 130.14,-441.58 310.59,-571.26 81.63,-58.66 185.1,-89.95 285.99,-89.95 122.07,0 240.39,45.82 311.65,144.39 17.71,-687.64 733.39,-959.49 1382.15,-959.49 232.12,0 455.79,34.82 635.7,97.86 254,88.97 464.26,371.97 686.86,443.51 58.56,18.91 118.18,25.65 177.8,25.65 75.5,0 151.7,-10.72 228.6,-21.41 76.91,-10.73 154.16,-21.49 231.78,-21.49 71.26,0 142.87,9.07 214.48,35.42 319.27,117.44 506.59,589.21 244.13,805.01 417.69,5.96 677.68,554.88 490.71,928.23 -148.87,296.58 -487.19,452.26 -823.03,452.26 -87.14,0 -173.57,-10.45 -256.82,-31.54 68.08,312.7 -252.94,568.32 -549.28,688.55 -199.32,80.72 -423.33,136.63 -638.17,136.63zm-22340.39 1673.54c-239.36,0 -469.08,-59.86 -654.29,-211.56 -244.58,-200.23 -400.09,-548.36 -712.16,-598.77 -107.56,282.19 -413.87,439.78 -718.78,439.78 -100.86,0 -201.58,-17.26 -294.89,-52.96 -375.35,-143.61 -627.2,-512.23 -737.48,-898.7 -117.65,86.64 -261.51,126.72 -406.61,126.72 -308.36,0 -622.19,-181.19 -700.76,-481.61 -96.62,-369.54 258.52,-762.36 616.76,-762.36 69.99,0 140.16,15 207.05,48.12 47.06,-253.29 150.92,-512.02 360.11,-662.37 94.69,-68.05 214.67,-104.35 331.65,-104.35 141.53,0 278.69,53.12 361.35,167.42 20.53,-797.27 850.44,-1112.52 1602.71,-1112.52 269.2,0 528.49,40.36 737.12,113.49 294.4,103.16 538.31,431.31 796.15,514.25 68.16,21.91 136.99,29.74 206.45,29.74 87.45,0 175.86,-12.42 264.9,-24.84 89.04,-12.45 178.72,-24.87 268.82,-24.87 82.69,0 165.7,10.48 248.85,41.03 369.92,136.17 587.15,683.19 282.82,933.41 484.14,6.92 785.8,643.4 568.84,1076.29 -172.4,343.89 -564.79,524.37 -954.18,524.37 -100.75,0 -201.33,-12.1 -297.82,-36.55 78.99,362.59 -293.01,658.99 -636.9,798.38 -230.93,93.62 -490.57,158.46 -739.71,158.46zm-9933.83 4308.83c-2.61,0 -5.22,0 -7.87,0 -408.9,-3.28 -804.82,-262.32 -971.62,-635.67 -213,14.64 -426.51,22.08 -640.04,22.23 -1.79,0 -3.58,0 -5.38,0 -156.82,0 -319.55,-6.07 -458.88,-77.72 -199.69,-102.69 -318.14,-343.29 -277.73,-564.16 40.4,-220.91 236.34,-403.97 459.46,-429.33 23.51,-267.55 222.27,-496.79 462.1,-617.72 239.83,-120.93 515.72,-148.91 784.32,-148.91 183.94,0 430.07,95.47 423.23,257.21 53.55,-216.32 256.43,-381.52 476.39,-431.65 62.3,-14.22 125.48,-20.64 188.84,-20.64 176.89,0 355.11,50.13 518.73,121.28 187.43,81.5 389.85,286.67 278.52,458.05 164.39,-197.17 408.19,-281.13 664.88,-281.13 254.52,0 521.65,82.59 736.35,219.32 152.96,97.44 299.79,229.13 341.84,405.56 42.09,176.39 -68.76,395.28 -249.7,407.42 194,180.8 137.66,523.7 -51.43,709.61 -189.12,185.95 -464.12,250.69 -726.48,289.17 -88.12,12.92 -181.64,20.96 -275.13,20.96 -288.6,0 -576.01,-76.77 -696.59,-323.89 -171.63,368.23 -567.66,620.01 -973.81,620.01z"/>
 </g>
</svg>
