<?xml version="1.0" encoding="UTF-8"?>
<!DOCTYPE svg PUBLIC "-//W3C//DTD SVG 1.1//EN" "http://www.w3.org/Graphics/SVG/1.1/DTD/svg11.dtd">
<!-- Creator: CorelDRAW 2018 (64-Bit) -->
<svg xmlns="http://www.w3.org/2000/svg" xml:space="preserve" width="100%" height="100%" version="1.1" style="shape-rendering:geometricPrecision; text-rendering:geometricPrecision; image-rendering:optimizeQuality; fill-rule:evenodd; clip-rule:evenodd"
viewBox="0 0 8167.79 8165.85"
 xmlns:xlink="http://www.w3.org/1999/xlink">
 <defs>
  <style type="text/css">
   <![CDATA[
    .str0 {stroke:#2B2A29;stroke-width:20;stroke-miterlimit:22.9256}
    .fil3 {fill:#FEFEFE}
    .fil6 {fill:#2B2A29}
    .fil4 {fill:#FBBA00}
    .fil2 {fill:#FEFEFE;fill-rule:nonzero}
    .fil0 {fill:#211F1F;fill-rule:nonzero}
    .fil5 {fill:#FBBA00;fill-rule:nonzero}
    .fil1 {fill:black;fill-rule:nonzero}
   ]]>
  </style>
 </defs>
 <g id="Layer_x0020_1">
  <metadata id="CorelCorpID_0Corel-Layer"/>
  <g id="_1919379510304">
   <path class="fil0" d="M57.57 115.85c4.37,0 8.79,-0.52 13.25,-1.54l2.53 -0.61c30.96,-7.29 50.18,-38.28 42.89,-69.27 -7.27,-30.97 -38.28,-50.14 -69.25,-42.89l-2.55 0.61c-30.97,7.26 -50.17,38.27 -42.89,69.24 6.24,26.56 29.89,44.46 56.02,44.46z"/>
   <path class="fil0" d="M407.57 115.85c4.37,0 8.79,-0.52 13.25,-1.54l2.53 -0.61c30.96,-7.29 50.18,-38.28 42.89,-69.27 -7.27,-30.97 -38.28,-50.14 -69.25,-42.89l-2.55 0.61c-30.97,7.26 -50.17,38.27 -42.89,69.24 6.24,26.56 29.89,44.46 56.02,44.46z"/>
   <path class="fil0" d="M757.57 115.85c4.37,0 8.79,-0.52 13.25,-1.54l2.53 -0.61c30.96,-7.29 50.18,-38.28 42.89,-69.27 -7.27,-30.97 -38.28,-50.14 -69.25,-42.89l-2.55 0.61c-30.97,7.26 -50.17,38.27 -42.89,69.24 6.24,26.56 29.89,44.46 56.02,44.46z"/>
   <path class="fil0" d="M1107.57 115.85c4.37,0 8.79,-0.52 13.25,-1.54l2.53 -0.61c30.96,-7.29 50.18,-38.28 42.89,-69.27 -7.27,-30.97 -38.28,-50.14 -69.25,-42.89l-2.55 0.61c-30.97,7.26 -50.17,38.27 -42.89,69.24 6.24,26.56 29.89,44.46 56.02,44.46z"/>
   <path class="fil0" d="M1457.57 115.85c4.37,0 8.79,-0.52 13.25,-1.54l2.53 -0.61c30.96,-7.29 50.18,-38.28 42.89,-69.27 -7.27,-30.97 -38.28,-50.14 -69.25,-42.89l-2.55 0.61c-30.97,7.26 -50.17,38.27 -42.89,69.24 6.24,26.56 29.89,44.46 56.02,44.46z"/>
   <path class="fil0" d="M1807.57 115.85c4.37,0 8.79,-0.52 13.25,-1.54l2.53 -0.61c30.96,-7.29 50.18,-38.28 42.89,-69.27 -7.27,-30.97 -38.28,-50.14 -69.25,-42.89l-2.55 0.61c-30.97,7.26 -50.17,38.27 -42.89,69.24 6.24,26.56 29.89,44.46 56.02,44.46z"/>
   <path class="fil0" d="M2157.57 115.85c4.37,0 8.79,-0.52 13.25,-1.54l2.53 -0.61c30.96,-7.29 50.18,-38.28 42.89,-69.27 -7.27,-30.97 -38.28,-50.14 -69.25,-42.89l-2.55 0.61c-30.97,7.26 -50.17,38.27 -42.89,69.24 6.24,26.56 29.89,44.46 56.02,44.46z"/>
   <path class="fil0" d="M2507.57 115.85c4.37,0 8.79,-0.52 13.25,-1.54l2.53 -0.61c30.96,-7.29 50.18,-38.28 42.89,-69.27 -7.27,-30.97 -38.28,-50.14 -69.25,-42.89l-2.55 0.61c-30.97,7.26 -50.17,38.27 -42.89,69.24 6.24,26.56 29.89,44.46 56.02,44.46z"/>
   <path class="fil0" d="M2857.57 115.85c4.37,0 8.79,-0.52 13.25,-1.54l2.53 -0.61c30.96,-7.29 50.18,-38.28 42.89,-69.27 -7.27,-30.97 -38.28,-50.14 -69.25,-42.89l-2.55 0.61c-30.97,7.26 -50.17,38.27 -42.89,69.24 6.24,26.56 29.89,44.46 56.02,44.46z"/>
   <path class="fil0" d="M3207.57 115.85c4.37,0 8.79,-0.52 13.25,-1.54l2.53 -0.61c30.96,-7.29 50.18,-38.28 42.89,-69.27 -7.27,-30.97 -38.28,-50.14 -69.25,-42.89l-2.55 0.61c-30.97,7.26 -50.17,38.27 -42.89,69.24 6.24,26.56 29.89,44.46 56.02,44.46z"/>
   <path class="fil0" d="M3557.57 115.85c4.37,0 8.79,-0.52 13.25,-1.54l2.53 -0.61c30.96,-7.29 50.18,-38.28 42.89,-69.27 -7.27,-30.97 -38.28,-50.14 -69.25,-42.89l-2.55 0.61c-30.97,7.26 -50.17,38.27 -42.89,69.24 6.24,26.56 29.89,44.46 56.02,44.46z"/>
   <path class="fil0" d="M3907.57 115.85c4.37,0 8.79,-0.52 13.25,-1.54l2.53 -0.61c30.96,-7.29 50.18,-38.28 42.89,-69.27 -7.27,-30.97 -38.28,-50.14 -69.25,-42.89l-2.55 0.61c-30.97,7.26 -50.17,38.27 -42.89,69.24 6.24,26.56 29.89,44.46 56.02,44.46z"/>
   <path class="fil0" d="M4257.57 115.85c4.37,0 8.79,-0.52 13.25,-1.54l2.53 -0.61c30.96,-7.29 50.18,-38.28 42.89,-69.27 -7.27,-30.97 -38.28,-50.14 -69.25,-42.89l-2.55 0.61c-30.97,7.26 -50.17,38.27 -42.89,69.24 6.24,26.56 29.89,44.46 56.02,44.46z"/>
   <path class="fil0" d="M4607.57 115.85c4.37,0 8.79,-0.52 13.25,-1.54l2.53 -0.61c30.96,-7.29 50.18,-38.28 42.89,-69.27 -7.27,-30.97 -38.28,-50.14 -69.25,-42.89l-2.55 0.61c-30.97,7.26 -50.17,38.27 -42.89,69.24 6.24,26.56 29.89,44.46 56.02,44.46z"/>
   <path class="fil0" d="M4957.57 115.85c4.37,0 8.79,-0.52 13.25,-1.54l2.53 -0.61c30.96,-7.29 50.18,-38.28 42.89,-69.27 -7.27,-30.97 -38.28,-50.14 -69.25,-42.89l-2.55 0.61c-30.97,7.26 -50.17,38.27 -42.89,69.24 6.24,26.56 29.89,44.46 56.02,44.46z"/>
   <path class="fil0" d="M5307.57 115.85c4.37,0 8.79,-0.52 13.25,-1.54l2.53 -0.61c30.96,-7.29 50.18,-38.28 42.89,-69.27 -7.27,-30.97 -38.28,-50.14 -69.25,-42.89l-2.55 0.61c-30.97,7.26 -50.17,38.27 -42.89,69.24 6.24,26.56 29.89,44.46 56.02,44.46z"/>
   <path class="fil0" d="M5657.57 115.85c4.37,0 8.79,-0.52 13.25,-1.54l2.53 -0.61c30.96,-7.29 50.18,-38.28 42.89,-69.27 -7.27,-30.97 -38.28,-50.14 -69.25,-42.89l-2.55 0.61c-30.97,7.26 -50.17,38.27 -42.89,69.24 6.24,26.56 29.89,44.46 56.02,44.46z"/>
   <path class="fil0" d="M6007.57 115.85c4.37,0 8.79,-0.52 13.25,-1.54l2.53 -0.61c30.96,-7.29 50.18,-38.28 42.89,-69.27 -7.27,-30.97 -38.28,-50.14 -69.25,-42.89l-2.55 0.61c-30.97,7.26 -50.17,38.27 -42.89,69.24 6.24,26.56 29.89,44.46 56.02,44.46z"/>
   <path class="fil0" d="M6357.57 115.85c4.37,0 8.79,-0.52 13.25,-1.54l2.53 -0.61c30.96,-7.29 50.18,-38.28 42.89,-69.27 -7.27,-30.97 -38.28,-50.14 -69.25,-42.89l-2.55 0.61c-30.97,7.26 -50.17,38.27 -42.89,69.24 6.24,26.56 29.89,44.46 56.02,44.46z"/>
   <path class="fil0" d="M6707.57 115.85c4.37,0 8.79,-0.52 13.25,-1.54l2.53 -0.61c30.96,-7.29 50.18,-38.28 42.89,-69.27 -7.27,-30.97 -38.28,-50.14 -69.25,-42.89l-2.55 0.61c-30.97,7.26 -50.17,38.27 -42.89,69.24 6.24,26.56 29.89,44.46 56.02,44.46z"/>
   <path class="fil0" d="M7057.57 115.85c4.37,0 8.79,-0.52 13.25,-1.54l2.53 -0.61c30.96,-7.29 50.18,-38.28 42.89,-69.27 -7.27,-30.97 -38.28,-50.14 -69.25,-42.89l-2.55 0.61c-30.97,7.26 -50.17,38.27 -42.89,69.24 6.24,26.56 29.89,44.46 56.02,44.46z"/>
   <path class="fil0" d="M7407.57 115.85c4.37,0 8.79,-0.52 13.25,-1.54l2.53 -0.61c30.96,-7.29 50.18,-38.28 42.89,-69.27 -7.27,-30.97 -38.28,-50.14 -69.25,-42.89l-2.55 0.61c-30.97,7.26 -50.17,38.27 -42.89,69.24 6.24,26.56 29.89,44.46 56.02,44.46z"/>
   <path class="fil0" d="M7757.57 115.85c4.37,0 8.79,-0.52 13.25,-1.54l2.53 -0.61c30.96,-7.29 50.18,-38.28 42.89,-69.27 -7.27,-30.97 -38.28,-50.14 -69.25,-42.89l-2.55 0.61c-30.97,7.26 -50.17,38.27 -42.89,69.24 6.24,26.56 29.89,44.46 56.02,44.46z"/>
   <path class="fil0" d="M8107.57 115.85c4.37,0 8.79,-0.52 13.25,-1.54l2.53 -0.61c30.96,-7.29 50.18,-38.28 42.89,-69.27 -7.27,-30.97 -38.28,-50.14 -69.25,-42.89l-2.55 0.61c-30.97,7.26 -50.17,38.27 -42.89,69.24 6.24,26.56 29.89,44.46 56.02,44.46z"/>
   <path class="fil0" d="M8107.57 465.85c4.37,0 8.79,-0.52 13.25,-1.54l2.53 -0.61c30.96,-7.29 50.18,-38.28 42.89,-69.27 -7.27,-30.97 -38.28,-50.14 -69.25,-42.89l-2.55 0.61c-30.97,7.26 -50.17,38.27 -42.89,69.24 6.24,26.56 29.89,44.46 56.02,44.46z"/>
   <path class="fil0" d="M8107.57 815.85c4.37,0 8.79,-0.52 13.25,-1.54l2.53 -0.61c30.96,-7.29 50.18,-38.28 42.89,-69.27 -7.27,-30.97 -38.28,-50.14 -69.25,-42.89l-2.55 0.61c-30.97,7.26 -50.17,38.27 -42.89,69.24 6.24,26.56 29.89,44.46 56.02,44.46z"/>
   <path class="fil0" d="M8107.57 1165.85c4.37,0 8.79,-0.52 13.25,-1.54l2.53 -0.61c30.96,-7.29 50.18,-38.28 42.89,-69.27 -7.27,-30.97 -38.28,-50.14 -69.25,-42.89l-2.55 0.61c-30.97,7.26 -50.17,38.27 -42.89,69.24 6.24,26.56 29.89,44.46 56.02,44.46z"/>
   <path class="fil0" d="M8107.57 1515.85c4.37,0 8.79,-0.52 13.25,-1.54l2.53 -0.61c30.96,-7.29 50.18,-38.28 42.89,-69.27 -7.27,-30.97 -38.28,-50.14 -69.25,-42.89l-2.55 0.61c-30.97,7.26 -50.17,38.27 -42.89,69.24 6.24,26.56 29.89,44.46 56.02,44.46z"/>
   <path class="fil0" d="M8107.57 1865.85c4.37,0 8.79,-0.52 13.25,-1.54l2.53 -0.61c30.96,-7.29 50.18,-38.28 42.89,-69.27 -7.27,-30.97 -38.28,-50.14 -69.25,-42.89l-2.55 0.61c-30.97,7.26 -50.17,38.27 -42.89,69.24 6.24,26.56 29.89,44.46 56.02,44.46z"/>
   <path class="fil0" d="M8107.57 2215.85c4.37,0 8.79,-0.52 13.25,-1.54l2.53 -0.61c30.96,-7.29 50.18,-38.28 42.89,-69.27 -7.27,-30.97 -38.28,-50.14 -69.25,-42.89l-2.55 0.61c-30.97,7.26 -50.17,38.27 -42.89,69.24 6.24,26.56 29.89,44.46 56.02,44.46z"/>
   <path class="fil0" d="M8107.57 2565.85c4.37,0 8.79,-0.52 13.25,-1.54l2.53 -0.61c30.96,-7.29 50.18,-38.28 42.89,-69.27 -7.27,-30.97 -38.28,-50.14 -69.25,-42.89l-2.55 0.61c-30.97,7.26 -50.17,38.27 -42.89,69.24 6.24,26.56 29.89,44.46 56.02,44.46z"/>
   <path class="fil0" d="M8107.57 2915.85c4.37,0 8.79,-0.52 13.25,-1.54l2.53 -0.61c30.96,-7.29 50.18,-38.28 42.89,-69.27 -7.27,-30.97 -38.28,-50.14 -69.25,-42.89l-2.55 0.61c-30.97,7.26 -50.17,38.27 -42.89,69.24 6.24,26.56 29.89,44.46 56.02,44.46z"/>
   <path class="fil0" d="M8107.57 3265.85c4.37,0 8.79,-0.52 13.25,-1.54l2.53 -0.61c30.96,-7.29 50.18,-38.28 42.89,-69.27 -7.27,-30.97 -38.28,-50.14 -69.25,-42.89l-2.55 0.61c-30.97,7.26 -50.17,38.27 -42.89,69.24 6.24,26.56 29.89,44.46 56.02,44.46z"/>
   <path class="fil0" d="M8107.57 3615.85c4.37,0 8.79,-0.52 13.25,-1.54l2.53 -0.61c30.96,-7.29 50.18,-38.28 42.89,-69.27 -7.27,-30.97 -38.28,-50.14 -69.25,-42.89l-2.55 0.61c-30.97,7.26 -50.17,38.27 -42.89,69.24 6.24,26.56 29.89,44.46 56.02,44.46z"/>
   <path class="fil0" d="M8107.57 3965.85c4.37,0 8.79,-0.52 13.25,-1.54l2.53 -0.61c30.96,-7.29 50.18,-38.28 42.89,-69.27 -7.27,-30.97 -38.28,-50.14 -69.25,-42.89l-2.55 0.61c-30.97,7.26 -50.17,38.27 -42.89,69.24 6.24,26.56 29.89,44.46 56.02,44.46z"/>
   <path class="fil0" d="M8107.57 4315.85c4.37,0 8.79,-0.52 13.25,-1.54l2.53 -0.61c30.96,-7.29 50.18,-38.28 42.89,-69.27 -7.27,-30.97 -38.28,-50.14 -69.25,-42.89l-2.55 0.61c-30.97,7.26 -50.17,38.27 -42.89,69.24 6.24,26.56 29.89,44.46 56.02,44.46z"/>
   <path class="fil0" d="M8107.57 4665.85c4.37,0 8.79,-0.52 13.25,-1.54l2.53 -0.61c30.96,-7.29 50.18,-38.28 42.89,-69.27 -7.27,-30.97 -38.28,-50.14 -69.25,-42.89l-2.55 0.61c-30.97,7.26 -50.17,38.27 -42.89,69.24 6.24,26.56 29.89,44.46 56.02,44.46z"/>
   <path class="fil0" d="M8107.57 5015.85c4.37,0 8.79,-0.52 13.25,-1.54l2.53 -0.61c30.96,-7.29 50.18,-38.28 42.89,-69.27 -7.27,-30.97 -38.28,-50.14 -69.25,-42.89l-2.55 0.61c-30.97,7.26 -50.17,38.27 -42.89,69.24 6.24,26.56 29.89,44.46 56.02,44.46z"/>
   <path class="fil0" d="M8107.57 5365.85c4.37,0 8.79,-0.52 13.25,-1.54l2.53 -0.61c30.96,-7.29 50.18,-38.28 42.89,-69.27 -7.27,-30.97 -38.28,-50.14 -69.25,-42.89l-2.55 0.61c-30.97,7.26 -50.17,38.27 -42.89,69.24 6.24,26.56 29.89,44.46 56.02,44.46z"/>
   <path class="fil0" d="M8107.57 5715.85c4.37,0 8.79,-0.52 13.25,-1.54l2.53 -0.61c30.96,-7.29 50.18,-38.28 42.89,-69.27 -7.27,-30.97 -38.28,-50.14 -69.25,-42.89l-2.55 0.61c-30.97,7.26 -50.17,38.27 -42.89,69.24 6.24,26.56 29.89,44.46 56.02,44.46z"/>
   <path class="fil0" d="M8107.57 6065.85c4.37,0 8.79,-0.52 13.25,-1.54l2.53 -0.61c30.96,-7.29 50.18,-38.28 42.89,-69.27 -7.27,-30.97 -38.28,-50.14 -69.25,-42.89l-2.55 0.61c-30.97,7.26 -50.17,38.27 -42.89,69.24 6.24,26.56 29.89,44.46 56.02,44.46z"/>
   <path class="fil0" d="M8107.57 6415.85c4.37,0 8.79,-0.52 13.25,-1.54l2.53 -0.61c30.96,-7.29 50.18,-38.28 42.89,-69.27 -7.27,-30.97 -38.28,-50.14 -69.25,-42.89l-2.55 0.61c-30.97,7.26 -50.17,38.27 -42.89,69.24 6.24,26.56 29.89,44.46 56.02,44.46z"/>
   <path class="fil0" d="M8107.57 6765.85c4.37,0 8.79,-0.52 13.25,-1.54l2.53 -0.61c30.96,-7.29 50.18,-38.28 42.89,-69.27 -7.27,-30.97 -38.28,-50.14 -69.25,-42.89l-2.55 0.61c-30.97,7.26 -50.17,38.27 -42.89,69.24 6.24,26.56 29.89,44.46 56.02,44.46z"/>
   <path class="fil0" d="M8107.57 7115.85c4.37,0 8.79,-0.52 13.25,-1.54l2.53 -0.61c30.96,-7.29 50.18,-38.28 42.89,-69.27 -7.27,-30.97 -38.28,-50.14 -69.25,-42.89l-2.55 0.61c-30.97,7.26 -50.17,38.27 -42.89,69.24 6.24,26.56 29.89,44.46 56.02,44.46z"/>
   <path class="fil0" d="M8107.57 7465.85c4.37,0 8.79,-0.52 13.25,-1.54l2.53 -0.61c30.96,-7.29 50.18,-38.28 42.89,-69.27 -7.27,-30.97 -38.28,-50.14 -69.25,-42.89l-2.55 0.61c-30.97,7.26 -50.17,38.27 -42.89,69.24 6.24,26.56 29.89,44.46 56.02,44.46z"/>
   <path class="fil0" d="M8107.57 7815.85c4.37,0 8.79,-0.52 13.25,-1.54l2.53 -0.61c30.96,-7.29 50.18,-38.28 42.89,-69.27 -7.27,-30.97 -38.28,-50.14 -69.25,-42.89l-2.55 0.61c-30.97,7.26 -50.17,38.27 -42.89,69.24 6.24,26.56 29.89,44.46 56.02,44.46z"/>
   <path class="fil0" d="M8107.57 8165.85c4.37,0 8.79,-0.52 13.25,-1.54l2.53 -0.61c30.96,-7.29 50.18,-38.28 42.89,-69.27 -7.27,-30.97 -38.28,-50.14 -69.25,-42.89l-2.55 0.61c-30.97,7.26 -50.17,38.27 -42.89,69.24 6.24,26.56 29.89,44.46 56.02,44.46z"/>
   <path class="fil0" d="M7757.57 8165.85c4.37,0 8.79,-0.52 13.25,-1.54l2.53 -0.61c30.96,-7.29 50.18,-38.28 42.89,-69.27 -7.27,-30.97 -38.28,-50.14 -69.25,-42.89l-2.55 0.61c-30.97,7.26 -50.17,38.27 -42.89,69.24 6.24,26.56 29.89,44.46 56.02,44.46z"/>
   <path class="fil0" d="M7407.57 8165.85c4.37,0 8.79,-0.52 13.25,-1.54l2.53 -0.61c30.96,-7.29 50.18,-38.28 42.89,-69.27 -7.27,-30.97 -38.28,-50.14 -69.25,-42.89l-2.55 0.61c-30.97,7.26 -50.17,38.27 -42.89,69.24 6.24,26.56 29.89,44.46 56.02,44.46z"/>
   <path class="fil0" d="M7057.57 8165.85c4.37,0 8.79,-0.52 13.25,-1.54l2.53 -0.61c30.96,-7.29 50.18,-38.28 42.89,-69.27 -7.27,-30.97 -38.28,-50.14 -69.25,-42.89l-2.55 0.61c-30.97,7.26 -50.17,38.27 -42.89,69.24 6.24,26.56 29.89,44.46 56.02,44.46z"/>
   <path class="fil0" d="M6707.57 8165.85c4.37,0 8.79,-0.52 13.25,-1.54l2.53 -0.61c30.96,-7.29 50.18,-38.28 42.89,-69.27 -7.27,-30.97 -38.28,-50.14 -69.25,-42.89l-2.55 0.61c-30.97,7.26 -50.17,38.27 -42.89,69.24 6.24,26.56 29.89,44.46 56.02,44.46z"/>
   <path class="fil0" d="M6357.57 8165.85c4.37,0 8.79,-0.52 13.25,-1.54l2.53 -0.61c30.96,-7.29 50.18,-38.28 42.89,-69.27 -7.27,-30.97 -38.28,-50.14 -69.25,-42.89l-2.55 0.61c-30.97,7.26 -50.17,38.27 -42.89,69.24 6.24,26.56 29.89,44.46 56.02,44.46z"/>
   <path class="fil0" d="M6007.57 8165.85c4.37,0 8.79,-0.52 13.25,-1.54l2.53 -0.61c30.96,-7.29 50.18,-38.28 42.89,-69.27 -7.27,-30.97 -38.28,-50.14 -69.25,-42.89l-2.55 0.61c-30.97,7.26 -50.17,38.27 -42.89,69.24 6.24,26.56 29.89,44.46 56.02,44.46z"/>
   <path class="fil0" d="M5657.57 8165.85c4.37,0 8.79,-0.52 13.25,-1.54l2.53 -0.61c30.96,-7.29 50.18,-38.28 42.89,-69.27 -7.27,-30.97 -38.28,-50.14 -69.25,-42.89l-2.55 0.61c-30.97,7.26 -50.17,38.27 -42.89,69.24 6.24,26.56 29.89,44.46 56.02,44.46z"/>
   <path class="fil0" d="M5307.57 8165.85c4.37,0 8.79,-0.52 13.25,-1.54l2.53 -0.61c30.96,-7.29 50.18,-38.28 42.89,-69.27 -7.27,-30.97 -38.28,-50.14 -69.25,-42.89l-2.55 0.61c-30.97,7.26 -50.17,38.27 -42.89,69.24 6.24,26.56 29.89,44.46 56.02,44.46z"/>
   <path class="fil0" d="M4957.57 8165.85c4.37,0 8.79,-0.52 13.25,-1.54l2.53 -0.61c30.96,-7.29 50.18,-38.28 42.89,-69.27 -7.27,-30.97 -38.28,-50.14 -69.25,-42.89l-2.55 0.61c-30.97,7.26 -50.17,38.27 -42.89,69.24 6.24,26.56 29.89,44.46 56.02,44.46z"/>
   <path class="fil0" d="M4607.57 8165.85c4.37,0 8.79,-0.52 13.25,-1.54l2.53 -0.61c30.96,-7.29 50.18,-38.28 42.89,-69.27 -7.27,-30.97 -38.28,-50.14 -69.25,-42.89l-2.55 0.61c-30.97,7.26 -50.17,38.27 -42.89,69.24 6.24,26.56 29.89,44.46 56.02,44.46z"/>
   <path class="fil0" d="M4257.57 8165.85c4.37,0 8.79,-0.52 13.25,-1.54l2.53 -0.61c30.96,-7.29 50.18,-38.28 42.89,-69.27 -7.27,-30.97 -38.28,-50.14 -69.25,-42.89l-2.55 0.61c-30.97,7.26 -50.17,38.27 -42.89,69.24 6.24,26.56 29.89,44.46 56.02,44.46z"/>
   <path class="fil0" d="M3907.57 8165.85c4.37,0 8.79,-0.52 13.25,-1.54l2.53 -0.61c30.96,-7.29 50.18,-38.28 42.89,-69.27 -7.27,-30.97 -38.28,-50.14 -69.25,-42.89l-2.55 0.61c-30.97,7.26 -50.17,38.27 -42.89,69.24 6.24,26.56 29.89,44.46 56.02,44.46z"/>
   <path class="fil0" d="M3557.57 8165.85c4.37,0 8.79,-0.52 13.25,-1.54l2.53 -0.61c30.96,-7.29 50.18,-38.28 42.89,-69.27 -7.27,-30.97 -38.28,-50.14 -69.25,-42.89l-2.55 0.61c-30.97,7.26 -50.17,38.27 -42.89,69.24 6.24,26.56 29.89,44.46 56.02,44.46z"/>
   <path class="fil0" d="M3207.57 8165.85c4.37,0 8.79,-0.52 13.25,-1.54l2.53 -0.61c30.96,-7.29 50.18,-38.28 42.89,-69.27 -7.27,-30.97 -38.28,-50.14 -69.25,-42.89l-2.55 0.61c-30.97,7.26 -50.17,38.27 -42.89,69.24 6.24,26.56 29.89,44.46 56.02,44.46z"/>
   <path class="fil0" d="M2857.57 8165.85c4.37,0 8.79,-0.52 13.25,-1.54l2.53 -0.61c30.96,-7.29 50.18,-38.28 42.89,-69.27 -7.27,-30.97 -38.28,-50.14 -69.25,-42.89l-2.55 0.61c-30.97,7.26 -50.17,38.27 -42.89,69.24 6.24,26.56 29.89,44.46 56.02,44.46z"/>
   <path class="fil0" d="M2507.57 8165.85c4.37,0 8.79,-0.52 13.25,-1.54l2.53 -0.61c30.96,-7.29 50.18,-38.28 42.89,-69.27 -7.27,-30.97 -38.28,-50.14 -69.25,-42.89l-2.55 0.61c-30.97,7.26 -50.17,38.27 -42.89,69.24 6.24,26.56 29.89,44.46 56.02,44.46z"/>
   <path class="fil0" d="M2157.57 8165.85c4.37,0 8.79,-0.52 13.25,-1.54l2.53 -0.61c30.96,-7.29 50.18,-38.28 42.89,-69.27 -7.27,-30.97 -38.28,-50.14 -69.25,-42.89l-2.55 0.61c-30.97,7.26 -50.17,38.27 -42.89,69.24 6.24,26.56 29.89,44.46 56.02,44.46z"/>
   <path class="fil0" d="M1807.57 8165.85c4.37,0 8.79,-0.52 13.25,-1.54l2.53 -0.61c30.96,-7.29 50.18,-38.28 42.89,-69.27 -7.27,-30.97 -38.28,-50.14 -69.25,-42.89l-2.55 0.61c-30.97,7.26 -50.17,38.27 -42.89,69.24 6.24,26.56 29.89,44.46 56.02,44.46z"/>
   <path class="fil0" d="M1457.57 8165.85c4.37,0 8.79,-0.52 13.25,-1.54l2.53 -0.61c30.96,-7.29 50.18,-38.28 42.89,-69.27 -7.27,-30.97 -38.28,-50.14 -69.25,-42.89l-2.55 0.61c-30.97,7.26 -50.17,38.27 -42.89,69.24 6.24,26.56 29.89,44.46 56.02,44.46z"/>
   <path class="fil0" d="M1107.57 8165.85c4.37,0 8.79,-0.52 13.25,-1.54l2.53 -0.61c30.96,-7.29 50.18,-38.28 42.89,-69.27 -7.27,-30.97 -38.28,-50.14 -69.25,-42.89l-2.55 0.61c-30.97,7.26 -50.17,38.27 -42.89,69.24 6.24,26.56 29.89,44.46 56.02,44.46z"/>
   <path class="fil0" d="M757.57 8165.85c4.37,0 8.79,-0.52 13.25,-1.54l2.53 -0.61c30.96,-7.29 50.18,-38.28 42.89,-69.27 -7.27,-30.97 -38.28,-50.14 -69.25,-42.89l-2.55 0.61c-30.97,7.26 -50.17,38.27 -42.89,69.24 6.24,26.56 29.89,44.46 56.02,44.46z"/>
   <path class="fil0" d="M407.57 8165.85c4.37,0 8.79,-0.52 13.25,-1.54l2.53 -0.61c30.96,-7.29 50.18,-38.28 42.89,-69.27 -7.27,-30.97 -38.28,-50.14 -69.25,-42.89l-2.55 0.61c-30.97,7.26 -50.17,38.27 -42.89,69.24 6.24,26.56 29.89,44.46 56.02,44.46z"/>
   <path class="fil0" d="M57.57 8165.85c4.37,0 8.79,-0.52 13.25,-1.54l2.53 -0.61c30.96,-7.29 50.18,-38.28 42.89,-69.27 -7.27,-30.97 -38.28,-50.14 -69.25,-42.89l-2.55 0.61c-30.97,7.26 -50.17,38.27 -42.89,69.24 6.24,26.56 29.89,44.46 56.02,44.46z"/>
   <path class="fil0" d="M57.57 7815.85c4.37,0 8.79,-0.52 13.25,-1.54l2.53 -0.61c30.96,-7.29 50.18,-38.28 42.89,-69.27 -7.27,-30.97 -38.28,-50.14 -69.25,-42.89l-2.55 0.61c-30.97,7.26 -50.17,38.27 -42.89,69.24 6.24,26.56 29.89,44.46 56.02,44.46z"/>
   <path class="fil0" d="M57.57 7465.85c4.37,0 8.79,-0.52 13.25,-1.54l2.53 -0.61c30.96,-7.29 50.18,-38.28 42.89,-69.27 -7.27,-30.97 -38.28,-50.14 -69.25,-42.89l-2.55 0.61c-30.97,7.26 -50.17,38.27 -42.89,69.24 6.24,26.56 29.89,44.46 56.02,44.46z"/>
   <path class="fil0" d="M57.57 7115.85c4.37,0 8.79,-0.52 13.25,-1.54l2.53 -0.61c30.96,-7.29 50.18,-38.28 42.89,-69.27 -7.27,-30.97 -38.28,-50.14 -69.25,-42.89l-2.55 0.61c-30.97,7.26 -50.17,38.27 -42.89,69.24 6.24,26.56 29.89,44.46 56.02,44.46z"/>
   <path class="fil0" d="M57.57 6765.85c4.37,0 8.79,-0.52 13.25,-1.54l2.53 -0.61c30.96,-7.29 50.18,-38.28 42.89,-69.27 -7.27,-30.97 -38.28,-50.14 -69.25,-42.89l-2.55 0.61c-30.97,7.26 -50.17,38.27 -42.89,69.24 6.24,26.56 29.89,44.46 56.02,44.46z"/>
   <path class="fil0" d="M57.57 6415.85c4.37,0 8.79,-0.52 13.25,-1.54l2.53 -0.61c30.96,-7.29 50.18,-38.28 42.89,-69.27 -7.27,-30.97 -38.28,-50.14 -69.25,-42.89l-2.55 0.61c-30.97,7.26 -50.17,38.27 -42.89,69.24 6.24,26.56 29.89,44.46 56.02,44.46z"/>
   <path class="fil0" d="M57.57 6065.85c4.37,0 8.79,-0.52 13.25,-1.54l2.53 -0.61c30.96,-7.29 50.18,-38.28 42.89,-69.27 -7.27,-30.97 -38.28,-50.14 -69.25,-42.89l-2.55 0.61c-30.97,7.26 -50.17,38.27 -42.89,69.24 6.24,26.56 29.89,44.46 56.02,44.46z"/>
   <path class="fil0" d="M57.57 5715.85c4.37,0 8.79,-0.52 13.25,-1.54l2.53 -0.61c30.96,-7.29 50.18,-38.28 42.89,-69.27 -7.27,-30.97 -38.28,-50.14 -69.25,-42.89l-2.55 0.61c-30.97,7.26 -50.17,38.27 -42.89,69.24 6.24,26.56 29.89,44.46 56.02,44.46z"/>
   <path class="fil0" d="M57.57 5365.85c4.37,0 8.79,-0.52 13.25,-1.54l2.53 -0.61c30.96,-7.29 50.18,-38.28 42.89,-69.27 -7.27,-30.97 -38.28,-50.14 -69.25,-42.89l-2.55 0.61c-30.97,7.26 -50.17,38.27 -42.89,69.24 6.24,26.56 29.89,44.46 56.02,44.46z"/>
   <path class="fil0" d="M57.57 5015.85c4.37,0 8.79,-0.52 13.25,-1.54l2.53 -0.61c30.96,-7.29 50.18,-38.28 42.89,-69.27 -7.27,-30.97 -38.28,-50.14 -69.25,-42.89l-2.55 0.61c-30.97,7.26 -50.17,38.27 -42.89,69.24 6.24,26.56 29.89,44.46 56.02,44.46z"/>
   <path class="fil0" d="M57.57 4665.85c4.37,0 8.79,-0.52 13.25,-1.54l2.53 -0.61c30.96,-7.29 50.18,-38.28 42.89,-69.27 -7.27,-30.97 -38.28,-50.14 -69.25,-42.89l-2.55 0.61c-30.97,7.26 -50.17,38.27 -42.89,69.24 6.24,26.56 29.89,44.46 56.02,44.46z"/>
   <path class="fil0" d="M57.57 4315.85c4.37,0 8.79,-0.52 13.25,-1.54l2.53 -0.61c30.96,-7.29 50.18,-38.28 42.89,-69.27 -7.27,-30.97 -38.28,-50.14 -69.25,-42.89l-2.55 0.61c-30.97,7.26 -50.17,38.27 -42.89,69.24 6.24,26.56 29.89,44.46 56.02,44.46z"/>
   <path class="fil0" d="M57.57 3965.85c4.37,0 8.79,-0.52 13.25,-1.54l2.53 -0.61c30.96,-7.29 50.18,-38.28 42.89,-69.27 -7.27,-30.97 -38.28,-50.14 -69.25,-42.89l-2.55 0.61c-30.97,7.26 -50.17,38.27 -42.89,69.24 6.24,26.56 29.89,44.46 56.02,44.46z"/>
   <path class="fil0" d="M57.57 3615.85c4.37,0 8.79,-0.52 13.25,-1.54l2.53 -0.61c30.96,-7.29 50.18,-38.28 42.89,-69.27 -7.27,-30.97 -38.28,-50.14 -69.25,-42.89l-2.55 0.61c-30.97,7.26 -50.17,38.27 -42.89,69.24 6.24,26.56 29.89,44.46 56.02,44.46z"/>
   <path class="fil0" d="M57.57 3265.85c4.37,0 8.79,-0.52 13.25,-1.54l2.53 -0.61c30.96,-7.29 50.18,-38.28 42.89,-69.27 -7.27,-30.97 -38.28,-50.14 -69.25,-42.89l-2.55 0.61c-30.97,7.26 -50.17,38.27 -42.89,69.24 6.24,26.56 29.89,44.46 56.02,44.46z"/>
   <path class="fil0" d="M57.57 2915.85c4.37,0 8.79,-0.52 13.25,-1.54l2.53 -0.61c30.96,-7.29 50.18,-38.28 42.89,-69.27 -7.27,-30.97 -38.28,-50.14 -69.25,-42.89l-2.55 0.61c-30.97,7.26 -50.17,38.27 -42.89,69.24 6.24,26.56 29.89,44.46 56.02,44.46z"/>
   <path class="fil0" d="M57.57 2565.85c4.37,0 8.79,-0.52 13.25,-1.54l2.53 -0.61c30.96,-7.29 50.18,-38.28 42.89,-69.27 -7.27,-30.97 -38.28,-50.14 -69.25,-42.89l-2.55 0.61c-30.97,7.26 -50.17,38.27 -42.89,69.24 6.24,26.56 29.89,44.46 56.02,44.46z"/>
   <path class="fil0" d="M57.57 2215.85c4.37,0 8.79,-0.52 13.25,-1.54l2.53 -0.61c30.96,-7.29 50.18,-38.28 42.89,-69.27 -7.27,-30.97 -38.28,-50.14 -69.25,-42.89l-2.55 0.61c-30.97,7.26 -50.17,38.27 -42.89,69.24 6.24,26.56 29.89,44.46 56.02,44.46z"/>
   <path class="fil0" d="M57.57 1865.85c4.37,0 8.79,-0.52 13.25,-1.54l2.53 -0.61c30.96,-7.29 50.18,-38.28 42.89,-69.27 -7.27,-30.97 -38.28,-50.14 -69.25,-42.89l-2.55 0.61c-30.97,7.26 -50.17,38.27 -42.89,69.24 6.24,26.56 29.89,44.46 56.02,44.46z"/>
   <path class="fil0" d="M57.57 1515.85c4.37,0 8.79,-0.52 13.25,-1.54l2.53 -0.61c30.96,-7.29 50.18,-38.28 42.89,-69.27 -7.27,-30.97 -38.28,-50.14 -69.25,-42.89l-2.55 0.61c-30.97,7.26 -50.17,38.27 -42.89,69.24 6.24,26.56 29.89,44.46 56.02,44.46z"/>
   <path class="fil0" d="M57.57 1165.85c4.37,0 8.79,-0.52 13.25,-1.54l2.53 -0.61c30.96,-7.29 50.18,-38.28 42.89,-69.27 -7.27,-30.97 -38.28,-50.14 -69.25,-42.89l-2.55 0.61c-30.97,7.26 -50.17,38.27 -42.89,69.24 6.24,26.56 29.89,44.46 56.02,44.46z"/>
   <path class="fil0" d="M57.57 815.85c4.37,0 8.79,-0.52 13.25,-1.54l2.53 -0.61c30.96,-7.29 50.18,-38.28 42.89,-69.27 -7.27,-30.97 -38.28,-50.14 -69.25,-42.89l-2.55 0.61c-30.97,7.26 -50.17,38.27 -42.89,69.24 6.24,26.56 29.89,44.46 56.02,44.46z"/>
   <path class="fil0" d="M57.57 465.85c4.37,0 8.79,-0.52 13.25,-1.54l2.53 -0.61c30.96,-7.29 50.18,-38.28 42.89,-69.27 -7.27,-30.97 -38.28,-50.14 -69.25,-42.89l-2.55 0.61c-30.97,7.26 -50.17,38.27 -42.89,69.24 6.24,26.56 29.89,44.46 56.02,44.46z"/>
  </g>
  <path class="fil1" d="M5864.3 3608.36l0 -854.35 -3539.63 0 0 854.35 -61.13 0 0 2274.1c0,159.46 129.94,289.39 289.37,289.39l3083.16 0c159.44,0 289.37,-129.93 289.37,-289.39l0 -2274.1 -61.14 0zm-152.56 0l-316.12 -421.32 311.08 -310.82 35.79 0 0 732.14 -30.75 0zm-335.5 -244.04l182.91 244.04 -182.91 0 0 -244.04zm-2197.22 -488.1l2354.83 0 -261.91 261.92c-1.81,1.82 -2.98,4.78 -4.8,6.86 -2.05,2.98 -4.5,5.94 -5.97,9.23 -0.91,1.21 -1.75,2.36 -2.35,3.87 -1.22,2.38 -0.91,5.04 -1.84,7.49 -0.82,3.8 -1.75,7.41 -2.06,11.59 0,1.21 -0.93,2.68 -0.93,4.19l0 426.99 -2319.01 0 0 -426.99c0,-1.51 -0.93,-2.98 -0.93,-4.5 -0.28,-3.87 -1.21,-7.48 -2.05,-11.28 -0.63,-2.75 -0.63,-5.11 -1.84,-7.79 -0.61,-1.21 -1.43,-2.36 -2.36,-3.57 -1.47,-3.29 -3.91,-6.25 -5.97,-9.23 -1.81,-2.08 -2.96,-5.04 -4.78,-6.86l-261.92 -261.92 523.89 0zm-549.19 732.14l182.9 -244.04 0 244.04 -182.9 0zm-183.34 -732.14l35.79 0 311.1 310.82 -316.14 421.32 -30.75 0 0 -732.14zm3356.72 3006.24c0,92.42 -74.76,167.16 -167.14,167.16l-3083.16 0c-92.39,0 -167.15,-74.74 -167.15,-167.16l0 -2151.85 3417.45 0 0 2151.85z"/>
  <path class="fil1" d="M4827.02 4096.86c-34.04,0 -61.09,27.07 -61.09,60.72l0 366.25c0,370.18 -301.28,671.44 -671.44,671.44 -370.16,0 -671.45,-301.26 -671.45,-671.44l0 -366.25c0,-33.65 -27.05,-60.72 -61.09,-60.72 -33.63,0 -60.72,27.07 -60.72,60.72l0 366.25c0,437.52 355.82,793.65 793.26,793.65 437.43,0 793.26,-356.13 793.26,-793.65l0 -366.25c0,-33.65 -27.08,-60.72 -60.73,-60.72z"/>
  <path class="fil1" d="M3484.18 4157.58c0,34.04 27.38,61.09 61.11,61.09 33.65,0 61.09,-27.05 61.09,-61.09 0,-134.34 -109.68,-244.06 -244.43,-244.06 -134.33,0 -244.06,109.72 -244.06,244.06 0,34.04 27.48,61.09 61.13,61.09 33.65,0 61.12,-27.05 61.12,-61.09 0,-66.99 54.84,-121.81 121.81,-121.81 67.36,0 122.23,54.82 122.23,121.81z"/>
  <path class="fil1" d="M4827.02 3913.52c-134.74,0 -244.43,109.72 -244.43,244.06 0,34.04 27.44,61.09 61.09,61.09 33.74,0 61.12,-27.05 61.12,-61.09 0,-66.99 54.86,-121.81 122.22,-121.81 67,0 121.82,54.82 121.82,121.81 0,34.04 27.48,61.09 61.13,61.09 33.63,0 61.12,-27.05 61.12,-61.09 0,-134.34 -109.73,-244.06 -244.07,-244.06z"/>
  <polygon class="fil1" points="2836.35,4235.25 2835.46,3934.33 1848.13,4206.75 1854.76,6420.38 3131.14,6416.55 3124.61,4234.39 "/>
  <polygon class="fil2" points="1965.46,6285.54 1959.73,4372.41 3013.92,4369.26 3019.65,6282.38 "/>
  <rect class="fil3" x="3248.35" y="5592.25" width="3276.95" height="760.65"/>
  <g id="_1919379545440">
   <path class="fil1" d="M3248.33 5652.18l1067.74 320.26c2.65,0.65 5.29,1.05 7.79,1.05 4.78,0 9.56,-1.18 13.78,-3.69l433.56 -254.36c9.52,-5.56 14.67,-16.31 13.08,-27.15 -1.46,-10.83 -9.39,-19.72 -19.99,-22.49l-1067.85 -274.49c-1.65,-0.41 -3.33,-0.67 -5,-0.78l-3.39 0c-3.48,0.22 -6.9,1.11 -10.13,2.64l-433.54 208.56c-10.08,4.78 -16.14,15.4 -15.22,26.5 0.77,11.25 8.47,20.63 19.17,23.95zm444.29 -205.82l994.53 255.55 -366.72 215.2 -989.51 -296.84 361.7 -173.91z"/>
   <path class="fil1" d="M4743.79 5776.18l-423.36 248.41 -1056.48 -316.84c-14.3,-4.38 -29.5,3.85 -33.74,18.12 -4.38,14.3 3.82,29.41 18.12,33.78l1079.12 323.68 443.75 -260.43c12.94,-7.56 17.18,-24.09 9.66,-37.08 -7.56,-12.96 -24.23,-17.33 -37.07,-9.64z"/>
   <path class="fil1" d="M4743.79 5883.78l-423.36 248.4 -1056.48 -316.97c-14.3,-4.23 -29.5,3.82 -33.74,18.27 -4.38,14.29 3.82,29.36 18.12,33.74l1079.12 323.58 443.75 -260.3c12.94,-7.56 17.18,-24.23 9.66,-37.07 -7.56,-12.97 -24.23,-17.34 -37.07,-9.65z"/>
   <path class="fil1" d="M4743.79 5991.24l-423.36 248.41 -1056.48 -316.98c-14.3,-4.23 -29.5,3.84 -33.74,18.26 -4.38,14.29 3.82,29.39 18.12,33.75l1079.12 323.57 443.75 -260.32c12.94,-7.52 17.18,-24.18 9.66,-37.03 -7.56,-12.97 -24.23,-17.2 -37.07,-9.66z"/>
   <path class="fil1" d="M4743.79 6098.81l-423.36 248.41 -1056.48 -316.95c-14.3,-4.36 -29.5,3.83 -33.74,18.12 -4.38,14.44 3.82,29.52 18.12,33.75l1079.12 323.72 443.75 -260.33c12.94,-7.66 17.18,-24.22 9.66,-37.16 -7.56,-12.85 -24.23,-17.22 -37.07,-9.56z"/>
   <path class="fil1" d="M4743.79 6206.28l-423.36 248.4 -1056.48 -316.94c-14.3,-4.24 -29.5,3.96 -33.74,18.26 -4.38,14.29 3.82,29.37 18.12,33.75l1079.12 323.57 443.75 -260.33c12.94,-7.55 17.18,-24.21 9.66,-37.05 -7.56,-12.95 -24.23,-17.33 -37.07,-9.66z"/>
   <path class="fil1" d="M4743.79 6313.74l-423.49 248.4 -1056.35 -316.8c-14.3,-4.37 -29.5,3.83 -33.74,18.12 -4.38,14.31 3.82,29.51 18.12,33.74l1079.12 323.68 443.75 -260.28c12.94,-7.7 17.18,-24.23 9.66,-37.21 -7.56,-12.83 -24.23,-17.21 -37.07,-9.65z"/>
   <path class="fil1" d="M4743.79 6421.34l-423.36 248.4 -1056.48 -316.98c-14.3,-4.24 -29.5,3.87 -33.74,18.27 -4.38,14.31 3.82,29.4 18.12,33.78l1079.12 323.55 443.75 -260.3c12.94,-7.56 17.18,-24.22 9.66,-37.07 -7.56,-12.97 -24.23,-17.21 -37.07,-9.65z"/>
   <path class="fil1" d="M4743.79 6528.8l-423.36 248.41 -1056.48 -316.84c-14.3,-4.37 -29.5,3.82 -33.74,18.13 -4.38,14.29 3.82,29.41 18.12,33.74l1079.12 323.71 443.75 -260.44c12.94,-7.53 17.18,-24.07 9.66,-37.05 -7.56,-12.84 -24.23,-17.22 -37.07,-9.66z"/>
   <path class="fil1" d="M4743.79 6636.13l-423.36 248.41 -1056.48 -316.98c-14.3,-4.23 -29.5,3.87 -33.74,18.27 -4.38,14.29 3.82,29.37 18.12,33.74l1079.12 323.58 443.75 -260.29c12.94,-7.56 17.18,-24.23 9.66,-37.07 -7.56,-12.98 -24.23,-17.22 -37.07,-9.66z"/>
   <path class="fil1" d="M4743.79 6743.6l-423.36 248.41 -1056.48 -316.85c-14.3,-4.37 -29.5,3.83 -33.74,18.13 -4.38,14.44 3.82,29.51 18.12,33.75l1079.12 323.72 443.75 -260.48c12.94,-7.51 17.18,-24.05 9.66,-37.02 -7.56,-12.84 -24.23,-17.21 -37.07,-9.66z"/>
  </g>
  <rect class="fil3" transform="matrix(2.31449E-14 0.617599 -0.972534 1.82029E-14 6249.66 4636.95)" width="3749.79" height="782.13"/>
  <path class="fil1" d="M6792.72 6182.45l-12.8 -60.32 -273.68 -1285.32 -14.09 -66.08 -65.72 16.2 -84.8 20.74c-14.72,-38.04 -37.61,-71.94 -70.53,-95.81 -15.44,-11.25 -32.46,-17.35 -49.34,-17.57l-1.6 0c-16.87,0.15 -33.53,6.2 -48.25,18.88 -34.56,29.55 -38.08,87.01 -36.98,132.75 0.16,4.31 0.16,8.47 0.34,12.49l-56.31 13.88c-1.59,-4.45 -4.01,-8.47 -6.06,-12.6 -14.6,-32.47 -35.07,-61.42 -64,-82.4 -31.34,-22.73 -69.25,-24.33 -99.2,1.44 -32.47,27.84 -37.43,80.62 -37.09,124.94 0.16,5.77 0.16,11.23 0.5,16.61 0,1 0,1.78 0,2.6l-56.65 14.08c-0.5,-1.32 -1.27,-2.57 -1.77,-3.84 -2.25,-5.12 -4.79,-10.09 -7.2,-15.21 -14.54,-29.26 -33.9,-55.69 -60.6,-75.01 -31.38,-22.74 -69.3,-24.34 -99.19,1.25 -30.54,26.39 -36.94,74.55 -37.1,117.09 -0.16,5.78 0,11.22 0.16,16.79 0.12,3.24 0.12,6.27 0.29,9.45l-57.1 13.94c-1.43,-3.36 -3.34,-6.56 -4.78,-9.91 -2.25,-5.12 -4.67,-10.24 -7.21,-15.18 -14.24,-26.44 -32.63,-49.93 -57.13,-67.87 -31.31,-22.69 -69.41,-24.28 -99.3,1.32 -28.68,24.76 -35.84,68.59 -36.81,109.08 -0.17,5.74 -0.17,11.18 -0.17,16.8 0,5.57 0.17,11.01 0.33,16.29l-14.71 3.68 -43.21 9.43c-2.25,-5.25 -4.78,-10.08 -7.37,-15.2 -2.36,-4.94 -4.45,-10.4 -7.19,-15.18 -13.61,-23.52 -31.35,-44.48 -53.74,-60.62 -31.21,-22.89 -69.25,-24.48 -99.18,1.27 -26.7,23.05 -34.86,62.87 -36.61,100.94 -0.16,5.77 -0.5,11.36 -0.5,16.96 0,5.61 0,11.33 0.17,16.79l-126.7 27.85 -117.74 1191.11 409.84 -120.15 6.72 31.97 4.96 23.23 -331.79 105.09 -88.13 28.01 86.09 33.73 395.41 155.33 6.88 2.59 0 0.27 0.5 -0.15 2.86 1.31 10.57 -3.08 799 -223.58 31.21 -8.81 0 -0.67 557.17 -155.15 59.33 -16.47zm-576.98 -1420.52c3.19,-3.68 3.35,-3.19 4.62,-3.04 8.32,1.78 15.35,7.38 23.67,15.7 12,11.84 21.45,25.92 29.11,41.11 1.45,2.54 2.75,5.12 4.02,7.83l-76.94 19.05c-0.17,-3.54 -0.17,-7.22 -0.17,-10.89 0,-26.39 2.74,-54.74 15.69,-69.76zm-260.41 65.45c3.19,-3.53 2.38,-3.2 3.81,-2.91 8.31,1.62 14.9,7.37 23.21,15.52 10.07,9.95 17.89,21.79 24.95,34.07 2.58,4.66 5.27,9.13 7.53,14.09l-38.58 10.24 -31.49 8.47 0 -0.78c0,-5.61 -3.54,-11.21 -3.35,-16.78 0.44,-24.01 2.21,-48.33 13.92,-61.92zm-279.01 119.33c1.11,-21.31 4.79,-41.79 15.2,-53.78 3.18,-3.63 3.34,-3.18 4.78,-2.87 8.32,1.61 15.21,7.39 23.55,15.53 8.14,7.99 15.04,17.29 21.09,27.03 3.04,4.8 5.95,9.74 8.48,14.86 0.83,1.76 1.93,3.35 2.9,5.12l-76.33 18.71c-0.15,-2.54 -0.15,-5.12 -0.15,-7.66 0,-5.6 0.15,-11.34 0.48,-16.94zm-246.03 11.67c3.19,-3.53 2.9,-3.03 4.34,-2.87 8.31,1.6 15.02,7.33 23.34,15.52 6.22,6.21 11.51,12.93 16.63,19.99 3.19,4.78 5.93,9.9 8.81,14.86 2.07,3.84 4.49,7.37 6.38,11.4 0.16,0.27 0.31,0.6 0.31,1.09l-69.56 17.45c0,-4.83 -3.52,-9.8 -3.36,-14.73 0,-5.6 -1.26,-11.37 -0.81,-16.96 1.75,-18.23 4.83,-35.19 13.92,-45.75zm-278.19 120.32c0.16,-5.94 0.66,-11.55 1.45,-17.13 2.07,-15.07 6.09,-28.67 13.9,-37.59 3.08,-3.52 3.21,-3.23 4.68,-2.89 8.31,1.58 15.2,7.35 23.5,15.51 4.14,4.01 7.5,8.79 11.18,13.26 3.7,4.67 7.22,9.46 10.42,14.41 3.02,4.96 5.93,9.76 8.47,15.03l-73.92 16.18c-0.13,-5.61 0,-11.21 0.32,-16.78zm1007.01 1212.19l-15.69 4.47 -15.81 4.33 -745.76 207.64 -48.65 -230.8 -6.73 -32.36 -4.63 -21.75 -3.36 -15.97 -3.34 -16.18 -212.91 -1010.18 143.32 -35.34c5.58,36.94 3.52,75.5 -4.01,108.6 -9.45,41.11 53.73,58.57 63.18,17.44 9.93,-43.37 11.68,-93.41 3.85,-141.56l199.31 -48.94c5.3,36.61 3.36,74.7 -4.17,107.49 -9.59,41.08 53.59,58.53 63.18,17.4 9.79,-42.87 11.68,-92.58 3.86,-140.41l199.32 -48.99c5.12,36.34 3.18,74.09 -4.3,106.55 -9.48,41.13 53.73,58.57 63.18,17.46 9.74,-42.72 11.67,-91.98 4.12,-139.52l199.16 -48.94c4.99,36.15 3.08,73.27 -4.3,105.41 -9.58,41.12 53.6,58.72 63.19,17.44 9.74,-42.2 11.51,-91.16 4.18,-138.37l167.76 -41.12 16.8 -4.13 14.57 -3.69c0.5,3.53 0.95,6.9 1.29,10.42 3.02,32.46 0.81,65.26 -5.78,94.06 -9.42,41.1 53.77,58.51 63.18,17.4 9.8,-42.06 11.56,-90.51 4.5,-137.4l84.6 -20.79 273.73 1285.33 -556.84 155zm-574.44 -362.18l-199.81 48 -47.98 -199.96 199.8 -47.84 47.99 199.8zm42.06 -12.6l-47.82 -199.8 199.8 -48 47.99 199.81 -199.97 47.99zm194.02 -260.62l199.8 -47.95 47.99 199.91 -199.79 48.01 -48 -199.97zm441.87 -108.44l47.96 199.8 -89.24 21.41 -16.67 4.02 -16.94 4.02 -77.08 18.56 -47.99 -199.98 143.49 -34.39 33.58 -7.99 22.89 -5.45zm42.05 -12.76l199.97 -47.85 47.99 199.77 -199.95 47.98 -48.01 -199.9zm-498.77 79.8l-47.83 -199.97 199.8 -47.84 47.99 199.81 -199.96 48zm241.85 -60.64l-47.83 -199.97 199.96 -47.96 20.65 86.53 24.32 101.11 2.86 12.28 -3.96 0.99 -16.84 3.97 -16.79 4.18 -162.37 38.87zm394 -308.58l47.99 199.96 -199.92 48 -33.29 -138.37 -12.01 -50.53 -2.7 -11.07 3.68 -0.81 16.8 -4.12 179.45 -43.06zm-796.63 915.51l2.42 9.91 -139.04 33.26 -60.93 14.57 -2.7 -11.54 -4.67 -18.85 -3.81 -16.01 -3.85 -15.83 -32.97 -137.56 199.98 -48.01 30.55 127.65 3.83 15.85 3.87 15.97 3.51 14.57 3.81 16.02zm242.18 -59.67l2.08 8.94 -123.95 29.76 -76 18.07 -2.39 -10.42 -3.83 -15.96 -3.37 -13.59 -7.66 -32.03 -30.59 -127.97 199.97 -47.83 28.34 117.89 3.68 16.02 3.81 15.84 2.25 9.27 7.66 32.01zm229.91 -111.49l14.2 59.64 -35.67 8.66 -15.96 3.84 -15.86 3.81 -132.44 31.7 -2.25 -9.47 -3.68 -15.96 -3.85 -15.86 -2.08 -8.47 -3.81 -15.85 -3.85 -15.97 -28.3 -118.22 199.93 -48 25.91 108.3 3.85 15.99 3.86 15.86z"/>
  <rect class="fil3" x="1374.49" y="2349.33" width="6062.33" height="1292.32"/>
  <polygon class="fil4 str0" points="2721.22,1843.28 5483.28,1843.28 5483.28,3188.78 2721.22,3188.78 "/>
  <path class="fil1" d="M2626.65 3330.61l88.54 -0.01 0 59.04 1168.74 0 0 340.97 436.61 0 0 -340.97 1168.76 0 0 -59.03 88.53 0 0 -1581.91 -2951.18 0.02 0 1581.89zm2561.51 -141.84l0 -42.6c46.16,-18.71 78.84,-63.86 78.84,-116.71 0,-69.39 -56.47,-125.88 -125.83,-125.88 -69.65,0 -126.14,56.49 -126.14,125.89 0,52.84 32.78,97.99 78.87,116.7l0 42.6 -944.37 0 0 -42.58c46.08,-18.73 78.59,-63.88 78.59,-116.72 0,-0.7 -0.23,-1.11 -0.23,-1.84 -0.94,-68.68 -56.73,-124.05 -125.63,-124.05 -68.94,0.02 -124.72,55.37 -125.66,124.05 0,0.5 -0.23,1.14 -0.23,1.84 0,52.84 32.51,97.99 78.58,116.7l0 42.6 -979.61 0 0 -44.66c46.1,-18.73 78.64,-63.67 78.64,-116.48 0,-69.64 -56.49,-126.13 -125.89,-126.13 -69.67,0 -125.91,56.49 -125.91,126.13 0,52.81 32.53,97.75 78.61,116.47l0 44.67 -259.57 0 0 -1345.5 2762.06 0 0 1345.5 -295.12 0z"/>
  <rect class="fil3" x="2385.76" y="3892.37" width="627.35" height="342.46"/>
  <path class="fil1" d="M2900.84 5140.83l-823.43 2.47c-22.75,0.06 -41.15,18.57 -41.08,41.32 0.07,22.7 18.62,41.15 41.32,41.08l823.44 -2.47c22.72,-0.07 41.16,-18.63 41.09,-41.33 -0.07,-22.74 -18.62,-41.14 -41.34,-41.07z"/>
  <path class="fil5" d="M2057.51 5036.83l42.25 -0.12c3.39,-0.01 6.13,-2.78 6.12,-6.17l-0.31 -106.3 52.77 58.24c2.34,2.54 6.84,2.53 9.16,-0.03l52.45 -58.6 0.42 106.35c0.01,3.39 2.77,6.14 6.21,6.13l42.18 -0.13c3.44,-0.01 6.14,-2.77 6.13,-6.16l-0.64 -211.11c-0.01,-3.42 -2.72,-6.19 -6.16,-6.18l-14.03 0.05c-1.74,0 -3.46,0.82 -4.68,2.12l-86.67 99.15 -87.15 -98.63c-1.18,-1.3 -2.9,-2.08 -4.7,-2.07l-14.02 0.04c-3.4,0.01 -6.16,2.77 -6.15,6.19l0.63 211.11c0.04,3.39 2.79,6.13 6.19,6.12z"/>
  <path class="fil5" d="M2310.31 5036.07l154.8 -0.46c3.46,-0.01 6.18,-2.77 6.17,-6.16l-0.12 -39.44c-0.01,-3.39 -2.75,-6.13 -6.21,-6.12l-106.4 0.32 -0.11 -35.65 78.37 -0.23c3.44,-0.01 6.18,-2.77 6.17,-6.16l-0.12 -39.31c-0.01,-3.42 -2.76,-6.16 -6.2,-6.15l-78.37 0.24 -0.1 -32.7 106.7 -0.32c3.41,-0.01 6.15,-2.8 6.14,-6.21l-0.12 -39.14c0,-1.67 -0.64,-3.19 -1.8,-4.34 -1.13,-1.18 -2.71,-1.81 -4.33,-1.81l-155.12 0.32c-3.39,0.01 -6.13,2.8 -6.12,6.21l0.63 210.94c-0.04,3.44 2.7,6.18 6.14,6.17z"/>
  <path class="fil5" d="M2507.88 5035.48l42.26 -0.12c3.41,-0.01 6.13,-2.78 6.12,-6.17l-0.35 -116 120.69 119.99c1.21,1.18 2.81,1.79 4.43,1.78l15.43 -0.04c3.44,-0.01 6.21,-2.78 6.2,-6.17l-0.63 -211.1c-0.01,-3.42 -2.83,-6.19 -6.24,-6.18l-42.16 0.13c-3.47,0.01 -6.18,2.8 -6.17,6.21l0.35 117.36 -122.12 -121.37c-1.13,-1.17 -2.71,-1.79 -4.35,-1.78l-14.08 0.04c-3.42,0.01 -6.16,2.77 -6.15,6.19l0.63 211.11c-0.04,3.39 2.7,6.13 6.14,6.12z"/>
  <path class="fil5" d="M2758.96 5010.7c18.42,15.94 41.89,23.9 69.62,23.82 27.64,-0.08 51,-8.19 69.41,-24.19 18.6,-16.22 28.09,-36.3 28.02,-59.66l-0.4 -133.65c-0.01,-3.43 -2.84,-6.18 -6.28,-6.17l-42.24 0.13c-3.41,0.01 -6.18,2.77 -6.16,6.2l0.36 122.43c0.04,14.05 -3.78,23.99 -11.65,30.4 -8.26,6.66 -18.49,9.93 -31.25,9.97 -12.79,0.04 -23.08,-3.18 -31.45,-9.79 -7.88,-6.38 -11.79,-16.29 -11.83,-30.38l-0.37 -122.41c-0.01,-3.42 -2.79,-6.16 -6.19,-6.15l-42.25 0.12c-3.39,0.01 -6.16,2.78 -6.15,6.19l0.4 133.65c0.07,23.36 9.64,43.38 28.41,59.49z"/>
  <path class="fil6" d="M2860.07 2607.53c0,-15.14 3.7,-29.41 10.25,-41.96l-81.83 0 0 -48.97 161.88 0 0.64 -0.01c50.23,0 90.95,40.72 90.95,90.94 0,50.23 -40.72,90.94 -90.95,90.94 -50.22,0 -90.94,-40.71 -90.94,-90.94zm1462.11 -199.89l79.03 0c9.2,0 17.77,-4.22 25.7,-12.66 7.93,-8.44 11.89,-23.66 11.89,-45.65 0,-22.51 -4.6,-37.85 -13.81,-46.04 -9.21,-8.18 -18.41,-12.27 -27.62,-12.27l-75.19 0 0 116.62 0 0zm885.14 91.3l-48.34 -168.79 -50.64 168.79 98.98 0zm-116.62 -338.35l136.56 0 188.74 544.73 -151.91 0 -32.99 -106.65 -145.01 0 -32.22 106.65 -152.68 0 189.51 -544.73zm-2022.87 544.73l0 -544.73 149.61 0 0 207.15 165.72 -207.15 168.79 0 -197.95 243.98 211.76 300.75 -171.86 0 -135.03 -200.25 -41.43 42.97 0 157.28 -149.61 0 0 0zm523.8 -297.68l94.36 0c9.21,0 17.78,-5.12 25.71,-15.35 7.93,-10.23 11.89,-24.55 11.89,-42.96 0,-18.93 -4.6,-33.38 -13.81,-43.35 -9.21,-9.97 -18.41,-14.96 -27.62,-14.96l-90.53 0 0 116.62 0 0zm495.98 91.3l-48.33 -168.79 -50.64 168.79 98.97 0zm-116.62 -338.35l136.57 0 188.74 544.73 -151.91 0 -32.99 -106.65 -145.01 0 -32.22 106.65 -21.84 0 -130.84 0 -37.95 0 -95.91 -167.26 -56 0 0 167.25 -211.75 -300.74 197.94 -243.98 114.31 0c26.6,0 51.15,5.5 73.66,16.49 22.5,11 41.81,25.32 57.92,42.97 16.11,17.64 28.77,37.85 37.98,60.61 9.21,22.76 13.81,45.65 13.81,68.67 0,31.71 -6.9,61.25 -20.72,88.61 -13.81,27.36 -32.99,49.74 -57.54,67.13l33.58 58.44 140.17 -402.92 0 0zm578.68 544.73l0 -235.42c-2.69,3.5 -5.51,6.92 -8.44,10.24 -15.61,17.65 -34.53,31.71 -56.78,42.19 -22.25,10.49 -46.67,15.73 -73.27,15.73l-89 0 0 167.26 -0.01 0 -188.74 -544.73 273.91 0c26.6,0 51.15,5.5 73.66,16.49 22.5,11 41.81,25.32 57.92,42.97 3.78,4.13 7.36,8.4 10.75,12.81l0 -72.27 149.61 0 0 207.15 165.72 -207.15 168.79 0 -197.94 243.98 96.44 136.98 -56.83 163.36 -134.75 -199.84 -41.43 42.97 0 157.28 -149.61 0 0 0zm-1647.64 -97.79c0,-27.05 21.93,-48.98 48.98,-48.98 27.05,0 48.98,21.93 48.98,48.98 0,27.05 -21.93,48.98 -48.98,48.98 -27.05,0 -48.98,-21.93 -48.98,-48.98zm138.91 -149.96l-180.05 52.62 0 -57.97 129.05 -27.95 -129.05 -28.24 0 -52.63 180.05 52.63 0 61.54 0 0zm-180.87 -199.19c0,-50.22 40.72,-90.95 90.94,-90.95 50.23,0 90.95,40.73 90.95,90.95 0,50.23 -40.72,90.94 -90.95,90.94 -50.22,0 -90.94,-40.71 -90.94,-90.94zm41.96 0c0,-27.05 21.93,-48.98 48.98,-48.98 27.05,0 48.98,21.93 48.98,48.98 0,27.05 -21.93,48.98 -48.98,48.98 -27.05,0 -48.98,-21.93 -48.98,-48.98z"/>
 </g>
</svg>
