<svg xmlns="http://www.w3.org/2000/svg" width="100%" height="100%" version="1.1" viewBox="0 0 25012 21843.07" xmlns:xlink="http://www.w3.org/1999/xlink">
  <path d="M1703.01 12624.55c-470.2,0 -895.98,-190.66 -1204.17,-498.84 -308.18,-308.19 -498.84,-733.95 -498.84,-1204.17 0,-470.21 190.66,-895.98 498.84,-1204.18 308.19,-308.17 733.97,-498.83 1204.17,-498.83l21605.94 0c470.2,0 895.98,190.66 1204.2,498.85 308.19,308.18 498.85,733.95 498.85,1204.16 0,470.22 -190.66,895.98 -498.85,1204.17 -308.19,308.18 -734,498.84 -1204.2,498.84l-21605.94 0zm0 -9218.53c-470.2,0 -895.98,-190.66 -1204.17,-498.84 -308.18,-308.19 -498.84,-733.95 -498.84,-1204.17 0,-470.2 190.66,-895.98 498.84,-1204.17 308.19,-308.18 733.97,-498.84 1204.17,-498.84l21605.94 0c470.2,0 895.98,190.66 1204.2,498.85 308.19,308.18 498.85,733.96 498.85,1204.16 0,470.22 -190.66,895.98 -498.85,1204.17 -308.19,308.18 -734,498.84 -1204.2,498.84l-21605.94 0zm0 18437.05c-470.2,0 -895.98,-190.66 -1204.17,-498.84 -308.18,-308.19 -498.84,-733.95 -498.84,-1204.17 0,-470.21 190.66,-895.98 498.84,-1204.18 308.19,-308.17 733.97,-498.83 1204.17,-498.83l21605.94 0c470.2,0 895.98,190.66 1204.2,498.85 308.19,308.18 498.85,733.95 498.85,1204.16 0,470.22 -190.66,895.98 -498.85,1204.17 -308.19,308.18 -734,498.84 -1204.2,498.84l-21605.94 0z"/>
</svg>
