<?xml version="1.0" encoding="UTF-8"?>
<!DOCTYPE svg PUBLIC "-//W3C//DTD SVG 1.1//EN" "http://www.w3.org/Graphics/SVG/1.1/DTD/svg11.dtd">
<!-- Creator: CorelDRAW 2018 (64-Bit) -->
<svg xmlns="http://www.w3.org/2000/svg" xml:space="preserve" width="100%" height="100%" version="1.1" style="shape-rendering:geometricPrecision; text-rendering:geometricPrecision; image-rendering:optimizeQuality; fill-rule:evenodd; clip-rule:evenodd"
viewBox="0 0 25012 21843.07"
 xmlns:xlink="http://www.w3.org/1999/xlink">
 <defs>
  <style type="text/css">
   <![CDATA[
    .fil0 {fill:#2B2A29;fill-rule:nonzero}
   ]]>
  </style>
 </defs>
 <g id="Layer_x0020_1">
  <metadata id="CorelCorpID_0Corel-Layer"/>
  <path class="fil0" d="M1703.01 3406.02c-470.2,0 -895.98,-190.66 -1204.17,-498.84 -308.18,-308.19 -498.84,-733.95 -498.84,-1204.17 0,-470.2 190.66,-895.98 498.84,-1204.17 308.19,-308.18 733.97,-498.84 1204.17,-498.84l21605.94 0c470.2,0 895.98,190.66 1204.2,498.85 308.19,308.18 498.85,733.96 498.85,1204.16 0,470.22 -190.66,895.98 -498.85,1204.17 -308.19,308.18 -734,498.84 -1204.2,498.84l-21605.94 0zm0 9218.53c-470.2,0 -895.98,-190.66 -1204.17,-498.84 -308.18,-308.19 -498.84,-733.95 -498.84,-1204.17 0,-470.21 190.66,-895.98 498.84,-1204.18 308.19,-308.17 733.97,-498.83 1204.17,-498.83l21605.94 0c470.2,0 895.98,190.66 1204.2,498.85 308.19,308.18 498.85,733.95 498.85,1204.16 0,470.22 -190.66,895.98 -498.85,1204.17 -308.19,308.18 -734,498.84 -1204.2,498.84l-21605.94 0zm6303.16 9218.52c-470.21,0 -895.98,-190.66 -1204.18,-498.84 -308.18,-308.19 -498.84,-733.95 -498.84,-1204.17 0,-470.2 190.66,-895.98 498.84,-1204.17 308.2,-308.18 733.97,-498.84 1204.18,-498.84l15302.78 0c470.2,0 895.98,190.66 1204.2,498.85 308.19,308.18 498.85,733.96 498.85,1204.16 0,470.22 -190.66,895.98 -498.85,1204.17 -308.19,308.18 -734,498.84 -1204.2,498.84l-15302.78 0z"/>
 </g>
</svg>
