<?xml version="1.0" encoding="UTF-8"?>
<!DOCTYPE svg PUBLIC "-//W3C//DTD SVG 1.1//EN" "http://www.w3.org/Graphics/SVG/1.1/DTD/svg11.dtd">
<!-- Creator: CorelDRAW 2018 (64-Bit) -->
<svg xmlns="http://www.w3.org/2000/svg" xml:space="preserve" width="100%" height="100%" version="1.1" style="shape-rendering:geometricPrecision; text-rendering:geometricPrecision; image-rendering:optimizeQuality; fill-rule:evenodd; clip-rule:evenodd"
viewBox="0 0 20999.99 20995"
 xmlns:xlink="http://www.w3.org/1999/xlink">
 <defs>
  <style type="text/css">
   <![CDATA[
    .fil0 {fill:none}
    .fil4 {fill:#B2B3B3}
    .fil2 {fill:#FBBA00}
    .fil3 {fill:#211F1F;fill-rule:nonzero}
    .fil1 {fill:#B2B3B3;fill-rule:nonzero}
   ]]>
  </style>
 </defs>
 <g id="Layer_x0020_1">
  <metadata id="CorelCorpID_0Corel-Layer"/>
  <rect class="fil0" y="0" width="20999.99" height="20995"/>
  <g id="_1811320756176">
   <path class="fil1" d="M6877.37 5123.89l0 1297.74 1412.97 0 0 -1297.74 -1412.97 0zm-3073.72 0l0 1297.74 1412.97 0 0 -1297.74 -1412.97 0zm0 1421.62l0 1297.76 1412.97 0 0 -1297.76 -1412.97 0zm0 1421.65l0 1297.74 1412.97 0 0 -1297.74 -1412.97 0zm0 1421.62l0 1297.74 1412.97 0 0 -1297.74 -1412.97 0zm0 1421.63l0 0.82 -123.89 0 0 -0.82 0 -123.89 0 -1297.74 0 -123.89 0 -1297.74 0 -123.89 0 -1297.76 0 -123.89 0 -1297.74 0 -123.89 123.89 0 4486.7 0 123.89 0 1412.97 0 123.89 0 1412.97 0 29.14 0 94.74 0 0 5811.23 -123.89 0 0 -0.81 -1412.97 0 0 0.81 -123.89 0 0 -0.81 -1412.97 0 0 0.81 -123.89 0 0 -0.81 -1412.97 0 0 0.81 -123.89 0 0 -0.81 -1412.97 0 0 0.81 -123.89 0 0 -0.81 -1412.97 0 0 0.01zm7560.42 -123.89l0 -1297.74 -1412.97 0 0 1297.74 1412.97 0zm0 -1421.62l0 -1297.74 -1412.97 0 0 1297.74 1412.97 0zm0 -1421.63l0 -1297.76 -1412.97 0 0 1297.76 1412.97 0zm0 -1421.65l0 -1297.74 -1412.97 0 0 1297.74 1412.97 0zm-1536.86 4264.9l0 -1297.74 -1412.97 0 0 1297.74 1412.97 0zm0 -1421.62l0 -1297.74 -1412.97 0 0 1297.74 1412.97 0zm0 -1421.63l0 -1297.76 -1412.97 0 0 1297.76 1412.97 0zm0 -1421.65l0 -1297.74 -1412.97 0 0 1297.74 1412.97 0zm-4486.7 -1297.73l0 1297.74 1412.97 0 0 -1297.74 -1412.97 0zm0 1421.62l0 1297.76 1412.97 0 0 -1297.76 -1412.97 0zm0 1421.65l0 1297.74 1412.97 0 0 -1297.74 -1412.97 0zm0 1421.62l0 1297.74 1412.97 0 0 -1297.74 -1412.97 0zm2949.84 0l-1412.97 0 0 1297.74 1412.97 0 0 -1297.74zm-1412.98 -123.88l1412.97 0 0 -1297.74 -1412.97 0 0 1297.74zm0 -1421.63l1412.97 0 0 -1297.76 -1412.97 0 0 1297.76z"/>
   <path class="fil1" d="M6877.37 10815.13l0 1297.74 1412.97 0 0 -1297.74 -1412.97 0zm-3073.72 0l0 1297.74 1412.97 0 0 -1297.74 -1412.97 0zm0 1421.63l0 1297.74 1412.97 0 0 -1297.74 -1412.97 0zm0 1421.62l0 1297.76 1412.97 0 0 -1297.76 -1412.97 0zm0 1421.65l0 1297.74 1412.97 0 0 -1297.74 -1412.97 0zm0 1421.63l0 0.81 -123.89 0 0 -0.81 0 -123.89 0 -1297.74 0 -123.89 0 -1297.76 0 -123.89 0 -1297.74 0 -123.89 0 -1297.74 0 -123.89 123.89 0 4486.7 0 123.89 0 1412.97 0 123.89 0 1412.97 0 29.14 0 94.74 0 0 5811.22 -123.89 0 0 -0.81 -1412.97 0 0 0.81 -123.89 0 0 -0.81 -1412.97 0 0 0.81 -123.89 0 0 -0.81 -1412.97 0 0 0.81 -123.89 0 0 -0.81 -1412.97 0 0 0.81 -123.89 0 0 -0.81 -1412.97 0 0 0.02zm7560.42 -123.89l0 -1297.74 -1412.97 0 0 1297.74 1412.97 0zm0 -1421.63l0 -1297.76 -1412.97 0 0 1297.76 1412.97 0zm0 -1421.65l0 -1297.74 -1412.97 0 0 1297.74 1412.97 0zm0 -1421.62l0 -1297.74 -1412.97 0 0 1297.74 1412.97 0zm-1536.86 4264.9l0 -1297.74 -1412.97 0 0 1297.74 1412.97 0zm0 -1421.63l0 -1297.76 -1412.97 0 0 1297.76 1412.97 0zm0 -1421.65l0 -1297.74 -1412.97 0 0 1297.74 1412.97 0zm0 -1421.62l0 -1297.74 -1412.97 0 0 1297.74 1412.97 0zm-4486.7 -1297.74l0 1297.74 1412.97 0 0 -1297.74 -1412.97 0zm0 1421.63l0 1297.74 1412.97 0 0 -1297.74 -1412.97 0zm0 1421.62l0 1297.76 1412.97 0 0 -1297.76 -1412.97 0zm0 1421.65l0 1297.74 1412.97 0 0 -1297.74 -1412.97 0zm2949.84 0l-1412.97 0 0 1297.74 1412.97 0 0 -1297.74zm-1412.98 -123.89l1412.97 0 0 -1297.76 -1412.97 0 0 1297.76zm0 -1421.65l1412.97 0 0 -1297.74 -1412.97 0 0 1297.74z"/>
   <path class="fil1" d="M14558.88 5123.89l0 1297.74 1412.97 0 0 -1297.74 -1412.97 0zm-3073.72 0l0 1297.74 1412.97 0 0 -1297.74 -1412.97 0zm0 1421.62l0 1297.76 1412.97 0 0 -1297.76 -1412.97 0zm0 1421.65l0 1297.74 1412.97 0 0 -1297.74 -1412.97 0zm0 1421.62l0 1297.74 1412.97 0 0 -1297.74 -1412.97 0zm0 1421.63l0 0.82 -123.89 0 0 -0.82 0 -123.89 0 -1297.74 0 -123.89 0 -1297.74 0 -123.89 0 -1297.76 0 -123.89 0 -1297.74 0 -123.89 123.89 0 4486.7 0 123.89 0 1413 0 123.89 0 1412.95 0 29.17 0 94.72 0 0 5811.23 -123.89 0 0 -0.81 -1412.95 0 0 0.81 -123.89 0 0 -0.81 -1413 0 0 0.81 -123.89 0 0 -0.81 -1412.97 0 0 0.81 -123.89 0 0 -0.81 -1412.97 0 0 0.81 -123.89 0 0 -0.81 -1412.97 0 -0.01 0.01zm7560.42 -123.89l0 -1297.74 -1412.95 0 0 1297.74 1412.95 0zm0 -1421.62l0 -1297.74 -1412.95 0 0 1297.74 1412.95 0zm0 -1421.63l0 -1297.76 -1412.95 0 0 1297.76 1412.95 0zm0 -1421.65l0 -1297.74 -1412.95 0 0 1297.74 1412.95 0zm-1536.84 4264.9l0 -1297.74 -1413 0 0 1297.74 1413 0zm0 -1421.62l0 -1297.74 -1413 0 0 1297.74 1413 0zm0 -1421.63l0 -1297.76 -1413 0 0 1297.76 1413 0zm0 -1421.65l0 -1297.74 -1413 0 0 1297.74 1413 0zm-4486.72 -1297.73l0 1297.74 1412.97 0 0 -1297.74 -1412.97 0zm0 1421.62l0 1297.76 1412.97 0 0 -1297.76 -1412.97 0zm0 1421.65l0 1297.74 1412.97 0 0 -1297.74 -1412.97 0zm0 1421.62l0 1297.74 1412.97 0 0 -1297.74 -1412.97 0zm2949.83 0l-1412.97 0 0 1297.74 1412.97 0 0 -1297.74zm-1412.97 -123.88l1412.97 0 0 -1297.74 -1412.97 0 0 1297.74zm0 -1421.63l1412.97 0 0 -1297.76 -1412.97 0 0 1297.76z"/>
   <path class="fil1" d="M14558.88 10815.13l0 1297.74 1412.97 0 0 -1297.74 -1412.97 0zm-3073.72 0l0 1297.74 1412.97 0 0 -1297.74 -1412.97 0zm0 1421.63l0 1297.74 1412.97 0 0 -1297.74 -1412.97 0zm0 1421.62l0 1297.76 1412.97 0 0 -1297.76 -1412.97 0zm0 1421.65l0 1297.74 1412.97 0 0 -1297.74 -1412.97 0zm0 1421.63l0 0.81 -123.89 0 0 -0.81 0 -123.89 0 -1297.74 0 -123.89 0 -1297.76 0 -123.89 0 -1297.74 0 -123.89 0 -1297.74 0 -123.89 123.89 0 4486.7 0 123.89 0 1413 0 123.89 0 1412.95 0 29.17 0 94.72 0 0 5811.22 -123.89 0 0 -0.81 -1412.95 0 0 0.81 -123.89 0 0 -0.81 -1413 0 0 0.81 -123.89 0 0 -0.81 -1412.97 0 0 0.81 -123.89 0 0 -0.81 -1412.97 0 0 0.81 -123.89 0 0 -0.81 -1412.97 0 -0.01 0.02zm7560.42 -123.89l0 -1297.74 -1412.95 0 0 1297.74 1412.95 0zm0 -1421.63l0 -1297.76 -1412.95 0 0 1297.76 1412.95 0zm0 -1421.65l0 -1297.74 -1412.95 0 0 1297.74 1412.95 0zm0 -1421.62l0 -1297.74 -1412.95 0 0 1297.74 1412.95 0zm-1536.84 4264.9l0 -1297.74 -1413 0 0 1297.74 1413 0zm0 -1421.63l0 -1297.76 -1413 0 0 1297.76 1413 0zm0 -1421.65l0 -1297.74 -1413 0 0 1297.74 1413 0zm0 -1421.62l0 -1297.74 -1413 0 0 1297.74 1413 0zm-4486.72 -1297.74l0 1297.74 1412.97 0 0 -1297.74 -1412.97 0zm0 1421.63l0 1297.74 1412.97 0 0 -1297.74 -1412.97 0zm0 1421.62l0 1297.76 1412.97 0 0 -1297.76 -1412.97 0zm0 1421.65l0 1297.74 1412.97 0 0 -1297.74 -1412.97 0zm2949.83 0l-1412.97 0 0 1297.74 1412.97 0 0 -1297.74zm-1412.97 -123.89l1412.97 0 0 -1297.76 -1412.97 0 0 1297.76zm0 -1421.65l1412.97 0 0 -1297.74 -1412.97 0 0 1297.74z"/>
  </g>
  <circle class="fil2" cx="14289.98" cy="16261.09" r="2948.84"/>
  <path class="fil3" d="M1830.61 15096.03l0 -11735.74 3777.71 0 0 3748.42 2998.72 -3748.45 4362.56 0.03 -2186.54 2695.05 2204.11 734.76 969.42 1654.85 -2008.01 1992.53 -1655.07 -929.67 -1074.53 -3291.49 123.93 -121.82 1727.14 1752.24c-40.65,75.56 -64.02,161.93 -64.64,253.69 -2.03,300.56 239.98,545.86 540.54,547.9 300.53,2.01 545.86,-239.98 547.87,-540.54 2.03,-300.56 -239.96,-545.84 -540.52,-547.87 -67.11,-0.46 -131.38,11.29 -190.88,33.04l-1743.87 -1769.18 119.04 -116.96 396.02 132.02 1489.41 -1835.77 -2711.14 0 -3946.34 4932.92 0 -4932.92 -2492.17 0 0 10771.59 2492.17 0 0 -3102.8 1234.14 -1279.85 2955.35 4382.64 2812.05 0 -4199.56 -5964.58 784.67 0 4652.07 6607.34 -4390.23 0 -2703.59 -4009.33 -502.13 520.72 0 3488.61 -3777.71 0 0 -321.38 0.01 0zm11337.38 -3512.11l1928.56 -1902.64 -908.87 -921.27 -1923.06 1908.29 903.37 915.61 0 0.01z"/>
  <path class="fil1" d="M15351.83 6309.93l0 -584.79 268.52 0c28.56,0 54.91,5.9 79.06,17.72 24.15,11.8 44.9,27.19 62.2,46.1 17.27,18.95 30.86,40.66 40.77,65.08 9.88,24.43 14.81,49.01 14.81,73.73 0,34.03 -7.42,65.74 -22.24,95.1 -14.82,29.4 -35.42,53.41 -61.79,72.09l123.55 214.96 -181.21 0 -102.94 -179.55 -60.12 0 0 179.55 -160.63 0 0.02 0.01zm160.62 -319.57l101.31 0c9.88,0 19.06,-5.5 27.59,-16.48 8.51,-10.99 12.75,-26.35 12.75,-46.11 0,-20.32 -4.94,-35.83 -14.81,-46.55 -9.89,-10.71 -19.79,-16.06 -29.66,-16.06l-97.18 0 0 125.21 0 -0.01z"/>
  <path class="fil1" d="M16947.5 5494.61l362.28 0 500.63 1444.95 -402.94 0 -87.52 -282.9 -384.64 0 -85.48 282.9 -405.01 0 502.68 -1444.95zm309.36 897.5l-128.21 -447.73 -134.33 447.73 262.55 0 -0.01 0z"/>
  <path class="fil1" d="M15805.25 9607.94l0 -2091.08 901.23 0c102.09,0 196.34,21.12 282.73,63.34 86.41,42.22 160.53,97.2 222.36,164.92 61.86,67.74 110.44,145.3 145.79,232.66 35.34,87.37 53.01,175.25 53.01,263.6 0,92.28 -16.69,182.11 -50.06,269.48 -33.38,87.37 -79.99,164.92 -139.89,232.66 -59.89,67.75 -132.54,121.75 -217.94,161.98 -85.42,40.25 -179.15,60.38 -281.27,60.38l-341.63 0 0 642.05 -574.32 0 -0.01 0.01zm574.33 -1142.74l303.34 0c35.34,0 68.22,-16.19 98.67,-48.59 30.43,-32.39 45.64,-90.81 45.64,-175.23 0,-86.41 -17.68,-145.29 -53.02,-176.73 -35.33,-31.41 -70.67,-47.11 -106.02,-47.11l-288.62 0 0 447.65 0.01 0.01z"/>
  <polygon class="fil1" points="18084.96,8822.45 18084.96,8083.8 18287.83,8083.8 18287.83,8364.68 18512.55,8083.8 18741.42,8083.8 18473.03,8414.61 18760.15,8822.45 18527.12,8822.45 18344,8550.92 18287.83,8609.19 18287.83,8822.45 "/>
  <path class="fil1" d="M16924.76 9712.9l247.27 0 341.73 986.26 -275.05 0 -59.72 -193.09 -262.55 0 -58.35 193.09 -276.43 0 343.11 -986.26 -0.01 0zm211.16 612.58l-87.52 -305.6 -91.69 305.6 179.2 0 0.01 0z"/>
  <polygon class="fil1" points="14364.14,7868.27 14364.14,6498.91 14740.23,6498.91 14740.23,7019.66 15156.84,6498.91 15581.15,6498.91 15083.53,7112.24 15615.85,7868.27 15183.83,7868.27 14844.38,7364.88 14740.23,7472.88 14740.23,7868.27 "/>
  <path class="fil1" d="M13412.39 5766.06c0,-41.45 7.82,-82.25 23.44,-122.44 15.61,-40.18 38.42,-76.21 68.4,-108.08 29.95,-31.88 66.3,-57.71 109.01,-77.47 42.74,-19.78 91.53,-29.66 146.36,-29.66 65.68,0 122.58,13.55 170.72,40.65 48.15,27.11 84.03,62.97 107.62,107.63l-142.52 101.37c-6.38,-16.56 -14.81,-30.28 -25.36,-41.11 -10.51,-10.84 -22.14,-19.46 -34.89,-25.82 -12.76,-6.39 -25.98,-10.84 -39.69,-13.4 -13.72,-2.55 -26.96,-3.83 -39.69,-3.83 -26.78,0 -49.91,5.26 -69.36,15.78 -19.46,10.55 -35.38,24.23 -47.82,41.14 -12.43,16.91 -21.68,36.03 -27.75,57.38 -6.04,21.36 -9.09,42.57 -9.09,63.61 0,23.59 3.52,46.25 10.55,67.92 7,21.68 17.2,40.8 30.59,57.38 13.39,16.58 29.82,29.81 49.25,39.69 19.46,9.88 41.28,14.81 65.51,14.81 12.75,0 25.83,-1.42 39.22,-4.3 13.39,-2.87 26.3,-7.64 38.73,-14.35 12.44,-6.69 23.6,-15.29 33.5,-25.81 9.88,-10.55 17.69,-23.45 23.42,-38.76l152.08 90.88c-10.2,24.87 -25.66,47.18 -46.38,66.95 -20.75,19.76 -44.34,36.35 -70.79,49.74 -26.46,13.39 -54.85,23.59 -85.12,30.6 -30.31,7.03 -59.79,10.54 -88.48,10.54 -50.38,0 -96.46,-10.05 -138.22,-30.13 -41.78,-20.1 -77.81,-46.72 -108.09,-79.87 -30.3,-33.18 -53.72,-70.78 -70.31,-112.88 -16.57,-42.07 -24.87,-84.81 -24.87,-128.16l0.03 0z"/>
  <path class="fil4" d="M13728.51 5213.76c308.73,0 558.98,250.26 558.98,558.98 0,308.73 -250.25,558.98 -558.98,558.98 -308.73,0 -558.98,-250.25 -558.98,-558.98 0,-308.72 250.25,-558.98 558.98,-558.98zm0 72.01c268.96,0 486.98,218.01 486.98,486.97 0,268.96 -218.02,486.98 -486.98,486.98 -268.96,0 -486.98,-218.02 -486.98,-486.98 0,-268.96 218.02,-486.97 486.98,-486.97z"/>
  <polygon class="fil1" points="18452.66,9620.64 18338.6,9620.64 18338.6,9922.61 18229.56,9922.61 18229.56,9620.64 18114.93,9620.64 18114.93,9525.58 18452.66,9525.58 "/>
  <polygon id="_1" class="fil1" points="18792.64,9922.61 18792.64,9713.46 18726.11,9860.52 18667.95,9860.52 18601.42,9713.46 18601.42,9922.61 18492.37,9922.61 18492.37,9525.58 18611.47,9525.58 18697.04,9712.35 18783.13,9525.58 18901.69,9525.58 18901.69,9922.61 "/>
 </g>
</svg>
