<?xml version="1.0" encoding="UTF-8"?>
<!DOCTYPE svg PUBLIC "-//W3C//DTD SVG 1.1//EN" "http://www.w3.org/Graphics/SVG/1.1/DTD/svg11.dtd">
<!-- Creator: CorelDRAW 2018 (64-Bit) -->
<svg xmlns="http://www.w3.org/2000/svg" xml:space="preserve" width="100%" height="100%" version="1.1" style="shape-rendering:geometricPrecision; text-rendering:geometricPrecision; image-rendering:optimizeQuality; fill-rule:evenodd; clip-rule:evenodd"
viewBox="0 0 10109.69 2105.28"
 xmlns:xlink="http://www.w3.org/1999/xlink">
 <defs>
  <style type="text/css">
   <![CDATA[
    .fil1 {fill:#2B2A29}
    .fil2 {fill:#FBBA00}
    .fil0 {fill:#2B2A29;fill-rule:nonzero}
   ]]>
  </style>
 </defs>
 <g id="Layer_x0020_1">
  <metadata id="CorelCorpID_0Corel-Layer"/>
  <path class="fil0" d="M5882.29 954.79l305.41 0c35.58,0 68.69,-16.31 99.33,-48.93 30.64,-32.61 45.96,-91.42 45.96,-176.42 0,-86.98 -17.79,-146.29 -53.37,-177.91 -35.58,-31.63 -71.16,-47.45 -106.75,-47.45l-290.58 0 0 450.71zm879.2 1150.49l0 -909.85c-10.41,13.54 -21.29,26.73 -32.64,39.57 -60.3,68.2 -133.44,122.56 -219.43,163.08 -85.99,40.53 -180.38,60.79 -283.17,60.79l-343.96 0 0 646.41 -0.04 0 -729.44 -2105.28 1058.61 0c102.79,0 197.68,21.25 284.66,63.75 86.98,42.5 161.6,97.85 223.87,166.05 14.58,15.97 28.43,32.48 41.54,49.53l0 -279.33 578.21 0 0 800.6 640.48 -800.6 652.33 0 -765.01 942.93 372.74 529.4 -219.63 631.35 -520.79 -772.31 -160.12 166.05 0 607.86 -578.21 0z"/>
  <path class="fil0" d="M3058.83 954.79l364.71 0c35.59,0 68.7,-19.77 99.34,-59.3 30.64,-39.54 45.96,-94.89 45.96,-166.05 0,-73.14 -17.79,-128.99 -53.38,-167.54 -35.58,-38.54 -71.16,-57.82 -106.74,-57.82l-349.89 0 0 450.71zm1916.89 352.86l-186.81 -652.34 -195.7 652.34 382.51 0zm-450.71 -1307.65l527.8 0 729.44 2105.28 -587.11 0 -127.5 -412.16 -560.42 0 -124.54 412.16 -84.41 0 -505.66 0 -146.68 0 -370.65 -646.41 -216.45 0 0 646.38 -818.37 -1162.32 765.01 -942.93 441.79 0c102.8,0 197.68,21.25 284.66,63.75 86.98,42.5 161.6,97.85 223.87,166.05 62.27,68.2 111.2,146.29 146.78,234.25 35.58,87.97 53.37,176.43 53.37,265.39 0,122.56 -26.68,236.72 -80.06,342.47 -53.37,105.76 -127.5,192.25 -222.39,259.46l129.79 225.83 541.73 -1557.2z"/>
  <polygon class="fil0" points="1034.45,2105.28 1034.45,0 1612.66,0 1612.66,800.6 2253.14,0 2905.47,0 2140.46,942.93 2958.85,2105.28 2294.65,2105.28 1772.78,1331.37 1612.66,1497.42 1612.66,2105.28 "/>
  <path class="fil0" d="M9303.16 1307.65l-186.81 -652.34 -195.7 652.34 382.51 0zm-450.71 -1307.65l527.8 0 729.44 2105.28 -587.11 0 -127.5 -412.16 -560.42 0 -124.54 412.16 -590.07 0 732.4 -2105.28z"/>
  <path class="fil1" d="M276.64 1727.35c0,-58.5 14.32,-113.66 39.61,-162.19l-316.25 0 0 -189.26 625.65 0 2.47 -0.03c194.12,-0.01 351.48,157.37 351.48,351.48 0,194.12 -157.36,351.48 -351.48,351.48 -194.1,0 -351.48,-157.35 -351.48,-351.48z"/>
  <polygon class="fil1" points="975.68,1147.77 279.83,1351.15 279.83,1127.09 778.56,1019.08 279.83,909.93 279.83,706.55 975.68,909.93 "/>
  <path class="fil1" d="M276.64 377.94c0,-194.1 157.38,-351.49 351.48,-351.49 194.12,0 351.48,157.39 351.48,351.49 0,194.12 -157.36,351.48 -351.48,351.48 -194.1,0 -351.48,-157.36 -351.48,-351.48z"/>
  <path class="fil2" d="M438.81 377.94c0,-104.54 84.77,-189.31 189.31,-189.31 104.55,0 189.3,84.77 189.3,189.31 0,104.55 -84.75,189.3 -189.3,189.3 -104.54,0 -189.31,-84.75 -189.31,-189.3z"/>
  <path class="fil2" d="M438.82 1727.36c-0.01,-104.55 84.75,-189.3 189.3,-189.31 104.55,0 189.3,84.76 189.3,189.31 0,104.54 -84.75,189.3 -189.3,189.3 -104.55,0 -189.31,-84.76 -189.3,-189.3z"/>
 </g>
</svg>
