<svg class="toplogo" xmlns="http://www.w3.org/2000/svg" viewBox="0 0 21000 4353.68">
<path class="dvo" d="M907.45 781.57c0,-216.19 175.3,-391.49 391.49,-391.49 216.21,0 391.47,175.3 391.47,391.49 0,216.21 -175.26,391.47 -391.47,391.47 -216.19,0 -391.49,-175.26 -391.49,-391.47zm-335.36 0c0,-401.39 325.46,-726.87 726.85,-726.87 401.44,0 726.85,325.48 726.85,726.87 0,401.44 -325.42,726.85 -726.85,726.85 -401.39,0 -726.85,-325.42 -726.85,-726.85zm1445.6 1592l-1439 420.59 0 -463.35 1031.36 -223.36 -1031.36 -225.72 0 -420.59 1439 420.59 0 491.85 0 -0.01zm-1110.22 1198.58c-0.02,-216.21 175.26,-391.47 391.47,-391.49 216.21,0 391.47,175.28 391.47,391.49 0,216.19 -175.26,391.47 -391.47,391.47 -216.21,0 -391.49,-175.28 -391.47,-391.47zm-335.38 -0.02c0,-120.98 29.61,-235.05 81.91,-335.41l-654 0 0 -391.39 1293.83 0 5.11 -0.06c401.44,-0.02 726.85,325.44 726.85,726.85 0,401.44 -325.42,726.85 -726.85,726.85 -401.39,0 -726.85,-325.4 -726.85,-726.85l0 0.01z"/>
<path class="krapka" d="M14075.99 4353.68l0 -1881.55c-21.53,28 -44.03,55.28 -67.5,81.83 -124.7,141.04 -275.95,253.45 -453.78,337.25 -177.83,83.82 -373.02,125.71 -585.59,125.71l-711.3 0 0 1336.76 -0.08 0 -1508.47 -4353.68 2189.18 0c212.57,0 408.8,43.94 588.67,131.83 179.87,87.89 334.19,202.35 462.96,343.39 30.15,33.03 58.79,67.17 85.9,102.43l0 -577.65 1195.73 0 0 1655.62 1324.5 -1655.62 1349.01 0 -1582.02 1949.96 770.82 1094.79 -454.19 1305.62 -1076.98 -1597.12 -331.12 343.39 0 1257.04 -1195.73 0 -0.01 0zm-4624.99 -4353.68l1091.48 0 1508.47 4353.68 -1214.13 0 -263.67 -852.34 -1158.94 0 -257.55 852.34 -174.56 0 -1045.69 0 -303.33 0 -766.5 -1336.76 -447.61 0 0 1336.7 -1692.37 -2403.65 1582.02 -1949.96 913.61 0c212.59,0 408.8,43.94 588.67,131.83 179.87,87.89 334.19,202.35 462.96,343.39 128.77,141.04 229.96,302.52 303.54,484.42 73.58,181.92 110.37,364.85 110.37,548.82 0,253.45 -55.17,489.53 -165.56,708.22 -110.37,218.71 -263.67,397.57 -459.9,536.56l268.4 467.01 1120.29 -3220.26zm932.06 2704.2l-386.32 -1349.03 -404.7 1349.03 791.02 0zm-3964.09 -729.71l754.21 0c73.6,0 142.07,-40.88 205.43,-122.63 63.36,-81.77 95.04,-196.23 95.04,-343.39 0,-151.25 -36.79,-266.75 -110.39,-346.47 -73.58,-79.7 -147.16,-119.57 -220.74,-119.57l-723.57 0 0 932.06 0.02 0zm-4186.38 2379.19l0 -4353.68 1195.73 0 0 1655.62 1324.5 -1655.62 1349.01 0 -1582.02 1949.96 1692.41 2403.72 -1373.55 0 -1079.22 -1600.43 -331.12 343.39 0 1257.04 -1195.73 0 -0.01 0zm16167.46 -4353.68l1091.48 0 1508.47 4353.68 -1214.13 0 -263.67 -852.34 -1158.94 0 -257.55 852.34 -1220.25 0 1514.59 -4353.68zm932.06 2704.2l-386.32 -1349.03 -404.7 1349.03 791.02 0zm-7074.29 -729.71l631.58 0c73.58,0 142.05,-33.73 205.41,-101.19 63.36,-67.44 95.04,-189.05 95.04,-364.83 0,-179.87 -36.79,-302.52 -110.37,-367.91 -73.58,-65.41 -147.16,-98.13 -220.76,-98.13l-600.91 0 0 932.06 0.01 0z"/>
</svg>