<?xml version="1.0" encoding="UTF-8"?>
<!DOCTYPE svg PUBLIC "-//W3C//DTD SVG 1.1//EN" "http://www.w3.org/Graphics/SVG/1.1/DTD/svg11.dtd">
<!-- Creator: CorelDRAW 2018 (64-Bit) -->
<svg xmlns="http://www.w3.org/2000/svg" xml:space="preserve" width="100%" height="100%" version="1.1" style="shape-rendering:geometricPrecision; text-rendering:geometricPrecision; image-rendering:optimizeQuality; fill-rule:evenodd; clip-rule:evenodd"
viewBox="0 0 5000 5000"
 xmlns:xlink="http://www.w3.org/1999/xlink">
 <defs>
  <style type="text/css">
   <![CDATA[
    .fil1 {fill:#211F1F}
    .fil0 {fill:#2D2D2D}
    .fil2 {fill:#FBBA00;fill-rule:nonzero}
   ]]>
  </style>
 </defs>
 <g id="Layer_x0020_1">
  <metadata id="CorelCorpID_0Corel-Layer"/>
  <path class="fil0" d="M590.55 0l3818.9 0c326.09,0 590.54,264.45 590.54,590.55l0.01 3818.9c-0.01,326.09 -264.46,590.55 -590.56,590.55l-3818.89 0c-326.09,0 -590.55,-264.46 -590.55,-590.56l0 -3818.89c0,-326.1 264.46,-590.55 590.55,-590.55l0 0z"/>
  <path class="fil1" d="M5000 3948.71c-304.75,107.87 -632.66,166.76 -974.36,166.76 -1612.51,0 -2919.71,-1307.19 -2919.71,-2919.7 0,-426.08 91.33,-830.8 255.38,-1195.77l3048.14 0c324.8,0 590.55,265.75 590.55,590.55l0 3358.16 0 0z"/>
  <path class="fil2" d="M3159.95 1117.69c0,-96.27 78.05,-174.32 174.32,-174.32 96.27,0 174.32,78.05 174.32,174.32l-0.01 1722.6c0,96.27 -78.05,174.32 -174.32,174.32 -96.27,0 -174.32,-78.05 -174.32,-174.32l0.01 -1722.6z"/>
  <path class="fil2" d="M4195.57 1804.68c96.27,0 174.32,78.05 174.32,174.32 0,96.27 -78.05,174.32 -174.32,174.32l-1722.6 -0.01c-96.27,0 -174.32,-78.05 -174.32,-174.32 0,-96.27 78.05,-174.32 174.32,-174.32l1722.6 0.01z"/>
 </g>
</svg>
