<svg class="upload-svg" xmlns="http://www.w3.org/2000/svg" width="100%" height="100%" viewBox="0 0 7980.03 6066.43">
<defs>
<style>
.upload-svg .fil0 {fill:#222222}
.upload-svg .fil1 {fill:#222222;fill-rule:nonzero}
</style>
</defs>
<path class="fil0" d="M6327.39 2201.34c-16.67,-1216.65 -1011.56,-2201.34 -2232.12,-2201.34 -542.93,0 -1066.01,197.51 -1472.84,556.14 -363.09,320.06 -611.47,747.77 -709.83,1217.36 -7.19,-0.08 -14.31,-0.14 -21.42,-0.14 -1042.77,-0.01 -1891.18,848.38 -1891.18,1891.18 0,1042.79 848.41,1891.18 1891.2,1891.18l1320.8 0c93.97,0 170.19,-76.18 170.19,-170.18 0,-94 -76.22,-170.18 -170.19,-170.18l-1320.8 0c-855.14,0 -1550.83,-695.7 -1550.83,-1550.82 0,-855.13 695.69,-1550.82 1550.83,-1550.82 45.56,0 93.72,2.44 147.26,7.48 90.74,8.49 172.21,-56.05 184.57,-146.45 61.28,-449.19 283.05,-862.32 624.48,-1163.3 344.62,-303.81 787.75,-471.11 1247.75,-471.11 1043.25,0 1891.97,848.74 1891.97,1891.97 0,37.56 -2.79,76.28 -5.74,117.27l-1.26 17.43c-3.54,50.06 15.2,99.14 51.23,134.1 35.99,34.96 85.54,52.23 135.55,47.22 45.26,-4.56 90.93,-6.85 135.72,-6.85 737.17,0 1336.94,599.74 1336.94,1336.93 0,737.17 -599.75,1336.92 -1336.94,1336.92l-1388.88 0c-93.97,0 -170.18,76.18 -170.18,170.18 0,94 76.21,170.18 170.18,170.18l1388.88 0c924.85,0 1677.3,-752.41 1677.3,-1677.28 -0.02,-916.57 -739.1,-1663.83 -1652.64,-1677.07z"/>
<path class="fil0" d="M4095.29 799.85c-711.62,0 -1320.79,531.81 -1416.98,1237.01 -12.71,93.13 52.51,178.93 145.62,191.64 7.81,1.06 15.55,1.58 23.2,1.58 83.78,0 156.78,-61.87 168.39,-147.19 73.31,-537.41 537.5,-942.67 1079.75,-942.67 94,0 170.18,-76.18 170.18,-170.18 0.02,-93.99 -76.18,-170.19 -170.16,-170.19z"/>
<path class="fil1" d="M4749.29 4860.82c78.06,90.22 214.5,100.06 304.71,22.01 90.22,-78.06 100.06,-214.5 22.01,-304.72l-848.13 -979.3c-78.06,-90.22 -214.5,-100.06 -304.72,-22.01 -8.74,7.57 -16.7,15.67 -23.93,24.23l-849.41 977.08c-78.06,90.22 -68.21,226.66 22,304.72 90.22,78.05 226.66,68.21 304.72,-22.01l471.77 -542.68 -1.24 1532.44c0,119.21 96.65,215.85 215.85,215.85 119.2,0 215.85,-96.64 215.85,-215.85l1.23 -1531.63 469.29 541.87z"/>
</svg>
