<?xml version="1.0" encoding="UTF-8"?>
<!DOCTYPE svg PUBLIC "-//W3C//DTD SVG 1.1//EN" "http://www.w3.org/Graphics/SVG/1.1/DTD/svg11.dtd">
<!-- Creator: CorelDRAW 2018 (64-Bit) -->
<svg xmlns="http://www.w3.org/2000/svg" xml:space="preserve" width="100%" height="100%" version="1.1" style="shape-rendering:geometricPrecision; text-rendering:geometricPrecision; image-rendering:optimizeQuality; fill-rule:evenodd; clip-rule:evenodd"
viewBox="0 0 8167.79 8165.85"
 xmlns:xlink="http://www.w3.org/1999/xlink">
 <defs>
  <style type="text/css">
   <![CDATA[
    .fil1 {fill:#211F1F}
    .fil5 {fill:#B2B3B3}
    .fil2 {fill:#FBBA00}
    .fil0 {fill:#211F1F;fill-rule:nonzero}
    .fil4 {fill:#B2B3B3;fill-rule:nonzero}
    .fil3 {fill:#FBBA00;fill-rule:nonzero}
   ]]>
  </style>
 </defs>
 <g id="Layer_x0020_1">
  <metadata id="CorelCorpID_0Corel-Layer"/>
  <g id="_1919440724864">
   <path class="fil0" d="M57.57 115.85c4.37,0 8.79,-0.52 13.25,-1.54l2.53 -0.61c30.96,-7.29 50.18,-38.28 42.89,-69.27 -7.27,-30.97 -38.28,-50.14 -69.25,-42.89l-2.55 0.61c-30.97,7.26 -50.17,38.27 -42.89,69.24 6.24,26.56 29.89,44.46 56.02,44.46z"/>
   <path class="fil0" d="M407.57 115.85c4.37,0 8.79,-0.52 13.25,-1.54l2.53 -0.61c30.96,-7.29 50.18,-38.28 42.89,-69.27 -7.27,-30.97 -38.28,-50.14 -69.25,-42.89l-2.55 0.61c-30.97,7.26 -50.17,38.27 -42.89,69.24 6.24,26.56 29.89,44.46 56.02,44.46z"/>
   <path class="fil0" d="M757.57 115.85c4.37,0 8.79,-0.52 13.25,-1.54l2.53 -0.61c30.96,-7.29 50.18,-38.28 42.89,-69.27 -7.27,-30.97 -38.28,-50.14 -69.25,-42.89l-2.55 0.61c-30.97,7.26 -50.17,38.27 -42.89,69.24 6.24,26.56 29.89,44.46 56.02,44.46z"/>
   <path class="fil0" d="M1107.57 115.85c4.37,0 8.79,-0.52 13.25,-1.54l2.53 -0.61c30.96,-7.29 50.18,-38.28 42.89,-69.27 -7.27,-30.97 -38.28,-50.14 -69.25,-42.89l-2.55 0.61c-30.97,7.26 -50.17,38.27 -42.89,69.24 6.24,26.56 29.89,44.46 56.02,44.46z"/>
   <path class="fil0" d="M1457.57 115.85c4.37,0 8.79,-0.52 13.25,-1.54l2.53 -0.61c30.96,-7.29 50.18,-38.28 42.89,-69.27 -7.27,-30.97 -38.28,-50.14 -69.25,-42.89l-2.55 0.61c-30.97,7.26 -50.17,38.27 -42.89,69.24 6.24,26.56 29.89,44.46 56.02,44.46z"/>
   <path class="fil0" d="M1807.57 115.85c4.37,0 8.79,-0.52 13.25,-1.54l2.53 -0.61c30.96,-7.29 50.18,-38.28 42.89,-69.27 -7.27,-30.97 -38.28,-50.14 -69.25,-42.89l-2.55 0.61c-30.97,7.26 -50.17,38.27 -42.89,69.24 6.24,26.56 29.89,44.46 56.02,44.46z"/>
   <path class="fil0" d="M2157.57 115.85c4.37,0 8.79,-0.52 13.25,-1.54l2.53 -0.61c30.96,-7.29 50.18,-38.28 42.89,-69.27 -7.27,-30.97 -38.28,-50.14 -69.25,-42.89l-2.55 0.61c-30.97,7.26 -50.17,38.27 -42.89,69.24 6.24,26.56 29.89,44.46 56.02,44.46z"/>
   <path class="fil0" d="M2507.57 115.85c4.37,0 8.79,-0.52 13.25,-1.54l2.53 -0.61c30.96,-7.29 50.18,-38.28 42.89,-69.27 -7.27,-30.97 -38.28,-50.14 -69.25,-42.89l-2.55 0.61c-30.97,7.26 -50.17,38.27 -42.89,69.24 6.24,26.56 29.89,44.46 56.02,44.46z"/>
   <path class="fil0" d="M2857.57 115.85c4.37,0 8.79,-0.52 13.25,-1.54l2.53 -0.61c30.96,-7.29 50.18,-38.28 42.89,-69.27 -7.27,-30.97 -38.28,-50.14 -69.25,-42.89l-2.55 0.61c-30.97,7.26 -50.17,38.27 -42.89,69.24 6.24,26.56 29.89,44.46 56.02,44.46z"/>
   <path class="fil0" d="M3207.57 115.85c4.37,0 8.79,-0.52 13.25,-1.54l2.53 -0.61c30.96,-7.29 50.18,-38.28 42.89,-69.27 -7.27,-30.97 -38.28,-50.14 -69.25,-42.89l-2.55 0.61c-30.97,7.26 -50.17,38.27 -42.89,69.24 6.24,26.56 29.89,44.46 56.02,44.46z"/>
   <path class="fil0" d="M3557.57 115.85c4.37,0 8.79,-0.52 13.25,-1.54l2.53 -0.61c30.96,-7.29 50.18,-38.28 42.89,-69.27 -7.27,-30.97 -38.28,-50.14 -69.25,-42.89l-2.55 0.61c-30.97,7.26 -50.17,38.27 -42.89,69.24 6.24,26.56 29.89,44.46 56.02,44.46z"/>
   <path class="fil0" d="M3907.57 115.85c4.37,0 8.79,-0.52 13.25,-1.54l2.53 -0.61c30.96,-7.29 50.18,-38.28 42.89,-69.27 -7.27,-30.97 -38.28,-50.14 -69.25,-42.89l-2.55 0.61c-30.97,7.26 -50.17,38.27 -42.89,69.24 6.24,26.56 29.89,44.46 56.02,44.46z"/>
   <path class="fil0" d="M4257.57 115.85c4.37,0 8.79,-0.52 13.25,-1.54l2.53 -0.61c30.96,-7.29 50.18,-38.28 42.89,-69.27 -7.27,-30.97 -38.28,-50.14 -69.25,-42.89l-2.55 0.61c-30.97,7.26 -50.17,38.27 -42.89,69.24 6.24,26.56 29.89,44.46 56.02,44.46z"/>
   <path class="fil0" d="M4607.57 115.85c4.37,0 8.79,-0.52 13.25,-1.54l2.53 -0.61c30.96,-7.29 50.18,-38.28 42.89,-69.27 -7.27,-30.97 -38.28,-50.14 -69.25,-42.89l-2.55 0.61c-30.97,7.26 -50.17,38.27 -42.89,69.24 6.24,26.56 29.89,44.46 56.02,44.46z"/>
   <path class="fil0" d="M4957.57 115.85c4.37,0 8.79,-0.52 13.25,-1.54l2.53 -0.61c30.96,-7.29 50.18,-38.28 42.89,-69.27 -7.27,-30.97 -38.28,-50.14 -69.25,-42.89l-2.55 0.61c-30.97,7.26 -50.17,38.27 -42.89,69.24 6.24,26.56 29.89,44.46 56.02,44.46z"/>
   <path class="fil0" d="M5307.57 115.85c4.37,0 8.79,-0.52 13.25,-1.54l2.53 -0.61c30.96,-7.29 50.18,-38.28 42.89,-69.27 -7.27,-30.97 -38.28,-50.14 -69.25,-42.89l-2.55 0.61c-30.97,7.26 -50.17,38.27 -42.89,69.24 6.24,26.56 29.89,44.46 56.02,44.46z"/>
   <path class="fil0" d="M5657.57 115.85c4.37,0 8.79,-0.52 13.25,-1.54l2.53 -0.61c30.96,-7.29 50.18,-38.28 42.89,-69.27 -7.27,-30.97 -38.28,-50.14 -69.25,-42.89l-2.55 0.61c-30.97,7.26 -50.17,38.27 -42.89,69.24 6.24,26.56 29.89,44.46 56.02,44.46z"/>
   <path class="fil0" d="M6007.57 115.85c4.37,0 8.79,-0.52 13.25,-1.54l2.53 -0.61c30.96,-7.29 50.18,-38.28 42.89,-69.27 -7.27,-30.97 -38.28,-50.14 -69.25,-42.89l-2.55 0.61c-30.97,7.26 -50.17,38.27 -42.89,69.24 6.24,26.56 29.89,44.46 56.02,44.46z"/>
   <path class="fil0" d="M6357.57 115.85c4.37,0 8.79,-0.52 13.25,-1.54l2.53 -0.61c30.96,-7.29 50.18,-38.28 42.89,-69.27 -7.27,-30.97 -38.28,-50.14 -69.25,-42.89l-2.55 0.61c-30.97,7.26 -50.17,38.27 -42.89,69.24 6.24,26.56 29.89,44.46 56.02,44.46z"/>
   <path class="fil0" d="M6707.57 115.85c4.37,0 8.79,-0.52 13.25,-1.54l2.53 -0.61c30.96,-7.29 50.18,-38.28 42.89,-69.27 -7.27,-30.97 -38.28,-50.14 -69.25,-42.89l-2.55 0.61c-30.97,7.26 -50.17,38.27 -42.89,69.24 6.24,26.56 29.89,44.46 56.02,44.46z"/>
   <path class="fil0" d="M7057.57 115.85c4.37,0 8.79,-0.52 13.25,-1.54l2.53 -0.61c30.96,-7.29 50.18,-38.28 42.89,-69.27 -7.27,-30.97 -38.28,-50.14 -69.25,-42.89l-2.55 0.61c-30.97,7.26 -50.17,38.27 -42.89,69.24 6.24,26.56 29.89,44.46 56.02,44.46z"/>
   <path class="fil0" d="M7407.57 115.85c4.37,0 8.79,-0.52 13.25,-1.54l2.53 -0.61c30.96,-7.29 50.18,-38.28 42.89,-69.27 -7.27,-30.97 -38.28,-50.14 -69.25,-42.89l-2.55 0.61c-30.97,7.26 -50.17,38.27 -42.89,69.24 6.24,26.56 29.89,44.46 56.02,44.46z"/>
   <path class="fil0" d="M7757.57 115.85c4.37,0 8.79,-0.52 13.25,-1.54l2.53 -0.61c30.96,-7.29 50.18,-38.28 42.89,-69.27 -7.27,-30.97 -38.28,-50.14 -69.25,-42.89l-2.55 0.61c-30.97,7.26 -50.17,38.27 -42.89,69.24 6.24,26.56 29.89,44.46 56.02,44.46z"/>
   <path class="fil0" d="M8107.57 115.85c4.37,0 8.79,-0.52 13.25,-1.54l2.53 -0.61c30.96,-7.29 50.18,-38.28 42.89,-69.27 -7.27,-30.97 -38.28,-50.14 -69.25,-42.89l-2.55 0.61c-30.97,7.26 -50.17,38.27 -42.89,69.24 6.24,26.56 29.89,44.46 56.02,44.46z"/>
   <path class="fil0" d="M8107.57 465.85c4.37,0 8.79,-0.52 13.25,-1.54l2.53 -0.61c30.96,-7.29 50.18,-38.28 42.89,-69.27 -7.27,-30.97 -38.28,-50.14 -69.25,-42.89l-2.55 0.61c-30.97,7.26 -50.17,38.27 -42.89,69.24 6.24,26.56 29.89,44.46 56.02,44.46z"/>
   <path class="fil0" d="M8107.57 815.85c4.37,0 8.79,-0.52 13.25,-1.54l2.53 -0.61c30.96,-7.29 50.18,-38.28 42.89,-69.27 -7.27,-30.97 -38.28,-50.14 -69.25,-42.89l-2.55 0.61c-30.97,7.26 -50.17,38.27 -42.89,69.24 6.24,26.56 29.89,44.46 56.02,44.46z"/>
   <path class="fil0" d="M8107.57 1165.85c4.37,0 8.79,-0.52 13.25,-1.54l2.53 -0.61c30.96,-7.29 50.18,-38.28 42.89,-69.27 -7.27,-30.97 -38.28,-50.14 -69.25,-42.89l-2.55 0.61c-30.97,7.26 -50.17,38.27 -42.89,69.24 6.24,26.56 29.89,44.46 56.02,44.46z"/>
   <path class="fil0" d="M8107.57 1515.85c4.37,0 8.79,-0.52 13.25,-1.54l2.53 -0.61c30.96,-7.29 50.18,-38.28 42.89,-69.27 -7.27,-30.97 -38.28,-50.14 -69.25,-42.89l-2.55 0.61c-30.97,7.26 -50.17,38.27 -42.89,69.24 6.24,26.56 29.89,44.46 56.02,44.46z"/>
   <path class="fil0" d="M8107.57 1865.85c4.37,0 8.79,-0.52 13.25,-1.54l2.53 -0.61c30.96,-7.29 50.18,-38.28 42.89,-69.27 -7.27,-30.97 -38.28,-50.14 -69.25,-42.89l-2.55 0.61c-30.97,7.26 -50.17,38.27 -42.89,69.24 6.24,26.56 29.89,44.46 56.02,44.46z"/>
   <path class="fil0" d="M8107.57 2215.85c4.37,0 8.79,-0.52 13.25,-1.54l2.53 -0.61c30.96,-7.29 50.18,-38.28 42.89,-69.27 -7.27,-30.97 -38.28,-50.14 -69.25,-42.89l-2.55 0.61c-30.97,7.26 -50.17,38.27 -42.89,69.24 6.24,26.56 29.89,44.46 56.02,44.46z"/>
   <path class="fil0" d="M8107.57 2565.85c4.37,0 8.79,-0.52 13.25,-1.54l2.53 -0.61c30.96,-7.29 50.18,-38.28 42.89,-69.27 -7.27,-30.97 -38.28,-50.14 -69.25,-42.89l-2.55 0.61c-30.97,7.26 -50.17,38.27 -42.89,69.24 6.24,26.56 29.89,44.46 56.02,44.46z"/>
   <path class="fil0" d="M8107.57 2915.85c4.37,0 8.79,-0.52 13.25,-1.54l2.53 -0.61c30.96,-7.29 50.18,-38.28 42.89,-69.27 -7.27,-30.97 -38.28,-50.14 -69.25,-42.89l-2.55 0.61c-30.97,7.26 -50.17,38.27 -42.89,69.24 6.24,26.56 29.89,44.46 56.02,44.46z"/>
   <path class="fil0" d="M8107.57 3265.85c4.37,0 8.79,-0.52 13.25,-1.54l2.53 -0.61c30.96,-7.29 50.18,-38.28 42.89,-69.27 -7.27,-30.97 -38.28,-50.14 -69.25,-42.89l-2.55 0.61c-30.97,7.26 -50.17,38.27 -42.89,69.24 6.24,26.56 29.89,44.46 56.02,44.46z"/>
   <path class="fil0" d="M8107.57 3615.85c4.37,0 8.79,-0.52 13.25,-1.54l2.53 -0.61c30.96,-7.29 50.18,-38.28 42.89,-69.27 -7.27,-30.97 -38.28,-50.14 -69.25,-42.89l-2.55 0.61c-30.97,7.26 -50.17,38.27 -42.89,69.24 6.24,26.56 29.89,44.46 56.02,44.46z"/>
   <path class="fil0" d="M8107.57 3965.85c4.37,0 8.79,-0.52 13.25,-1.54l2.53 -0.61c30.96,-7.29 50.18,-38.28 42.89,-69.27 -7.27,-30.97 -38.28,-50.14 -69.25,-42.89l-2.55 0.61c-30.97,7.26 -50.17,38.27 -42.89,69.24 6.24,26.56 29.89,44.46 56.02,44.46z"/>
   <path class="fil0" d="M8107.57 4315.85c4.37,0 8.79,-0.52 13.25,-1.54l2.53 -0.61c30.96,-7.29 50.18,-38.28 42.89,-69.27 -7.27,-30.97 -38.28,-50.14 -69.25,-42.89l-2.55 0.61c-30.97,7.26 -50.17,38.27 -42.89,69.24 6.24,26.56 29.89,44.46 56.02,44.46z"/>
   <path class="fil0" d="M8107.57 4665.85c4.37,0 8.79,-0.52 13.25,-1.54l2.53 -0.61c30.96,-7.29 50.18,-38.28 42.89,-69.27 -7.27,-30.97 -38.28,-50.14 -69.25,-42.89l-2.55 0.61c-30.97,7.26 -50.17,38.27 -42.89,69.24 6.24,26.56 29.89,44.46 56.02,44.46z"/>
   <path class="fil0" d="M8107.57 5015.85c4.37,0 8.79,-0.52 13.25,-1.54l2.53 -0.61c30.96,-7.29 50.18,-38.28 42.89,-69.27 -7.27,-30.97 -38.28,-50.14 -69.25,-42.89l-2.55 0.61c-30.97,7.26 -50.17,38.27 -42.89,69.24 6.24,26.56 29.89,44.46 56.02,44.46z"/>
   <path class="fil0" d="M8107.57 5365.85c4.37,0 8.79,-0.52 13.25,-1.54l2.53 -0.61c30.96,-7.29 50.18,-38.28 42.89,-69.27 -7.27,-30.97 -38.28,-50.14 -69.25,-42.89l-2.55 0.61c-30.97,7.26 -50.17,38.27 -42.89,69.24 6.24,26.56 29.89,44.46 56.02,44.46z"/>
   <path class="fil0" d="M8107.57 5715.85c4.37,0 8.79,-0.52 13.25,-1.54l2.53 -0.61c30.96,-7.29 50.18,-38.28 42.89,-69.27 -7.27,-30.97 -38.28,-50.14 -69.25,-42.89l-2.55 0.61c-30.97,7.26 -50.17,38.27 -42.89,69.24 6.24,26.56 29.89,44.46 56.02,44.46z"/>
   <path class="fil0" d="M8107.57 6065.85c4.37,0 8.79,-0.52 13.25,-1.54l2.53 -0.61c30.96,-7.29 50.18,-38.28 42.89,-69.27 -7.27,-30.97 -38.28,-50.14 -69.25,-42.89l-2.55 0.61c-30.97,7.26 -50.17,38.27 -42.89,69.24 6.24,26.56 29.89,44.46 56.02,44.46z"/>
   <path class="fil0" d="M8107.57 6415.85c4.37,0 8.79,-0.52 13.25,-1.54l2.53 -0.61c30.96,-7.29 50.18,-38.28 42.89,-69.27 -7.27,-30.97 -38.28,-50.14 -69.25,-42.89l-2.55 0.61c-30.97,7.26 -50.17,38.27 -42.89,69.24 6.24,26.56 29.89,44.46 56.02,44.46z"/>
   <path class="fil0" d="M8107.57 6765.85c4.37,0 8.79,-0.52 13.25,-1.54l2.53 -0.61c30.96,-7.29 50.18,-38.28 42.89,-69.27 -7.27,-30.97 -38.28,-50.14 -69.25,-42.89l-2.55 0.61c-30.97,7.26 -50.17,38.27 -42.89,69.24 6.24,26.56 29.89,44.46 56.02,44.46z"/>
   <path class="fil0" d="M8107.57 7115.85c4.37,0 8.79,-0.52 13.25,-1.54l2.53 -0.61c30.96,-7.29 50.18,-38.28 42.89,-69.27 -7.27,-30.97 -38.28,-50.14 -69.25,-42.89l-2.55 0.61c-30.97,7.26 -50.17,38.27 -42.89,69.24 6.24,26.56 29.89,44.46 56.02,44.46z"/>
   <path class="fil0" d="M8107.57 7465.85c4.37,0 8.79,-0.52 13.25,-1.54l2.53 -0.61c30.96,-7.29 50.18,-38.28 42.89,-69.27 -7.27,-30.97 -38.28,-50.14 -69.25,-42.89l-2.55 0.61c-30.97,7.26 -50.17,38.27 -42.89,69.24 6.24,26.56 29.89,44.46 56.02,44.46z"/>
   <path class="fil0" d="M8107.57 7815.85c4.37,0 8.79,-0.52 13.25,-1.54l2.53 -0.61c30.96,-7.29 50.18,-38.28 42.89,-69.27 -7.27,-30.97 -38.28,-50.14 -69.25,-42.89l-2.55 0.61c-30.97,7.26 -50.17,38.27 -42.89,69.24 6.24,26.56 29.89,44.46 56.02,44.46z"/>
   <path class="fil0" d="M8107.57 8165.85c4.37,0 8.79,-0.52 13.25,-1.54l2.53 -0.61c30.96,-7.29 50.18,-38.28 42.89,-69.27 -7.27,-30.97 -38.28,-50.14 -69.25,-42.89l-2.55 0.61c-30.97,7.26 -50.17,38.27 -42.89,69.24 6.24,26.56 29.89,44.46 56.02,44.46z"/>
   <path class="fil0" d="M7757.57 8165.85c4.37,0 8.79,-0.52 13.25,-1.54l2.53 -0.61c30.96,-7.29 50.18,-38.28 42.89,-69.27 -7.27,-30.97 -38.28,-50.14 -69.25,-42.89l-2.55 0.61c-30.97,7.26 -50.17,38.27 -42.89,69.24 6.24,26.56 29.89,44.46 56.02,44.46z"/>
   <path class="fil0" d="M7407.57 8165.85c4.37,0 8.79,-0.52 13.25,-1.54l2.53 -0.61c30.96,-7.29 50.18,-38.28 42.89,-69.27 -7.27,-30.97 -38.28,-50.14 -69.25,-42.89l-2.55 0.61c-30.97,7.26 -50.17,38.27 -42.89,69.24 6.24,26.56 29.89,44.46 56.02,44.46z"/>
   <path class="fil0" d="M7057.57 8165.85c4.37,0 8.79,-0.52 13.25,-1.54l2.53 -0.61c30.96,-7.29 50.18,-38.28 42.89,-69.27 -7.27,-30.97 -38.28,-50.14 -69.25,-42.89l-2.55 0.61c-30.97,7.26 -50.17,38.27 -42.89,69.24 6.24,26.56 29.89,44.46 56.02,44.46z"/>
   <path class="fil0" d="M6707.57 8165.85c4.37,0 8.79,-0.52 13.25,-1.54l2.53 -0.61c30.96,-7.29 50.18,-38.28 42.89,-69.27 -7.27,-30.97 -38.28,-50.14 -69.25,-42.89l-2.55 0.61c-30.97,7.26 -50.17,38.27 -42.89,69.24 6.24,26.56 29.89,44.46 56.02,44.46z"/>
   <path class="fil0" d="M6357.57 8165.85c4.37,0 8.79,-0.52 13.25,-1.54l2.53 -0.61c30.96,-7.29 50.18,-38.28 42.89,-69.27 -7.27,-30.97 -38.28,-50.14 -69.25,-42.89l-2.55 0.61c-30.97,7.26 -50.17,38.27 -42.89,69.24 6.24,26.56 29.89,44.46 56.02,44.46z"/>
   <path class="fil0" d="M6007.57 8165.85c4.37,0 8.79,-0.52 13.25,-1.54l2.53 -0.61c30.96,-7.29 50.18,-38.28 42.89,-69.27 -7.27,-30.97 -38.28,-50.14 -69.25,-42.89l-2.55 0.61c-30.97,7.26 -50.17,38.27 -42.89,69.24 6.24,26.56 29.89,44.46 56.02,44.46z"/>
   <path class="fil0" d="M5657.57 8165.85c4.37,0 8.79,-0.52 13.25,-1.54l2.53 -0.61c30.96,-7.29 50.18,-38.28 42.89,-69.27 -7.27,-30.97 -38.28,-50.14 -69.25,-42.89l-2.55 0.61c-30.97,7.26 -50.17,38.27 -42.89,69.24 6.24,26.56 29.89,44.46 56.02,44.46z"/>
   <path class="fil0" d="M5307.57 8165.85c4.37,0 8.79,-0.52 13.25,-1.54l2.53 -0.61c30.96,-7.29 50.18,-38.28 42.89,-69.27 -7.27,-30.97 -38.28,-50.14 -69.25,-42.89l-2.55 0.61c-30.97,7.26 -50.17,38.27 -42.89,69.24 6.24,26.56 29.89,44.46 56.02,44.46z"/>
   <path class="fil0" d="M4957.57 8165.85c4.37,0 8.79,-0.52 13.25,-1.54l2.53 -0.61c30.96,-7.29 50.18,-38.28 42.89,-69.27 -7.27,-30.97 -38.28,-50.14 -69.25,-42.89l-2.55 0.61c-30.97,7.26 -50.17,38.27 -42.89,69.24 6.24,26.56 29.89,44.46 56.02,44.46z"/>
   <path class="fil0" d="M4607.57 8165.85c4.37,0 8.79,-0.52 13.25,-1.54l2.53 -0.61c30.96,-7.29 50.18,-38.28 42.89,-69.27 -7.27,-30.97 -38.28,-50.14 -69.25,-42.89l-2.55 0.61c-30.97,7.26 -50.17,38.27 -42.89,69.24 6.24,26.56 29.89,44.46 56.02,44.46z"/>
   <path class="fil0" d="M4257.57 8165.85c4.37,0 8.79,-0.52 13.25,-1.54l2.53 -0.61c30.96,-7.29 50.18,-38.28 42.89,-69.27 -7.27,-30.97 -38.28,-50.14 -69.25,-42.89l-2.55 0.61c-30.97,7.26 -50.17,38.27 -42.89,69.24 6.24,26.56 29.89,44.46 56.02,44.46z"/>
   <path class="fil0" d="M3907.57 8165.85c4.37,0 8.79,-0.52 13.25,-1.54l2.53 -0.61c30.96,-7.29 50.18,-38.28 42.89,-69.27 -7.27,-30.97 -38.28,-50.14 -69.25,-42.89l-2.55 0.61c-30.97,7.26 -50.17,38.27 -42.89,69.24 6.24,26.56 29.89,44.46 56.02,44.46z"/>
   <path class="fil0" d="M3557.57 8165.85c4.37,0 8.79,-0.52 13.25,-1.54l2.53 -0.61c30.96,-7.29 50.18,-38.28 42.89,-69.27 -7.27,-30.97 -38.28,-50.14 -69.25,-42.89l-2.55 0.61c-30.97,7.26 -50.17,38.27 -42.89,69.24 6.24,26.56 29.89,44.46 56.02,44.46z"/>
   <path class="fil0" d="M3207.57 8165.85c4.37,0 8.79,-0.52 13.25,-1.54l2.53 -0.61c30.96,-7.29 50.18,-38.28 42.89,-69.27 -7.27,-30.97 -38.28,-50.14 -69.25,-42.89l-2.55 0.61c-30.97,7.26 -50.17,38.27 -42.89,69.24 6.24,26.56 29.89,44.46 56.02,44.46z"/>
   <path class="fil0" d="M2857.57 8165.85c4.37,0 8.79,-0.52 13.25,-1.54l2.53 -0.61c30.96,-7.29 50.18,-38.28 42.89,-69.27 -7.27,-30.97 -38.28,-50.14 -69.25,-42.89l-2.55 0.61c-30.97,7.26 -50.17,38.27 -42.89,69.24 6.24,26.56 29.89,44.46 56.02,44.46z"/>
   <path class="fil0" d="M2507.57 8165.85c4.37,0 8.79,-0.52 13.25,-1.54l2.53 -0.61c30.96,-7.29 50.18,-38.28 42.89,-69.27 -7.27,-30.97 -38.28,-50.14 -69.25,-42.89l-2.55 0.61c-30.97,7.26 -50.17,38.27 -42.89,69.24 6.24,26.56 29.89,44.46 56.02,44.46z"/>
   <path class="fil0" d="M2157.57 8165.85c4.37,0 8.79,-0.52 13.25,-1.54l2.53 -0.61c30.96,-7.29 50.18,-38.28 42.89,-69.27 -7.27,-30.97 -38.28,-50.14 -69.25,-42.89l-2.55 0.61c-30.97,7.26 -50.17,38.27 -42.89,69.24 6.24,26.56 29.89,44.46 56.02,44.46z"/>
   <path class="fil0" d="M1807.57 8165.85c4.37,0 8.79,-0.52 13.25,-1.54l2.53 -0.61c30.96,-7.29 50.18,-38.28 42.89,-69.27 -7.27,-30.97 -38.28,-50.14 -69.25,-42.89l-2.55 0.61c-30.97,7.26 -50.17,38.27 -42.89,69.24 6.24,26.56 29.89,44.46 56.02,44.46z"/>
   <path class="fil0" d="M1457.57 8165.85c4.37,0 8.79,-0.52 13.25,-1.54l2.53 -0.61c30.96,-7.29 50.18,-38.28 42.89,-69.27 -7.27,-30.97 -38.28,-50.14 -69.25,-42.89l-2.55 0.61c-30.97,7.26 -50.17,38.27 -42.89,69.24 6.24,26.56 29.89,44.46 56.02,44.46z"/>
   <path class="fil0" d="M1107.57 8165.85c4.37,0 8.79,-0.52 13.25,-1.54l2.53 -0.61c30.96,-7.29 50.18,-38.28 42.89,-69.27 -7.27,-30.97 -38.28,-50.14 -69.25,-42.89l-2.55 0.61c-30.97,7.26 -50.17,38.27 -42.89,69.24 6.24,26.56 29.89,44.46 56.02,44.46z"/>
   <path class="fil0" d="M757.57 8165.85c4.37,0 8.79,-0.52 13.25,-1.54l2.53 -0.61c30.96,-7.29 50.18,-38.28 42.89,-69.27 -7.27,-30.97 -38.28,-50.14 -69.25,-42.89l-2.55 0.61c-30.97,7.26 -50.17,38.27 -42.89,69.24 6.24,26.56 29.89,44.46 56.02,44.46z"/>
   <path class="fil0" d="M407.57 8165.85c4.37,0 8.79,-0.52 13.25,-1.54l2.53 -0.61c30.96,-7.29 50.18,-38.28 42.89,-69.27 -7.27,-30.97 -38.28,-50.14 -69.25,-42.89l-2.55 0.61c-30.97,7.26 -50.17,38.27 -42.89,69.24 6.24,26.56 29.89,44.46 56.02,44.46z"/>
   <path class="fil0" d="M57.57 8165.85c4.37,0 8.79,-0.52 13.25,-1.54l2.53 -0.61c30.96,-7.29 50.18,-38.28 42.89,-69.27 -7.27,-30.97 -38.28,-50.14 -69.25,-42.89l-2.55 0.61c-30.97,7.26 -50.17,38.27 -42.89,69.24 6.24,26.56 29.89,44.46 56.02,44.46z"/>
   <path class="fil0" d="M57.57 7815.85c4.37,0 8.79,-0.52 13.25,-1.54l2.53 -0.61c30.96,-7.29 50.18,-38.28 42.89,-69.27 -7.27,-30.97 -38.28,-50.14 -69.25,-42.89l-2.55 0.61c-30.97,7.26 -50.17,38.27 -42.89,69.24 6.24,26.56 29.89,44.46 56.02,44.46z"/>
   <path class="fil0" d="M57.57 7465.85c4.37,0 8.79,-0.52 13.25,-1.54l2.53 -0.61c30.96,-7.29 50.18,-38.28 42.89,-69.27 -7.27,-30.97 -38.28,-50.14 -69.25,-42.89l-2.55 0.61c-30.97,7.26 -50.17,38.27 -42.89,69.24 6.24,26.56 29.89,44.46 56.02,44.46z"/>
   <path class="fil0" d="M57.57 7115.85c4.37,0 8.79,-0.52 13.25,-1.54l2.53 -0.61c30.96,-7.29 50.18,-38.28 42.89,-69.27 -7.27,-30.97 -38.28,-50.14 -69.25,-42.89l-2.55 0.61c-30.97,7.26 -50.17,38.27 -42.89,69.24 6.24,26.56 29.89,44.46 56.02,44.46z"/>
   <path class="fil0" d="M57.57 6765.85c4.37,0 8.79,-0.52 13.25,-1.54l2.53 -0.61c30.96,-7.29 50.18,-38.28 42.89,-69.27 -7.27,-30.97 -38.28,-50.14 -69.25,-42.89l-2.55 0.61c-30.97,7.26 -50.17,38.27 -42.89,69.24 6.24,26.56 29.89,44.46 56.02,44.46z"/>
   <path class="fil0" d="M57.57 6415.85c4.37,0 8.79,-0.52 13.25,-1.54l2.53 -0.61c30.96,-7.29 50.18,-38.28 42.89,-69.27 -7.27,-30.97 -38.28,-50.14 -69.25,-42.89l-2.55 0.61c-30.97,7.26 -50.17,38.27 -42.89,69.24 6.24,26.56 29.89,44.46 56.02,44.46z"/>
   <path class="fil0" d="M57.57 6065.85c4.37,0 8.79,-0.52 13.25,-1.54l2.53 -0.61c30.96,-7.29 50.18,-38.28 42.89,-69.27 -7.27,-30.97 -38.28,-50.14 -69.25,-42.89l-2.55 0.61c-30.97,7.26 -50.17,38.27 -42.89,69.24 6.24,26.56 29.89,44.46 56.02,44.46z"/>
   <path class="fil0" d="M57.57 5715.85c4.37,0 8.79,-0.52 13.25,-1.54l2.53 -0.61c30.96,-7.29 50.18,-38.28 42.89,-69.27 -7.27,-30.97 -38.28,-50.14 -69.25,-42.89l-2.55 0.61c-30.97,7.26 -50.17,38.27 -42.89,69.24 6.24,26.56 29.89,44.46 56.02,44.46z"/>
   <path class="fil0" d="M57.57 5365.85c4.37,0 8.79,-0.52 13.25,-1.54l2.53 -0.61c30.96,-7.29 50.18,-38.28 42.89,-69.27 -7.27,-30.97 -38.28,-50.14 -69.25,-42.89l-2.55 0.61c-30.97,7.26 -50.17,38.27 -42.89,69.24 6.24,26.56 29.89,44.46 56.02,44.46z"/>
   <path class="fil0" d="M57.57 5015.85c4.37,0 8.79,-0.52 13.25,-1.54l2.53 -0.61c30.96,-7.29 50.18,-38.28 42.89,-69.27 -7.27,-30.97 -38.28,-50.14 -69.25,-42.89l-2.55 0.61c-30.97,7.26 -50.17,38.27 -42.89,69.24 6.24,26.56 29.89,44.46 56.02,44.46z"/>
   <path class="fil0" d="M57.57 4665.85c4.37,0 8.79,-0.52 13.25,-1.54l2.53 -0.61c30.96,-7.29 50.18,-38.28 42.89,-69.27 -7.27,-30.97 -38.28,-50.14 -69.25,-42.89l-2.55 0.61c-30.97,7.26 -50.17,38.27 -42.89,69.24 6.24,26.56 29.89,44.46 56.02,44.46z"/>
   <path class="fil0" d="M57.57 4315.85c4.37,0 8.79,-0.52 13.25,-1.54l2.53 -0.61c30.96,-7.29 50.18,-38.28 42.89,-69.27 -7.27,-30.97 -38.28,-50.14 -69.25,-42.89l-2.55 0.61c-30.97,7.26 -50.17,38.27 -42.89,69.24 6.24,26.56 29.89,44.46 56.02,44.46z"/>
   <path class="fil0" d="M57.57 3965.85c4.37,0 8.79,-0.52 13.25,-1.54l2.53 -0.61c30.96,-7.29 50.18,-38.28 42.89,-69.27 -7.27,-30.97 -38.28,-50.14 -69.25,-42.89l-2.55 0.61c-30.97,7.26 -50.17,38.27 -42.89,69.24 6.24,26.56 29.89,44.46 56.02,44.46z"/>
   <path class="fil0" d="M57.57 3615.85c4.37,0 8.79,-0.52 13.25,-1.54l2.53 -0.61c30.96,-7.29 50.18,-38.28 42.89,-69.27 -7.27,-30.97 -38.28,-50.14 -69.25,-42.89l-2.55 0.61c-30.97,7.26 -50.17,38.27 -42.89,69.24 6.24,26.56 29.89,44.46 56.02,44.46z"/>
   <path class="fil0" d="M57.57 3265.85c4.37,0 8.79,-0.52 13.25,-1.54l2.53 -0.61c30.96,-7.29 50.18,-38.28 42.89,-69.27 -7.27,-30.97 -38.28,-50.14 -69.25,-42.89l-2.55 0.61c-30.97,7.26 -50.17,38.27 -42.89,69.24 6.24,26.56 29.89,44.46 56.02,44.46z"/>
   <path class="fil0" d="M57.57 2915.85c4.37,0 8.79,-0.52 13.25,-1.54l2.53 -0.61c30.96,-7.29 50.18,-38.28 42.89,-69.27 -7.27,-30.97 -38.28,-50.14 -69.25,-42.89l-2.55 0.61c-30.97,7.26 -50.17,38.27 -42.89,69.24 6.24,26.56 29.89,44.46 56.02,44.46z"/>
   <path class="fil0" d="M57.57 2565.85c4.37,0 8.79,-0.52 13.25,-1.54l2.53 -0.61c30.96,-7.29 50.18,-38.28 42.89,-69.27 -7.27,-30.97 -38.28,-50.14 -69.25,-42.89l-2.55 0.61c-30.97,7.26 -50.17,38.27 -42.89,69.24 6.24,26.56 29.89,44.46 56.02,44.46z"/>
   <path class="fil0" d="M57.57 2215.85c4.37,0 8.79,-0.52 13.25,-1.54l2.53 -0.61c30.96,-7.29 50.18,-38.28 42.89,-69.27 -7.27,-30.97 -38.28,-50.14 -69.25,-42.89l-2.55 0.61c-30.97,7.26 -50.17,38.27 -42.89,69.24 6.24,26.56 29.89,44.46 56.02,44.46z"/>
   <path class="fil0" d="M57.57 1865.85c4.37,0 8.79,-0.52 13.25,-1.54l2.53 -0.61c30.96,-7.29 50.18,-38.28 42.89,-69.27 -7.27,-30.97 -38.28,-50.14 -69.25,-42.89l-2.55 0.61c-30.97,7.26 -50.17,38.27 -42.89,69.24 6.24,26.56 29.89,44.46 56.02,44.46z"/>
   <path class="fil0" d="M57.57 1515.85c4.37,0 8.79,-0.52 13.25,-1.54l2.53 -0.61c30.96,-7.29 50.18,-38.28 42.89,-69.27 -7.27,-30.97 -38.28,-50.14 -69.25,-42.89l-2.55 0.61c-30.97,7.26 -50.17,38.27 -42.89,69.24 6.24,26.56 29.89,44.46 56.02,44.46z"/>
   <path class="fil0" d="M57.57 1165.85c4.37,0 8.79,-0.52 13.25,-1.54l2.53 -0.61c30.96,-7.29 50.18,-38.28 42.89,-69.27 -7.27,-30.97 -38.28,-50.14 -69.25,-42.89l-2.55 0.61c-30.97,7.26 -50.17,38.27 -42.89,69.24 6.24,26.56 29.89,44.46 56.02,44.46z"/>
   <path class="fil0" d="M57.57 815.85c4.37,0 8.79,-0.52 13.25,-1.54l2.53 -0.61c30.96,-7.29 50.18,-38.28 42.89,-69.27 -7.27,-30.97 -38.28,-50.14 -69.25,-42.89l-2.55 0.61c-30.97,7.26 -50.17,38.27 -42.89,69.24 6.24,26.56 29.89,44.46 56.02,44.46z"/>
   <path class="fil0" d="M57.57 465.85c4.37,0 8.79,-0.52 13.25,-1.54l2.53 -0.61c30.96,-7.29 50.18,-38.28 42.89,-69.27 -7.27,-30.97 -38.28,-50.14 -69.25,-42.89l-2.55 0.61c-30.97,7.26 -50.17,38.27 -42.89,69.24 6.24,26.56 29.89,44.46 56.02,44.46z"/>
  </g>
  <polygon class="fil1" points="6849.08,4980.37 6849.08,2353.39 6611.84,2353.39 6611.84,2112.15 7099.08,2112.15 7099.08,4980.37 "/>
  <path class="fil1" d="M1683.9 5704.79l0 -3592.64 550.08 0 0 241.24 -300.08 0 0 3100.51 4174.56 0 0 250.89 -983.43 0 0 472.9 968.74 0 0 250 -3404.56 0 0 -250 968.74 0 0 -472.9 -1974.05 0zm3191.13 472.9l0 -472.9 -967.08 0 0 472.9 967.08 0z"/>
  <polygon class="fil2" points="6178.2,4622.7 3235.46,4622.7 3235.46,4122.7 6178.2,4122.7 "/>
  <path class="fil1" d="M3235.46 2521.31l1389.47 0 0 1422.89 -1389.47 0 0 -1422.89zm1289.47 100l0 809.46 -296.03 -314.71c-9.04,-9.6 -21.01,-15.73 -33.81,-17.54 -4.27,-0.63 -8.64,-0.76 -13.02,-0.39 -17.52,1.48 -33.41,10.9 -43.14,25.56l-260.82 393.07 -207.83 -148.81c-24.15,-17.28 -57.51,-13.38 -77.02,9.04l-259 297.62 0 -1053.3 1190.67 0z"/>
  <path class="fil3" d="M3688.19 3230.14c117.29,0 212.73,-95.43 212.73,-212.73 0,-117.29 -95.44,-212.73 -212.73,-212.73 -117.29,0 -212.73,95.44 -212.73,212.73 0,117.3 95.44,212.73 212.73,212.73z"/>
  <path class="fil0" d="M3301.02 2096.21c4.37,0 8.79,-0.52 13.25,-1.54l2.53 -0.61c30.96,-7.29 50.18,-38.28 42.89,-69.27 -7.27,-30.97 -38.28,-50.14 -69.25,-42.89l-2.55 0.61c-30.97,7.26 -50.17,38.27 -42.89,69.24 6.24,26.56 29.89,44.46 56.02,44.46z"/>
  <path class="fil0" d="M3536.6 2096.21c4.37,0 8.79,-0.52 13.25,-1.54l2.53 -0.61c30.96,-7.29 50.18,-38.28 42.89,-69.27 -7.27,-30.97 -38.28,-50.14 -69.25,-42.89l-2.55 0.61c-30.97,7.26 -50.17,38.27 -42.89,69.24 6.24,26.56 29.89,44.46 56.02,44.46z"/>
  <path class="fil0" d="M3772.18 2096.21c4.37,0 8.79,-0.52 13.25,-1.54l2.53 -0.61c30.96,-7.29 50.18,-38.28 42.89,-69.27 -7.27,-30.97 -38.28,-50.14 -69.25,-42.89l-2.55 0.61c-30.97,7.26 -50.17,38.27 -42.89,69.24 6.24,26.56 29.89,44.46 56.02,44.46z"/>
  <polygon class="fil0" points="3235.46,2338.68 6178.2,2338.68 6178.2,2238.69 3235.46,2238.69 "/>
  <polygon class="fil4" points="2674.88,1592.62 5617.62,1592.62 5617.62,1492.63 2674.88,1492.63 "/>
  <polygon class="fil0" points="3235.46,4222.69 6178.2,4222.69 6178.2,4122.7 3235.46,4122.7 "/>
  <polygon class="fil0" points="3235.46,4422.69 6178.2,4422.69 6178.2,4322.7 3235.46,4322.7 "/>
  <polygon class="fil0" points="3235.46,4622.69 5960.41,4622.69 5960.41,4522.7 3235.46,4522.7 "/>
  <polygon class="fil2" points="6178.2,3248.31 4795.13,3248.31 4795.13,2521.31 6178.2,2521.31 "/>
  <path class="fil0" d="M6117.98 4630.62c4.37,0 8.79,-0.52 13.25,-1.54l2.53 -0.61c30.96,-7.29 50.18,-38.28 42.89,-69.27 -7.27,-30.97 -38.28,-50.14 -69.25,-42.89l-2.55 0.61c-30.97,7.26 -50.17,38.27 -42.89,69.24 6.24,26.56 29.89,44.46 56.02,44.46z"/>
  <polygon class="fil0" points="4795.13,3448.3 6178.2,3448.3 6178.2,3348.31 4795.13,3348.31 "/>
  <polygon class="fil0" points="4795.13,3698.3 5661.65,3698.3 5661.65,3598.31 4795.13,3598.31 "/>
  <polygon class="fil0" points="4795.13,3948.3 5363.5,3948.3 5363.5,3848.31 4795.13,3848.31 "/>
  <path class="fil0" d="M3088.47 4061.26l7.77 6.1c2.79,2.2 5.73,4.11 8.78,5.74l-16.55 -11.84z"/>
  <polygon class="fil5" points="2666.88,1738.15 3002.97,1738.15 3002.97,1836.08 2818.81,1836.08 3002.97,2020.24 3002.97,2161.65 2766.28,1924.96 2766.28,2147.76 2766.28,2889.38 2766.28,2974.23 3002.97,2737.54 3002.97,2878.95 2818.81,3063.11 3002.97,3063.11 3002.97,3161.04 2666.88,3161.04 "/>
  <path class="fil4" d="M2732.44 1348.94c4.37,0 8.79,-0.52 13.25,-1.54l2.53 -0.61c30.96,-7.29 50.18,-38.28 42.89,-69.27 -7.27,-30.97 -38.28,-50.14 -69.25,-42.89l-2.55 0.61c-30.97,7.26 -50.17,38.27 -42.89,69.24 6.24,26.56 29.89,44.46 56.02,44.46z"/>
  <path class="fil4" d="M2968.02 1348.94c4.37,0 8.79,-0.52 13.25,-1.54l2.53 -0.61c30.96,-7.29 50.18,-38.28 42.89,-69.27 -7.27,-30.97 -38.28,-50.14 -69.25,-42.89l-2.55 0.61c-30.97,7.26 -50.17,38.27 -42.89,69.24 6.24,26.56 29.89,44.46 56.02,44.46z"/>
  <path class="fil4" d="M3203.6 1348.94c4.37,0 8.79,-0.52 13.25,-1.54l2.53 -0.61c30.96,-7.29 50.18,-38.28 42.89,-69.27 -7.27,-30.97 -38.28,-50.14 -69.25,-42.89l-2.55 0.61c-30.97,7.26 -50.17,38.27 -42.89,69.24 6.24,26.56 29.89,44.46 56.02,44.46z"/>
  <path class="fil4" d="M2666.88 3475.43l336.09 0 0 -100 -336.09 0 0 100zm0 400l336.09 0 0 -100 -336.09 0 0 100zm0 -200l336.09 0 0 -100 -336.09 0 0 100z"/>
  <polygon class="fil5" points="2433.65,990.88 5842.86,990.88 5842.86,1392.16 5743.37,1392.16 5743.37,1090.37 2533.14,1090.37 2533.14,4033.11 2802.65,4033.11 2802.65,4132.6 2433.65,4132.6 "/>
  <path class="fil1" d="M3002.23 1738.15l3409.21 0 0 3141.72 -3409.21 0 0 -3141.72zm99.49 99.49l3210.23 0 0 2942.74 -3210.23 0 0 -2942.74z"/>
  <path class="fil3" d="M6814.65 6118.6c117.29,0 212.73,-95.43 212.73,-212.73 0,-117.29 -95.44,-212.73 -212.73,-212.73 -117.29,0 -212.73,95.44 -212.73,212.73 0,117.3 95.44,212.73 212.73,212.73z"/>
  <path class="fil1" d="M6305.69 5177.69l1345.39 0 0 2250.98 -1345.39 0 0 -2250.98zm100 1384.67l254.29 -299.84c18.48,-22.42 50.07,-26.32 72.94,-9.04l196.8 148.81 246.99 -393.07c9.21,-14.66 24.26,-24.08 40.85,-25.56 4.15,-0.37 8.29,-0.24 12.33,0.39 12.12,1.81 23.46,7.94 32.02,17.54l289.17 304.79 0 -828.69 -1145.39 0 0 1084.67zm1145.39 272.36l-1145.39 -2.51 0 96.46 1145.39 0 0 -93.95zm-572.7 491.07c68.96,0 125.07,-56.11 125.07,-125.07 0,-68.96 -56.11,-125.07 -125.07,-125.07 -68.96,0 -125.07,56.11 -125.07,125.07 0,68.96 56.11,125.07 125.07,125.07zm-259.92 -2043.9l284.26 0 0 100 -284.26 0 0 -100zm459.62 107.93c4.37,0 8.79,-0.52 13.25,-1.54l2.53 -0.61c30.96,-7.29 50.18,-38.28 42.89,-69.27 -7.27,-30.97 -38.28,-50.14 -69.25,-42.89l-2.55 0.61c-30.97,7.26 -50.17,38.27 -42.89,69.24 6.24,26.56 29.89,44.46 56.02,44.46z"/>
 </g>
</svg>
