<svg class="design-svg" xmlns="http://www.w3.org/2000/svg" width="100%" height="100%" style="shape-rendering:geometricPrecision; text-rendering:geometricPrecision; image-rendering:optimizeQuality; fill-rule:evenodd; clip-rule:evenodd" viewBox="0 0 15477.76 19551.92" xmlns:xlink="http://www.w3.org/1999/xlink">
<defs>
<style>
.design-svg .fil0 {fill:#211F1F}
.design-svg .fil2 {fill:#FBBA00}
.design-svg .fil1 {fill:#FBBA00;fill-rule:nonzero}
</style>
</defs>
<path class="fil0" d="M8153.65 0l7323.69 0 0 8785.33 -7323.69 0 0 -8785.33zm-3567.67 19551.92l538.06 0 8979.29 0 1046.6 -348.75c195.99,-65.71 327.83,-248.6 327.83,-455.24 0,-206.64 -131.84,-389.53 -328.02,-455.24l-1046.41 -348.75 -9278.49 0 -1206.89 0 -401.98 0 -616.98 0 -1795 0c-443.41,0 -803.99,360.59 -803.99,803.99 0,443.41 360.59,803.99 803.99,803.99l237.99 0 566.01 0 2411.95 0 566.05 0 -0.01 0zm-4183.97 -804c0,-221.72 180.26,-402.02 401.98,-402.02l803.99 0 0 803.99 -803.99 0c-221.72,0 -401.98,-180.26 -401.98,-401.98l0 0.01zm-402.01 -18747.88l7323.73 0 0 7499.9 -7323.73 0 0 -7499.9zm6911.17 412.55l0 4381.1 -1674.88 -1658.77c-47.65,-50.63 -110.73,-82.93 -178.19,-92.48 -22.53,-3.32 -45.55,-4.01 -68.65,-2.06 -92.32,7.83 -176.09,57.46 -227.37,134.74l-1374.77 2071.82 -1095.44 -784.37c-127.3,-91.06 -303.13,-70.52 -405.95,47.65l-1479.7 1568.74 0 -5666.37 6504.96 0 -0.01 0zm1242.48 9202.24l7323.69 0 0 7499.94 -7323.69 0 0 -7499.94zm6911.18 412.6c0,2148.57 0,4526.19 0,6674.75l-6504.92 0c0,-2148.57 0,-4526.19 0,-6674.75l6504.92 0zm-15064.83 -1697.99l7323.69 0 0 8785.33 -7323.69 0 0 -8785.33zm1252.9 1533.8l2598.73 0 0 -381.78 -2598.73 0 0 381.78zm0 763.56l3175.89 0 0 -381.78 -3175.89 0 0 381.78zm0 754.59l4034.6 0 0 -381.78 -4034.6 0 0 381.78zm0 763.56l4817.93 0 0 -381.78 -4817.93 0 0 381.78zm0 763.56l4817.93 0 0 -381.78 -4817.93 0 0 381.78zm0 763.56l4817.93 0 0 -381.78 -4817.93 0 0 381.78zm4817.93 1908.9l-2598.73 0 0 381.78 2598.73 0 0 -381.78zm0 -763.56l-3175.89 0 0 381.78 3175.89 0 0 -381.78zm0 -754.59l-4034.6 0 0 381.78 4034.6 0 0 -381.78zm840.34 -5320.79c0,3445.57 0,4514.62 0,7960.15l-6504.92 0 0 -7960.15 6504.92 0zm2495.38 -7208.23l2598.73 0 0 -381.78 -2598.73 0 0 381.78zm0 763.56l3175.89 0 0 -381.78 -3175.89 0 0 381.78zm0 754.59l4034.6 0 0 -381.78 -4034.6 0 0 381.78zm0 763.56l4817.93 0 0 -381.78 -4817.93 0 0 381.78zm0 763.56l4817.93 0 0 -381.78 -4817.93 0 0 381.78zm0 763.56l4817.93 0 0 -381.78 -4817.93 0 0 381.78zm4817.93 1908.9l-2598.73 0 0 381.78 2598.73 0 0 -381.78zm0 -763.56l-3175.89 0 0 381.78 3175.89 0 0 -381.78zm0 -754.59l-4034.6 0 0 381.78 4034.6 0 0 -381.78zm840.35 -5320.79c0,3445.57 0,4514.62 0,7960.15l-6504.92 0 0 -7960.15 6504.92 0z"/>
<path class="fil1" d="M2386.29 3736.21c618.2,0 1121.25,-503.01 1121.25,-1121.29 0,-618.2 -503.05,-1121.25 -1121.25,-1121.25 -618.24,0 -1121.29,503.05 -1121.29,1121.25 0,618.28 503.05,1121.29 1121.29,1121.29z"/>
<path class="fil2" d="M9574.05 15816.97l0 -4904.3 1346.94 0 0 1865.03 1492.03 -1865.03 1519.64 0 -1782.14 2196.56 1906.46 2707.74 -1547.28 0 -1215.71 -1802.87 -373 386.82 0 1416.05 -1346.94 0zm4295.72 3332.93l-11859.81 0 0 -803.99 11859.81 0 0 803.99z"/>
</svg>
