<svg xmlns="http://www.w3.org/2000/svg" width="100%" height="100%" style="shape-rendering:geometricPrecision; text-rendering:geometricPrecision; image-rendering:optimizeQuality; fill-rule:evenodd; clip-rule:evenodd" viewBox="0 0 20676.18 19551.93" xmlns:xlink="http://www.w3.org/1999/xlink">
<defs>
<style>
.fil3 {fill:#211F1F}
.fil2 {fill:#FBBA00}
.fil1 {fill:#211F1F;fill-rule:nonzero}
.fil0 {fill:#B2B3B3;fill-rule:nonzero}
</style>
</defs>
<path class="fil0" d="M3634.61 9486.48l1283.25 0 0 -381.82 -1283.25 0 0 381.82zm2049.3 -8119.33c16.69,0 33.56,-1.99 50.59,-5.88l9.66 -2.33c118.21,-27.83 191.6,-146.16 163.76,-264.49 -27.76,-118.25 -146.16,-191.44 -264.41,-163.76l-9.74 2.33c-118.25,27.72 -191.56,146.12 -163.76,264.37 23.83,101.41 114.13,169.76 213.89,169.76l0.01 0zm-899.49 0c16.69,0 33.56,-1.99 50.59,-5.88l9.66 -2.33c118.21,-27.83 191.6,-146.16 163.76,-264.49 -27.76,-118.25 -146.16,-191.44 -264.41,-163.76l-9.74 2.33c-118.25,27.72 -191.56,146.12 -163.76,264.37 23.83,101.41 114.13,169.76 213.89,169.76l0.01 0zm-899.49 0c16.69,0 33.56,-1.99 50.59,-5.88l9.66 -2.33c118.21,-27.83 191.6,-146.16 163.76,-264.49 -27.76,-118.25 -146.16,-191.44 -264.41,-163.76l-9.74 2.33c-118.25,27.72 -191.56,146.12 -163.76,264.37 23.83,101.41 114.13,169.76 213.89,169.76l0.01 0zm-219.77 930.41l11235.95 0 0 -381.78 -11235.95 0 0 381.78zm-921.06 -2297.55l13017.02 0 0 1532.16 -379.87 0 0 -1152.29 -12257.28 0 0 11235.95 1029.04 0 0 379.87 -1408.91 0 0 -11995.7 0 0.01zm890.51 2853.21l1283.25 0 0 373.91 -703.16 0 703.16 703.16 0 539.93 -903.73 -903.73 0 850.69 0 2831.64 0 323.97 903.73 -903.73 0 539.93 -703.16 703.16 703.16 0 0 373.91 -1283.25 0 0 -5432.85 0 0.01zm0 8160.53l1283.25 0 0 -381.82 -1283.25 0 0 381.82zm0 -763.64l1283.25 0 0 -381.82 -1283.25 0 0 381.82z"/>
<path class="fil1" d="M5244.32 11723.32l29.67 23.25c10.65,8.44 21.88,15.69 33.52,21.95l-63.19 -45.21 0 0.01z"/>
<path class="fil2" d="M5294.91 6318l12257.28 0 0 5066.15 -12257.28 0 0 -5066.15zm2615.57 6201.83l-2104.96 0 0 -381.82 2104.96 0 0 381.82zm9131.07 0l-381.82 0 0 -381.82 381.82 0 0 381.82zm0 763.64l-3866.37 0 0 -381.82 3866.37 0 0 381.82zm-5011.82 0l-381.82 0 0 -381.82 381.82 0 0 381.82zm-5663.32 763.63l-560.85 0 0 -381.82 560.85 0 0 381.82zm7603.6 0l-1558.47 0 0 -381.82 1558.47 0 0 381.82zm-5093 -8429.93l1558.51 0 0 -381.82 -1558.51 0 0 381.82zm7603.61 0l560.85 0 0 -381.82 -560.85 0 0 381.82zm-5663.28 -763.64l381.82 0 0 -381.82 -381.82 0 0 381.82zm-5011.82 0l3866.37 0 0 -381.82 -3866.37 0 0 381.82zm0 -763.63l381.82 0 0 -381.82 -381.82 0 0 381.82zm9131.06 0l2104.96 0 0 -381.82 -2104.96 0 0 381.82z"/>
<path class="fil3" d="M19721.64 15833.82l0 -11838.35 -905.83 0 0 -921.1 1860.37 0 0 12759.45 0 957.94 -954.55 0 -6582.74 0 0 1805.62 3698.83 0 0 954.55 -12999.27 0 0 -954.55 3698.83 0 0 -1805.62 -7537.28 0 0 0 0 -13717.39 2100.31 0 0 921.1 -1145.76 0 0 11838.35 18767.09 0zm-14806.6 -12980.6l13017.02 0 0 11995.7 -13017.02 0 0 -11995.7zm3759.19 9666.61l-381.82 0 0 -381.82 381.82 0 0 381.82zm2592.89 0l-2211.07 0 0 -381.82 2211.07 0 0 381.82zm1526.2 0l-1144.35 0 0 -381.82 1144.35 0 0 381.82zm763.68 0l-381.82 0 0 -381.82 381.82 0 0 381.82zm2720.8 0l-2338.98 0 0 -381.82 2338.98 0 0 381.82zm-8367.32 763.64l-2104.89 0 0 -381.82 2104.89 0 0 381.82zm763.75 0l-381.82 0 0 -381.82 381.82 0 0 381.82zm2591.74 0l-2209.93 0 0 -381.82 2209.93 0 0 381.82zm1527.39 0l-381.82 0 0 -381.82 381.82 0 0 381.82zm4248.19 763.63l-1926.01 0 0 -381.82 1926.01 0 0 381.82zm-2307.83 0l-381.82 0 0 -381.82 381.82 0 0 381.82zm-2703.99 0l-381.82 0 0 -381.82 381.82 0 0 381.82zm-763.76 0l-2209.93 0 0 -381.82 2209.93 0 0 381.82zm-2591.74 0l-1925.97 0 0 -381.82 1925.97 0 0 381.82zm-2104.96 -9957.2l2338.98 0 0 -381.82 -2338.98 0 0 381.82zm2720.8 0l381.82 0 0 -381.82 -381.82 0 0 381.82zm763.67 0l1144.35 0 0 -381.82 -1144.35 0 0 381.82zm1526.2 0l2211.07 0 0 -381.82 -2211.07 0 0 381.82zm2592.89 0l381.82 0 0 -381.82 -381.82 0 0 381.82zm763.75 763.63l2104.89 0 0 -381.82 -2104.89 0 0 381.82zm-763.75 0l381.82 0 0 -381.82 -381.82 0 0 381.82zm-2591.74 0l2209.93 0 0 -381.82 -2209.93 0 0 381.82zm-1527.39 0l381.82 0 0 -381.82 -381.82 0 0 381.82zm-4248.18 763.64l1926.01 0 0 -381.82 -1926.01 0 0 381.82zm2307.82 0l381.82 0 0 -381.82 -381.82 0 0 381.82zm2704 0l381.82 0 0 -381.82 -381.82 0 0 381.82zm763.75 0l2209.93 0 0 -381.82 -2209.93 0 0 381.82zm2591.74 0l1925.97 0 0 -381.82 -1925.97 0 0 381.82zm-3219.07 5093.11l1305.93 -3587.83 -358.79 -130.62 -1305.93 3587.83 358.79 130.62zm3482.3 -1859.26l-1402.38 1402.53 -269.91 -269.91 1132.47 -1132.63 -1132.51 -1132.51 269.91 -269.91 1132.51 1132.51 269.91 269.91 0 0.01zm-6025.05 0l1402.38 1402.53 269.91 -269.91 -1132.47 -1132.63 1132.51 -1132.51 -269.91 -269.91 -1132.51 1132.51 -269.91 269.91 0 0.01zm-3116.1 -5617.92l12257.28 0 0 11235.95 -12257.28 0 0 -11235.95zm6889.45 15364.28l0 -1805.62 -3692.53 0 0 1805.62 3692.53 0z"/>
</svg>
