<svg xmlns="http://www.w3.org/2000/svg" width="100%" height="100%" style="shape-rendering:geometricPrecision; text-rendering:geometricPrecision; image-rendering:optimizeQuality; fill-rule:evenodd; clip-rule:evenodd" viewBox="0 0 20097.48 19551.93" xmlns:xlink="http://www.w3.org/1999/xlink">
<defs>
<style>
.fil0 {fill:#211F1F;fill-rule:nonzero}
.fil1 {fill:#FBBA00;fill-rule:nonzero}
</style>
</defs>
<path class="fil0" d="M10707.52 6689.36l828.01 1678.43 1851.32 269.07c389.19,55.36 659.82,415.8 604.46,804.99 -24.63,173.04 -109.58,322.6 -230.5,430.54l-1317.85 1284.44 316.68 1846.63c66.13,387.66 -194.5,755.58 -582.16,821.71 -170.98,29.17 -338.06,-5.27 -477.16,-86.06l-1630.67 -857.26 -1656.71 870.89c-347.65,183.04 -777.92,49.6 -960.96,-298.05 -75.83,-144.02 -97.29,-302.21 -71.78,-451.12l-0.65 -0.11 316.72 -1846.66 -1339.3 -1305.47c-281.51,-273.8 -287.7,-724.04 -13.9,-1005.56 114.16,-117.41 259.06,-186.86 409.58,-208.17l-0.11 -0.73 1851.28 -269.03 827.97 -1678.47c173.84,-352.27 600.37,-496.94 952.64,-323.09 146.01,72.05 256.28,187.51 323.09,323.09l0 -0.01zm-7994.78 7322.97c-15.54,-49.9 -56.66,-86.18 -106.18,-93.7l-386.59 -58.8 -172.31 -366.39c-38.41,-68.19 -122.37,-90.91 -187.59,-50.82 -20.12,12.41 -36.77,29.86 -48.61,50.82l-173.15 366.39 -386.48 58.8c-71.9,10.81 -121.88,80.72 -111.49,155.97 4.16,30.09 17.6,57.73 38.33,78.96l279.45 285.18 -65.75 402.67c-12.6,74.91 35.2,146.39 106.68,159.64 28.9,5.27 58.61,0.38 84.46,-13.9l345.66 -190.68 345.58 190.15c64.37,35.39 144.1,9.55 177.93,-57.88 13.44,-26.77 18.1,-57.43 13.17,-87.32l-65.86 -402.67 279.68 -285.18c35.81,-36.62 48.64,-91.41 33.07,-141.23l0 -0.01zm343.68 -1810.24c-218.59,0 -396.86,178.27 -396.86,396.86 0,218.59 178.27,396.86 396.86,396.86 218.55,0 396.82,-178.27 396.82,-396.86 0,-218.59 -178.27,-396.86 -396.82,-396.86zm985.85 -263.72c-133.71,54.45 -218.44,214.77 -164.03,348.64 54.45,133.67 186.98,223.71 326.15,197.13l27.8 -5.35 2916.06 -1024.61 -444.09 -432.91 -2661.88 917.09 -0.01 0.01zm3018.39 221.26l-4170.91 3402c-123.14,110.08 -146.85,287.66 -36.77,410.8 71.59,72.81 165.75,112.48 277.01,91.25 55.59,-10.73 83.43,-16.04 133.79,-54.49l3646.82 -2974.59 150.05 -874.97 0.01 0zm-6355.78 -1688.02l5467.87 31.73 -596.25 -581.13 -4866.73 -28.25c-144.4,-1.26 -295.37,114.16 -291.25,286.36 0.5,21.53 2.67,42.34 6.41,62.2 26.19,138.87 129.28,232.64 279.95,229.09zm4508.93 6837.15l-394.38 652.22c-89.96,132.57 -30.24,294.11 102.29,384.11 66.32,45.02 127.34,62.24 210.76,46.2 83.47,-16 133.71,-54.45 178.73,-120.65l394.38 -652.22c89.99,-132.57 30.24,-294.15 -102.33,-384.19 -137.91,-117.75 -299.5,-58.04 -389.45,74.53zm3560.18 -1247.25c129.13,263.8 146.66,317.18 -69.61,436.76 -592.28,327.52 -569.41,750.58 -474.52,928.47 5.73,10.77 12.33,20.62 19.74,29.82 55.52,68.8 153.72,90.76 234.59,47.73 91.6,-48.91 126.34,-162.73 77.43,-254.41 -0.92,-1.83 -81.75,-197.78 324.74,-422.52 536.11,-296.6 341.54,-693.8 225.23,-931.25 -129.44,-264.26 -181.9,-400.11 37.72,-596.67 77.36,-69.26 84.34,-187.78 14.7,-265.44 -69.3,-77.36 -188.12,-83.96 -265.44,-14.66 -441.53,395.14 -250.78,784.48 -124.59,1042.17l0.01 0zm1600.59 -2405.84l729.96 4138.87c31.92,166.89 164.49,256.89 331.38,224.97 166.93,-31.92 256.96,-164.49 225.01,-331.38l-645.12 -3695.35 -641.23 -337.11zm1265.26 5102.58c-218.59,0 -396.86,178.23 -396.86,396.82 0,218.59 178.27,396.86 396.86,396.86 218.55,0 396.82,-178.27 396.82,-396.86 0,-218.59 -178.27,-396.82 -396.82,-396.82zm1359.93 -2084.95c0,128.21 103.93,232.15 232.15,232.15 128.25,0 232.22,-103.93 232.22,-232.15l0 -232.18c0,-128.21 -103.97,-232.15 -232.22,-232.15 -128.21,0 -232.15,103.93 -232.15,232.15l0 232.18zm232.14 -1625.25c-128.21,0 -232.15,103.97 -232.15,232.22l0 232.15c0,128.21 103.93,232.18 232.15,232.18 128.25,0 232.22,-103.97 232.22,-232.18l0 -232.15c0,-128.25 -103.97,-232.22 -232.22,-232.22zm696.55 696.55l-232.18 0c-128.25,0 -232.15,103.97 -232.15,232.15 0,128.25 103.89,232.22 232.15,232.22l232.18 0c128.18,0 232.15,-103.97 232.15,-232.22 0,-128.18 -103.97,-232.15 -232.15,-232.15zm-1160.88 0l-232.15 0c-128.25,0 -232.22,103.97 -232.22,232.15 0,128.25 103.97,232.22 232.22,232.22l232.15 0c128.21,0 232.18,-103.97 232.18,-232.22 0,-128.18 -103.97,-232.15 -232.18,-232.15zm585.33 -1984.88l3233.54 2700.14c66.21,44.98 160.33,84.65 243.75,68.69 55.67,-10.65 105.99,-49.06 156.32,-87.59 90.03,-132.53 85.91,-304.77 -46.66,-394.76l-3732.43 -3134.88 145.47 848.4 0.01 0zm6738.06 89.95c-15.54,-49.9 -56.66,-86.18 -106.22,-93.7l-386.55 -58.8 -172.31 -366.39c-38.45,-68.19 -122.37,-90.91 -187.63,-50.82 -20.08,12.41 -36.73,29.9 -48.57,50.82l-173.19 366.39 -386.44 58.8c-71.9,10.81 -121.88,80.75 -111.49,155.97 4.16,30.09 17.56,57.73 38.33,78.96l279.45 285.18 -65.79 402.7c-12.6,74.87 35.2,146.35 106.72,159.6 28.87,5.27 58.61,0.38 84.42,-13.9l345.7 -190.68 345.58 190.15c64.34,35.39 144.06,9.58 177.93,-57.88 13.44,-26.77 18.1,-57.43 13.17,-87.28l-65.86 -402.7 279.68 -285.18c35.81,-36.62 48.61,-91.41 33.07,-141.23l0 -0.01zm-2679.37 -1065.88l-4215.27 -1529.79 -234.05 228.02 55.44 323.02 4150.55 1515.51c60.94,17.22 88.73,11.91 144.4,1.3 83.5,-16 184.07,-92.93 223.78,-187.01 89.99,-132.61 30.24,-294.15 -124.85,-351.04l0 -0.01zm-2690.64 -3043.13c-218.63,0 -396.86,178.27 -396.86,396.86 0,218.59 178.23,396.82 396.86,396.82 218.55,0 396.79,-178.23 396.79,-396.82 0,-218.59 -178.23,-396.86 -396.79,-396.86zm2176.9 848.17c244.02,-163.3 294.73,-187.85 442.11,10.5 403.89,543.14 820.07,463.72 983.68,345.89 9.85,-7.1 18.82,-14.97 26.88,-23.52 60.79,-64.22 69.38,-164.53 15.85,-238.87 -60.71,-84.27 -178.16,-103.4 -262.42,-42.73 -1.72,1.18 -184.99,107.56 -462.15,-265.17 -365.71,-491.67 -733.4,-245.55 -953.06,-98.59 -244.59,163.72 -372.12,233.9 -596.36,42.61 -79.04,-67.43 -197.4,-58.49 -265.02,20.92 -67.43,79 -58.04,197.67 20.96,265.1 450.7,384.61 811.06,143.45 1049.54,-16.15l-0.01 0.01zm-799.98 -1923.18c0,128.21 103.93,232.15 232.15,232.15 128.21,0 232.22,-103.93 232.22,-232.15l0 -232.18c0,-128.21 -104.01,-232.15 -232.22,-232.15 -128.21,0 -232.15,103.93 -232.15,232.15l0 232.18zm232.14 -1625.24c-128.21,0 -232.15,103.97 -232.15,232.22l0 232.15c0,128.21 103.93,232.18 232.15,232.18 128.21,0 232.22,-103.97 232.22,-232.18l0 -232.15c0,-128.25 -104.01,-232.22 -232.22,-232.22zm696.55 696.55l-232.18 0c-128.25,0 -232.15,103.93 -232.15,232.15 0,128.25 103.89,232.22 232.15,232.22l232.18 0c128.14,0 232.15,-103.97 232.15,-232.22 0,-128.21 -104.01,-232.15 -232.15,-232.15zm-1160.88 0l-232.15 0c-128.25,0 -232.26,103.93 -232.26,232.15 0,128.25 104.01,232.22 232.26,232.22l232.15 0c128.18,0 232.18,-103.97 232.18,-232.22 0,-128.21 -104.01,-232.15 -232.18,-232.15zm-3118.42 474.44l4226.12 -3447.09c123.17,-110.08 146.89,-287.66 36.77,-410.8 -110,-123.1 -287.51,-146.81 -410.76,-36.73l-4635.27 3780.76 783.15 113.86 -0.01 0zm-1078.75 -510.98l2419.7 -3999.13c89.99,-132.57 30.24,-294.15 -102.33,-384.15 -132.57,-90.03 -294.19,-30.2 -384.22,102.33l-2228.21 3682.83 295.07 598.12 -0.01 0zm2962.41 -5850.57c-218.59,0 -396.82,178.23 -396.82,396.82 0,218.59 178.23,396.86 396.82,396.86 218.59,0 396.82,-178.27 396.82,-396.86 0,-218.59 -178.23,-396.82 -396.82,-396.82zm-3768.12 2599.08c-144.63,-263.26 -165.25,-316.95 44.56,-447.61 574.75,-357.99 527.41,-787.84 422.06,-965.01 -6.34,-10.73 -13.55,-20.5 -21.5,-29.51 -59.6,-67.77 -159.22,-86.02 -237.87,-38.87 -88.93,53.61 -117.22,170.9 -62.89,262.19 0.99,1.79 93.32,198.05 -301.18,443.63 -520.15,324.16 -302.21,720.61 -172.01,957.52 144.98,263.72 205.38,399.84 -3.4,609.08 -73.54,73.73 -73.73,194.65 0.53,270.9 73.96,75.91 193.43,77.66 266.93,3.97 419.66,-420.69 206.11,-809.15 64.76,-1066.3l0.01 0.01zm1512.3 -3859.42c-15.54,-49.9 -56.66,-86.18 -106.18,-93.7l-386.59 -58.8 -172.28 -366.39c-38.45,-68.19 -122.41,-90.91 -187.63,-50.82 -20.12,12.41 -36.77,29.9 -48.61,50.82l-173.15 366.39 -386.48 58.8c-71.9,10.81 -121.88,80.75 -111.49,155.97 4.16,30.09 17.6,57.77 38.33,78.96l279.49 285.18 -65.79 402.7c-12.6,74.87 35.2,146.35 106.72,159.6 28.87,5.31 58.57,0.38 84.42,-13.9l345.7 -190.68 345.55 190.15c64.37,35.39 144.1,9.58 177.97,-57.88 13.4,-26.77 18.06,-57.43 13.13,-87.28l-65.86 -402.7 279.68 -285.18c35.85,-36.62 48.64,-91.41 33.07,-141.23l0 -0.01zm-3087.23 5454.73l-1034.5 -5408.26c-29.25,-152.73 -142.69,-241.08 -289.65,-230.54l-82.59 15.85c-140.51,44.44 -213.4,168.38 -184.19,321.15l1175.35 6144.22 415.57 -842.41 0.01 -0.01zm-2936.41 -1180.2l1791.03 3031.33c31.12,67.24 93.77,116.84 163.8,138.64l251.73 -510.22 -1743.11 -2950.31c-82.21,-128.44 -265.13,-179.99 -393.58,-97.75 -128.44,82.28 -152.23,259.9 -69.87,388.31zm-451.88 -1657.51c-218.59,0 -396.82,178.27 -396.82,396.86 0,218.59 178.23,396.82 396.82,396.82 218.59,0 396.82,-178.23 396.82,-396.82 0,-218.59 -178.23,-396.86 -396.82,-396.86zm1833.8 4955.31l-4665.63 -3880.88c-132.57,-89.99 -304.81,-85.87 -394.76,46.7 -90.03,132.61 -85.87,304.77 46.7,394.76l4282.17 3545.68 731.53 -106.26 -0.01 0zm-3741.4 -129.36c-288.81,82.59 -345.74,90.8 -426.57,-142.8 -221.53,-639.85 -651.15,-689.03 -847.29,-625.61 -11.87,3.78 -22.99,8.63 -33.52,14.36 -79.38,43.11 -119.28,136.19 -90.76,223.33 32.57,98.62 140.7,152.23 241.73,119.51 2.02,-0.53 213.82,-47.04 365.78,392.09 200.68,579.14 635.57,454.63 895.48,380.18 289.3,-82.82 435.46,-111.53 593.19,138.49 55.52,88.05 173.42,115.04 264.22,59.56 90.41,-55.25 118.67,-171.32 63.08,-259.41 -317.02,-502.51 -743.25,-380.48 -1025.33,-299.69l-0.01 -0.01z"/>
<path class="fil1" d="M1573.78 5029.29c-15.54,-49.9 -56.66,-86.18 -106.18,-93.74l-386.59 -58.76 -172.28 -366.39c-38.45,-68.19 -122.41,-90.91 -187.63,-50.82 -20.12,12.41 -36.77,29.86 -48.61,50.82l-173.15 366.39 -386.48 58.76c-71.9,10.84 -121.88,80.75 -111.49,155.97 4.16,30.13 17.6,57.77 38.33,79l279.45 285.14 -65.75 402.7c-12.6,74.91 35.2,146.39 106.68,159.64 28.9,5.27 58.61,0.38 84.46,-13.94l345.66 -190.64 345.58 190.15c64.37,35.39 144.1,9.55 177.93,-57.88 13.44,-26.8 18.1,-57.43 13.17,-87.32l-65.86 -402.7 279.68 -285.14c35.81,-36.62 48.64,-91.45 33.07,-141.23l0.01 -0.01zm8495.88 1974.84l993.72 2014.36 2223.21 323.09 -1608.52 1567.78 379.64 2213.86 -1988.05 -1045.15 -1988.17 1045.15 379.68 -2213.86 -1608.37 -1567.78 2223.17 -323.09 993.68 -2014.36 0.01 0zm-2848.56 8530.09c-15.54,-49.9 -56.66,-86.14 -106.22,-93.7l-386.55 -58.8 -172.31 -366.39c-38.41,-68.19 -122.37,-90.91 -187.63,-50.78 -20.08,12.41 -36.73,29.86 -48.57,50.78l-173.15 366.39 -386.48 58.8c-71.9,10.81 -121.88,80.75 -111.49,155.97 4.16,30.09 17.56,57.77 38.33,78.96l279.45 285.18 -65.79 402.7c-12.6,74.91 35.2,146.39 106.72,159.6 28.9,5.31 58.61,0.42 84.42,-13.9l345.7 -190.68 345.58 190.15c64.34,35.43 144.1,9.58 177.93,-57.85 13.44,-26.8 18.1,-57.46 13.17,-87.32l-65.86 -402.7 279.68 -285.18c35.81,-36.62 48.61,-91.41 33.07,-141.23z"/>
</svg>
