<svg class="adv-svg" xmlns="http://www.w3.org/2000/svg" xml:space="preserve" width="100%" height="100%" style="shape-rendering:geometricPrecision; text-rendering:geometricPrecision; image-rendering:optimizeQuality; fill-rule:evenodd; clip-rule:evenodd"
viewBox="0 0 8167.79 8165.85" xmlns:xlink="http://www.w3.org/1999/xlink">
 <defs>
  <style>
    .adv-svg .fil5 {fill:none}
    .adv-svg .fil3 {fill:#211F1F}
    .adv-svg .fil2 {fill:#FBBA00}
    .adv-svg .fil0 {fill:#B2B3B3;fill-rule:nonzero}
    .adv-svg .fil1 {fill:#211F1F;fill-rule:nonzero}
    .adv-svg .fil4 {fill:#FBBA00;fill-rule:nonzero}
  </style>
 </defs>
  <path class="fil0" d="M3752.27 3571.25c-595.02,1.97 -1189.76,3.63 -1789.74,-1.4l94.45 -119.5 -194.58 -177.9 629.22 0 2521.3 0 629.22 0 -194.58 177.9 94.45 119.5c-599.98,5.03 -1194.72,3.37 -1789.74,1.4z"/>
   <path class="fil1" d="M4373.06 4233.35c-28.69,0 -51.49,22.81 -51.49,51.17l0 308.64c0,311.96 -253.89,565.84 -565.83,565.84 -311.94,0 -565.84,-253.88 -565.84,-565.84l0 -308.64c0,-28.36 -22.8,-51.17 -51.48,-51.17 -28.34,0 -51.18,22.81 -51.18,51.17l0 308.64c0,368.71 299.86,668.82 668.5,668.82 368.63,0 668.49,-300.11 668.49,-668.82l0 -308.64c0,-28.36 -22.82,-51.17 -51.17,-51.17z"/>
   <path class="fil1" d="M3241.42 4284.52c0,28.68 23.07,51.48 51.5,51.48 28.36,0 51.48,-22.8 51.48,-51.48 0,-113.21 -92.43,-205.68 -205.98,-205.68 -113.21,0 -205.68,92.47 -205.68,205.68 0,28.68 23.16,51.48 51.52,51.48 28.36,0 51.5,-22.8 51.5,-51.48 0,-56.46 46.22,-102.66 102.66,-102.66 56.76,0 103,46.2 103,102.66z"/>
   <path class="fil1" d="M4373.06 4078.84c-113.56,0 -205.99,92.47 -205.99,205.68 0,28.68 23.13,51.48 51.48,51.48 28.43,0 51.5,-22.8 51.5,-51.48 0,-56.46 46.24,-102.66 103.01,-102.66 56.45,0 102.65,46.2 102.65,102.66 0,28.68 23.16,51.48 51.52,51.48 28.34,0 51.5,-22.8 51.5,-51.48 0,-113.21 -92.47,-205.68 -205.67,-205.68z"/>
  <polygon class="fil2" points="2187.81,1414.33 5323.68,1414.33 5323.68,2941.92 2187.81,2941.92 "/>
  <path class="fil3" d="M2345.46 2282.01c0,-17.18 4.2,-33.39 11.63,-47.64l-92.9 0 0 -55.6 183.79 0 0.73 -0.01c57.02,0 103.25,46.23 103.25,103.25 0,57.03 -46.23,103.25 -103.25,103.25 -57.02,0 -103.25,-46.22 -103.25,-103.25zm1659.99 -226.95l89.72 0c10.45,0 20.17,-4.79 29.18,-14.37 9,-9.58 13.5,-26.86 13.5,-51.83 0,-25.55 -5.23,-42.97 -15.68,-52.26 -10.45,-9.29 -20.9,-13.94 -31.36,-13.94l-85.36 0 0 132.4 0 0zm1004.92 103.66l-54.88 -191.63 -57.49 191.63 112.37 0zm-132.4 -384.14l155.05 0 214.28 618.45 -172.47 0 -37.46 -121.07 -164.63 0 -36.58 121.07 -173.34 0 215.15 -618.45zm-2296.63 618.45l0 -618.45 169.85 0 0 235.19 188.15 -235.19 191.63 0 -224.73 277 240.41 341.45 -195.11 0 -153.31 -227.34 -47.04 48.78 0 178.56 -169.85 0 0 0zm594.68 -337.97l107.14 0c10.45,0 20.18,-5.8 29.18,-17.42 9,-11.61 13.5,-27.87 13.5,-48.78 0,-21.48 -5.22,-37.89 -15.68,-49.21 -10.45,-11.33 -20.9,-16.99 -31.35,-16.99l-102.79 0 0 132.4 0 0zm563.11 103.66l-54.88 -191.63 -57.49 191.63 112.37 0zm-132.4 -384.14l155.05 0 214.28 618.45 -172.47 0 -37.46 -121.07 -164.63 0 -36.58 121.07 -24.8 0 -148.54 0 -43.09 0 -108.88 -189.89 -63.59 0 0 189.88 -240.4 -341.44 224.73 -277 129.78 0c30.2,0 58.07,6.24 83.62,18.73 25.55,12.48 47.47,28.74 65.77,48.78 18.29,20.03 32.66,42.97 43.11,68.81 10.46,25.84 15.68,51.83 15.68,77.96 0,36.01 -7.84,69.54 -23.52,100.61 -15.68,31.07 -37.45,56.47 -65.33,76.22l38.13 66.34 159.14 -457.45 0 0zm656.99 618.45l0 -267.28c-3.05,3.98 -6.25,7.86 -9.58,11.63 -17.72,20.03 -39.2,36 -64.46,47.9 -25.26,11.91 -52.99,17.86 -83.19,17.86l-101.04 0 0 189.89 -0.01 0 -214.29 -618.45 310.98 0c30.2,0 58.07,6.24 83.63,18.73 25.55,12.48 47.47,28.74 65.76,48.78 4.28,4.69 8.35,9.54 12.2,14.55l0 -82.06 169.86 0 0 235.19 188.15 -235.19 191.63 0 -224.73 277 109.49 155.52 -64.52 185.46 -152.98 -226.87 -47.04 48.78 0 178.56 -169.86 0 0 0zm-1870.62 -111.02c0,-30.71 24.9,-55.6 55.61,-55.61 30.71,0 55.61,24.9 55.61,55.61 0,30.71 -24.9,55.61 -55.61,55.61 -30.71,0 -55.61,-24.9 -55.61,-55.61zm157.71 -170.26l-204.42 59.75 0 -65.82 146.51 -31.73 -146.51 -32.07 0 -59.74 204.42 59.74 0 69.87 0 0zm-205.35 -226.14c0,-57.02 46.23,-103.26 103.25,-103.26 57.02,0 103.25,46.24 103.25,103.26 0,57.02 -46.23,103.25 -103.25,103.25 -57.02,0 -103.25,-46.23 -103.25,-103.25zm47.64 0c0,-30.71 24.9,-55.62 55.61,-55.62 30.71,0 55.61,24.91 55.61,55.62 0,30.71 -24.9,55.61 -55.61,55.61 -30.71,0 -55.61,-24.9 -55.61,-55.61z"/>
  <path class="fil3" d="M2014.66 3822.11l0 676.04 -252.26 0c0,-408.57 0,-817.13 0,-1225.7l198.54 177.9 -98.39 119.5c548.44,0 1096.88,0 1645.32,0l0 -399.87 -1326.9 0 0 -67.05 -100.51 0.02 0 -1795.98 3350.57 -0.02 0 1796 -100.5 0 0 67.03 -1326.94 0 0 399.87 1639.44 0 -95.88 -116.46 201.93 -180.94c0,542.43 0,1084.87 0,1627.3l-252.26 0 0 -1077.64 -3482.16 0zm2973.97 -880.21l0 -48.35c52.4,-21.24 89.53,-72.5 89.53,-132.5 0,-78.8 -64.13,-142.93 -142.89,-142.93 -79.09,0 -143.2,64.13 -143.22,142.95 0,59.98 37.23,111.24 89.58,132.48l0 48.35 -1072.21 0 0 -48.32c52.33,-21.27 89.23,-72.53 89.23,-132.51 0,-0.81 -0.27,-1.26 -0.27,-2.11 -1.06,-77.97 -64.39,-140.84 -142.63,-140.84 -78.26,0.03 -141.59,62.87 -142.64,140.84 0,0.56 -0.28,1.3 -0.28,2.11 0,59.98 36.91,111.24 89.22,132.48l0 48.35 -1112.19 0 0 -50.69c52.33,-21.26 89.28,-72.3 89.28,-132.25 0,-79.06 -64.15,-143.19 -142.91,-143.19 -79.1,0 -142.95,64.13 -142.95,143.19 0,59.95 36.91,110.99 89.24,132.24l0 50.7 -294.69 0 0 -1527.58 3135.85 0 0 1527.58 -335.05 0zm-393.68 3485.79l-193.54 0 0 -252.26 193.54 0 0 252.26zm-1837.39 0l-288.39 0 0 -252.26 288.39 0 0 252.26z"/>
   <path class="fil1" d="M6976.31 6481.57l-13.86 -65.32 -296.38 -1391.92 -15.26 -71.56 -71.17 17.54 -91.83 22.46c-15.94,-41.19 -40.73,-77.9 -76.38,-103.75 -16.72,-12.19 -35.15,-18.79 -53.43,-19.03l-1.74 0c-18.27,0.16 -36.31,6.71 -52.25,20.44 -37.43,32 -41.24,94.23 -40.05,143.76 0.18,4.67 0.18,9.18 0.37,13.53l-60.98 15.03c-1.72,-4.82 -4.34,-9.17 -6.56,-13.64 -15.81,-35.17 -37.98,-66.52 -69.31,-89.24 -33.94,-24.61 -74.99,-26.35 -107.43,1.56 -35.16,30.15 -40.53,87.31 -40.16,135.3 0.17,6.25 0.17,12.16 0.54,17.99 0,1.08 0,1.93 0,2.82l-61.35 15.24c-0.54,-1.43 -1.37,-2.78 -1.92,-4.15 -2.43,-5.55 -5.18,-10.93 -7.79,-16.48 -15.75,-31.68 -36.71,-60.3 -65.63,-81.23 -33.98,-24.62 -75.05,-26.36 -107.41,1.36 -33.08,28.58 -40.01,80.73 -40.18,126.8 -0.17,6.26 0,12.15 0.17,18.18 0.13,3.51 0.13,6.79 0.32,10.23l-61.84 15.1c-1.55,-3.64 -3.62,-7.1 -5.18,-10.73 -2.43,-5.55 -5.05,-11.09 -7.8,-16.44 -15.43,-28.63 -35.34,-54.07 -61.87,-73.5 -33.91,-24.57 -75.17,-26.29 -107.54,1.43 -31.06,26.81 -38.81,74.28 -39.86,118.13 -0.18,6.21 -0.18,12.1 -0.18,18.19 0,6.03 0.18,11.92 0.35,17.64l-15.93 3.99 -46.79 10.21c-2.44,-5.69 -5.18,-10.92 -7.98,-16.46 -2.56,-5.35 -4.82,-11.27 -7.79,-16.44 -14.74,-25.47 -33.95,-48.17 -58.2,-65.65 -33.79,-24.79 -74.99,-26.51 -107.4,1.38 -28.92,24.96 -37.75,68.08 -39.65,109.31 -0.17,6.25 -0.54,12.3 -0.54,18.36 0,6.08 0,12.27 0.19,18.19l-137.21 30.16 -127.51 1289.89 443.83 -130.11 7.28 34.62 5.37 25.16 -359.31 113.8 -95.43 30.33 93.23 36.53 428.2 168.21 7.45 2.81 0 0.29 0.54 -0.16 3.1 1.42 11.44 -3.34 865.27 -242.12 33.8 -9.54 0 -0.73 603.38 -168.01 64.25 -17.84zm-686.16 117.43l-16.99 4.84 -17.12 4.69 -807.61 224.86 -52.69 -249.94 -7.29 -35.04 -5.01 -23.56 -3.64 -17.29 -3.62 -17.52 -230.56 -1093.96 155.2 -38.27c6.05,40 3.81,81.76 -4.34,117.6 -10.23,44.52 58.19,63.43 68.42,18.89 10.75,-46.97 12.65,-101.16 4.17,-153.3l215.84 -53c5.74,39.65 3.64,80.9 -4.52,116.41 -10.38,44.48 58.04,63.38 68.42,18.84 10.61,-46.43 12.65,-100.26 4.18,-152.06l215.85 -53.05c5.55,39.35 3.45,80.24 -4.65,115.39 -10.27,44.54 58.18,63.43 68.42,18.91 10.55,-46.27 12.64,-99.61 4.46,-151.1l215.68 -52.99c5.4,39.14 3.33,79.34 -4.66,114.15 -10.37,44.53 58.05,63.59 68.43,18.88 10.55,-45.7 12.46,-98.72 4.53,-149.84l181.67 -44.53 18.19 -4.47 15.78 -4c0.54,3.82 1.03,7.47 1.4,11.28 3.27,35.16 0.88,70.68 -6.26,101.86 -10.2,44.51 58.23,63.37 68.42,18.85 10.61,-45.55 12.52,-98.02 4.87,-148.8l91.62 -22.51 296.43 1391.93 -603.02 167.85zm-1090.53 -1312.72c0.18,-6.43 0.72,-12.51 1.57,-18.55 2.24,-16.32 6.6,-31.05 15.06,-40.71 3.33,-3.81 3.47,-3.5 5.06,-3.13 9,1.71 16.46,7.96 25.45,16.8 4.49,4.34 8.12,9.52 12.11,14.36 4.01,5.05 7.82,10.24 11.28,15.6 3.27,5.37 6.43,10.57 9.18,16.28l-80.05 17.52c-0.14,-6.07 0,-12.14 0.34,-18.17zm301.26 -130.3c3.46,-3.82 3.14,-3.28 4.7,-3.11 9,1.74 16.27,7.94 25.28,16.81 6.74,6.72 12.46,14 18.01,21.65 3.45,5.17 6.42,10.72 9.54,16.09 2.24,4.16 4.86,7.98 6.91,12.35 0.17,0.29 0.33,0.65 0.33,1.18l-75.32 18.89c0,-5.23 -3.82,-10.61 -3.64,-15.95 0,-6.06 -1.37,-12.31 -0.88,-18.37 1.89,-19.74 5.23,-38.1 15.07,-49.54zm266.44 -12.64c1.2,-23.07 5.19,-45.25 16.46,-58.24 3.44,-3.93 3.62,-3.44 5.18,-3.11 9.01,1.75 16.47,8.01 25.5,16.82 8.81,8.66 16.29,18.73 22.84,29.27 3.29,5.2 6.44,10.55 9.18,16.1 0.9,1.9 2.09,3.62 3.14,5.54l-82.66 20.26c-0.16,-2.75 -0.16,-5.54 -0.16,-8.29 0,-6.07 0.16,-12.28 0.52,-18.35zm302.15 -129.22c3.45,-3.83 2.58,-3.47 4.12,-3.16 9,1.76 16.14,7.99 25.14,16.81 10.9,10.78 19.37,23.6 27.02,36.9 2.79,5.04 5.71,9.88 8.15,15.26l-41.78 11.09 -34.1 9.17 0 -0.85c0,-6.07 -3.83,-12.14 -3.63,-18.17 0.48,-26 2.4,-52.34 15.08,-67.05zm282.01 -70.88c3.45,-3.99 3.62,-3.46 5,-3.29 9.01,1.92 16.62,7.99 25.63,17 13,12.82 23.23,28.07 31.53,44.52 1.57,2.75 2.97,5.54 4.35,8.48l-83.32 20.63c-0.19,-3.84 -0.19,-7.82 -0.19,-11.8 0,-28.58 2.97,-59.28 17,-75.54z"/>
    <rect class="fil3" transform="matrix(0.871903 -0.201834 0.201834 0.871903 5319.18 5884.23)" width="176.39" height="176.39"/>
    <rect class="fil3" transform="matrix(0.871903 -0.201834 0.201834 0.871903 5365.21 6083.08)" width="176.39" height="176.39"/>
    <rect class="fil3" transform="matrix(0.871903 -0.201834 0.201834 0.871903 5514.21 5839.08)" width="176.39" height="176.39"/>
    <rect class="fil3" transform="matrix(0.871903 -0.201834 0.201834 0.871903 5560.24 6037.93)" width="176.39" height="176.39"/>
    <rect class="fil3" transform="matrix(0.871903 -0.201834 0.201834 0.871903 5663.57 5596.63)" width="176.39" height="176.39"/>
    <rect class="fil3" transform="matrix(0.871903 -0.201834 0.201834 0.871903 5709.25 5793.94)" width="176.39" height="176.39"/>
    <rect class="fil3" transform="matrix(0.871903 -0.201834 0.201834 0.871903 5755.28 5992.78)" width="176.39" height="176.39"/>
    <rect class="fil3" transform="matrix(0.871903 -0.201834 0.201834 0.871903 5858.6 5551.48)" width="176.39" height="176.39"/>
    <rect class="fil3" transform="matrix(0.871903 -0.201834 0.201834 0.871903 5904.28 5748.79)" width="176.39" height="176.39"/>
    <rect class="fil3" transform="matrix(0.871903 -0.201834 0.201834 0.871903 5950.31 5947.63)" width="176.39" height="176.39"/>
    <rect class="fil3" transform="matrix(0.871903 -0.201834 0.201834 0.871903 6053.64 5506.33)" width="176.39" height="176.39"/>
    <rect class="fil3" transform="matrix(0.871903 -0.201834 0.201834 0.871903 6099.31 5703.64)" width="176.39" height="176.39"/>
    <rect class="fil3" transform="matrix(0.871903 -0.201834 0.201834 0.871903 6145.34 5902.49)" width="176.39" height="176.39"/>
    <rect class="fil3" transform="matrix(0.871903 -0.201834 0.201834 0.871903 6248.67 5461.18)" width="176.39" height="176.39"/>
    <rect class="fil3" transform="matrix(0.871903 -0.201834 0.201834 0.871903 6294.34 5658.49)" width="176.39" height="176.39"/>
    <rect class="fil3" transform="matrix(0.871903 -0.201834 0.201834 0.871903 6340.37 5857.34)" width="176.39" height="176.39"/>
    <rect class="fil2" transform="matrix(0.871903 -0.201834 0.201834 0.871903 6443.7 5416.04)" width="176.39" height="176.39"/>
    <rect class="fil2" transform="matrix(0.871903 -0.201834 0.201834 0.871903 6489.37 5613.35)" width="176.39" height="176.39"/>
    <rect class="fil2" transform="matrix(0.871903 -0.201834 0.201834 0.871903 6535.41 5812.19)" width="176.39" height="176.39"/>
    <rect class="fil3" transform="matrix(0.871903 -0.201834 0.201834 0.871903 5411.26 6282.02)" width="176.39" height="176.39"/>
    <rect class="fil3" transform="matrix(0.871903 -0.201834 0.201834 0.871903 5606.3 6236.87)" width="176.39" height="176.39"/>
    <rect class="fil3" transform="matrix(0.871903 -0.201834 0.201834 0.871903 5801.33 6191.72)" width="176.39" height="176.39"/>
    <rect class="fil3" transform="matrix(0.871903 -0.201834 0.201834 0.871903 5996.36 6146.57)" width="176.39" height="176.39"/>
    <rect class="fil3" transform="matrix(0.871903 -0.201834 0.201834 0.871903 6042.93 6347.77)" width="176.39" height="176.39"/>
    <rect class="fil3" transform="matrix(0.871903 -0.201834 0.201834 0.871903 6191.39 6101.43)" width="176.39" height="176.39"/>
    <rect class="fil3" transform="matrix(0.871903 -0.201834 0.201834 0.871903 6386.42 6056.28)" width="176.39" height="176.39"/>
    <rect class="fil2" transform="matrix(0.871903 -0.201834 0.201834 0.871903 6581.46 6011.13)" width="176.39" height="176.39"/>
    <rect class="fil3" transform="matrix(0.871903 -0.201834 0.201834 0.871903 5457.84 6483.21)" width="176.39" height="176.39"/>
    <rect class="fil3" transform="matrix(0.871903 -0.201834 0.201834 0.871903 5652.87 6438.06)" width="176.39" height="176.39"/>
    <rect class="fil3" transform="matrix(0.871903 -0.201834 0.201834 0.871903 5847.9 6392.92)" width="176.39" height="176.39"/>
   <polygon class="fil3" points="2757.38,5788.18 3927.95,6127.89 4401.61,5861.5 4401.41,5967.1 3927.95,6244.95 3927.86,6245.26 2757.64,5886.59 "/>
   <path class="fil3" d="M4401.14 5796.53l-0.02 7.24 -473.54 278.16c-389.52,-119.38 -782.18,-235.64 -1170.22,-358.67l0.65 -105.39 462.92 -217.34c0.03,-0.1 1082.08,269.62 1180.7,297.8l-0.49 98.2zm-117.74 -32.04l-1062.42 -266.67 -344.04 161.82 1050.72 304.92 355.74 -200.07z"/>
   <polygon class="fil3" points="2757.38,5950.62 3927.95,6290.33 4401.61,6023.94 4401.41,6129.54 3927.95,6407.4 3927.86,6407.7 2757.64,6049.03 "/>
   <polygon class="fil3" points="2757.38,6113.06 3927.95,6452.77 4401.61,6186.38 4401.41,6291.98 3927.95,6569.84 3927.86,6570.14 2757.64,6211.47 "/>
   <polygon class="fil3" points="2757.38,6275.5 3927.95,6615.21 4401.61,6348.82 4401.41,6454.42 3927.95,6732.28 3927.86,6732.58 2757.64,6373.91 "/>
   <polygon class="fil3" points="2757.38,6437.94 3927.95,6777.65 4401.61,6511.26 4401.41,6616.86 3927.95,6894.72 3927.86,6895.02 2757.64,6536.35 "/>
   <polygon class="fil3" points="2757.38,6600.39 3927.95,6940.09 4401.61,6673.7 4401.41,6779.3 3927.95,7057.16 3927.86,7057.46 2757.64,6698.79 "/>
   <polygon class="fil3" points="2757.38,6762.83 3927.95,7102.53 4401.61,6836.14 4401.41,6941.74 3927.95,7219.6 3927.86,7219.9 2757.64,6861.23 "/>
  <path class="fil3" d="M1191.5 4434.32l-0.03 0 0 -45.13 577.2 -186.06 0 227.1 768.19 0 0 2251.87 -1345.36 0 0 -2247.78zm103.22 96.8l1143.28 -0.88 -2.77 2051.75 -1143.31 -1.43 2.8 -2049.44z"/>
  <polygon class="fil3" points="1390.57,5425.47 2337.76,5425.47 2337.76,5325.47 1390.57,5325.47 "/>
  <path class="fil4" d="M1569.92 5209.28l0 -124.9 -39.74 87.84 -34.73 0 -39.74 -87.84 0 124.9 -65.13 0 0 -237.11 71.14 0 51.09 111.55 51.43 -111.55 70.8 0 0 237.11 -65.12 0zm274.86 -56.77l0 56.77 -168.99 0 0 -237.11 165.98 0 0 56.77 -100.85 0 0 33.4 86.16 0 0 52.76 -86.16 0 0 37.41 103.86 0zm95.52 -59.78l0 116.55 -65.13 0 0 -237.11 50.77 0 95.18 120.56 0 -120.56 65.12 0 0 237.11 -51.77 0 -94.17 -116.55zm290.21 60.78c7.57,0 14.04,-1.66 19.38,-5.01 5.34,-3.34 9.68,-7.73 13.03,-13.19 3.33,-5.46 5.78,-11.74 7.34,-18.87 1.56,-7.12 2.34,-14.58 2.34,-22.37l0 -121.9 65.13 0 0 121.9c0,16.47 -2.13,31.89 -6.35,46.25 -4.24,14.36 -10.8,26.77 -19.71,37.23 -8.9,10.48 -20.09,18.71 -33.56,24.72 -13.47,6.01 -29.34,9.02 -47.6,9.02 -18.91,0 -35.11,-3.17 -48.59,-9.52 -13.47,-6.35 -24.54,-14.86 -33.22,-25.55 -8.69,-10.69 -15.03,-23.1 -19.04,-37.24 -4.01,-14.13 -6.01,-29.11 -6.01,-44.91l0 -121.9 65.12 0 0 121.9c0,7.79 0.78,15.3 2.34,22.54 1.56,7.23 4,13.58 7.35,19.04 3.34,5.45 7.62,9.8 12.85,13.02 5.23,3.23 11.63,4.84 19.2,4.84z"/>
  <rect class="fil5" x="-0" y="-0" width="8167.79" height="8165.85"/>
</svg>
