<svg class="web-svg" xmlns="http://www.w3.org/2000/svg" xml:space="preserve" width="100%" height="100%" style="shape-rendering:geometricPrecision; text-rendering:geometricPrecision; image-rendering:optimizeQuality; fill-rule:evenodd; clip-rule:evenodd" viewBox="0 0 8167.79 8165.85" xmlns:xlink="http://www.w3.org/1999/xlink">
 <defs>
  <style>
    .web-svg .fil6 {fill:none}
    .web-svg .fil0 {fill:#211F1F}
    .web-svg .fil5 {fill:#B2B3B3}
    .web-svg .fil1 {fill:#FBBA00}
    .web-svg .fil3 {fill:#211F1F;fill-rule:nonzero}
    .web-svg .fil4 {fill:#B2B3B3;fill-rule:nonzero}
    .web-svg .fil2 {fill:#FBBA00;fill-rule:nonzero}
  </style>
 </defs>
   <polygon class="fil0" points="6199.94,4899.75 6199.94,2353.39 5962.7,2353.39 5962.7,2112.15 6449.94,2112.15 6449.94,4899.75 "/>
   <path class="fil0" d="M1034.76 5704.79l0 -3592.64 550.08 0 0 241.24 -300.08 0 0 3100.51 4174.56 0 0 250.89 -983.43 0 0 472.9 968.74 0 0 250 -3404.56 0 0 -250 968.74 0 0 -472.9 -1974.05 0zm3191.13 472.9l0 -472.9 -967.08 0 0 472.9 967.08 0z"/>
   <polygon class="fil1" points="5529.06,4938.77 2586.32,4938.77 2586.32,4438.77 5529.06,4438.77 "/>
   <path class="fil0" d="M2586.32 2837.38l1389.47 0 0 1422.89 -1389.47 0 0 -1422.89zm1289.47 100l0 809.46 -296.03 -314.71c-9.04,-9.6 -21.01,-15.73 -33.81,-17.54 -4.27,-0.63 -8.64,-0.76 -13.02,-0.39 -17.52,1.48 -33.41,10.9 -43.14,25.56l-260.82 393.07 -207.83 -148.81c-24.15,-17.28 -57.51,-13.38 -77.02,9.04l-259 297.62 0 -1053.3 1190.67 0z"/>
   <path class="fil2" d="M3039.05 3546.21c117.29,0 212.73,-95.43 212.73,-212.73 0,-117.29 -95.44,-212.73 -212.73,-212.73 -117.29,0 -212.73,95.44 -212.73,212.73 0,117.3 95.44,212.73 212.73,212.73z"/>
   <path class="fil3" d="M2651.88 2412.28c4.37,0 8.79,-0.52 13.25,-1.54l2.53 -0.61c30.96,-7.29 50.18,-38.28 42.89,-69.27 -7.27,-30.97 -38.28,-50.14 -69.25,-42.89l-2.55 0.61c-30.97,7.26 -50.17,38.27 -42.89,69.24 6.24,26.56 29.89,44.46 56.02,44.46z"/>
   <path class="fil3" d="M2887.46 2412.28c4.37,0 8.79,-0.52 13.25,-1.54l2.53 -0.61c30.96,-7.29 50.18,-38.28 42.89,-69.27 -7.27,-30.97 -38.28,-50.14 -69.25,-42.89l-2.55 0.61c-30.97,7.26 -50.17,38.27 -42.89,69.24 6.24,26.56 29.89,44.46 56.02,44.46z"/>
   <path class="fil3" d="M3123.04 2412.28c4.37,0 8.79,-0.52 13.25,-1.54l2.53 -0.61c30.96,-7.29 50.18,-38.28 42.89,-69.27 -7.27,-30.97 -38.28,-50.14 -69.25,-42.89l-2.55 0.61c-30.97,7.26 -50.17,38.27 -42.89,69.24 6.24,26.56 29.89,44.46 56.02,44.46z"/>
   <polygon class="fil3" points="2586.32,2654.75 5529.06,2654.75 5529.06,2554.76 2586.32,2554.76 "/>
   <polygon class="fil4" points="2025.74,1908.69 4968.48,1908.69 4968.48,1808.7 2025.74,1808.7 "/>
   <polygon class="fil3" points="2586.32,4538.76 5529.06,4538.76 5529.06,4438.77 2586.32,4438.77 "/>
   <polygon class="fil3" points="2586.32,4738.76 5529.06,4738.76 5529.06,4638.77 2586.32,4638.77 "/>
   <polygon class="fil3" points="2586.32,4938.76 5311.27,4938.76 5311.27,4838.77 2586.32,4838.77 "/>
   <polygon class="fil1" points="5529.06,3564.38 4145.99,3564.38 4145.99,2837.38 5529.06,2837.38 "/>
   <path class="fil3" d="M5468.84 4946.69c4.37,0 8.79,-0.52 13.25,-1.54l2.53 -0.61c30.96,-7.29 50.18,-38.28 42.89,-69.27 -7.27,-30.97 -38.28,-50.14 -69.25,-42.89l-2.55 0.61c-30.97,7.26 -50.17,38.27 -42.89,69.24 6.24,26.56 29.89,44.46 56.02,44.46z"/>
   <polygon class="fil3" points="4145.99,3764.37 5529.06,3764.37 5529.06,3664.38 4145.99,3664.38 "/>
   <polygon class="fil3" points="4145.99,4014.37 5012.51,4014.37 5012.51,3914.38 4145.99,3914.38 "/>
   <polygon class="fil3" points="4145.99,4264.37 4714.36,4264.37 4714.36,4164.38 4145.99,4164.38 "/>
   <path class="fil3" d="M2439.33 4377.33l7.77 6.1c2.79,2.2 5.73,4.11 8.78,5.74l-16.55 -11.84z"/>
   <polygon class="fil5" points="2017.74,2054.22 2353.83,2054.22 2353.83,2152.15 2169.67,2152.15 2353.83,2336.31 2353.83,2477.72 2117.14,2241.03 2117.14,2463.83 2117.14,3205.45 2117.14,3290.3 2353.83,3053.61 2353.83,3195.02 2169.67,3379.18 2353.83,3379.18 2353.83,3477.11 2017.74,3477.11 "/>
   <path class="fil4" d="M2083.3 1665.01c4.37,0 8.79,-0.52 13.25,-1.54l2.53 -0.61c30.96,-7.29 50.18,-38.28 42.89,-69.27 -7.27,-30.97 -38.28,-50.14 -69.25,-42.89l-2.55 0.61c-30.97,7.26 -50.17,38.27 -42.89,69.24 6.24,26.56 29.89,44.46 56.02,44.46z"/>
   <path class="fil4" d="M2318.88 1665.01c4.37,0 8.79,-0.52 13.25,-1.54l2.53 -0.61c30.96,-7.29 50.18,-38.28 42.89,-69.27 -7.27,-30.97 -38.28,-50.14 -69.25,-42.89l-2.55 0.61c-30.97,7.26 -50.17,38.27 -42.89,69.24 6.24,26.56 29.89,44.46 56.02,44.46z"/>
   <path class="fil4" d="M2554.46 1665.01c4.37,0 8.79,-0.52 13.25,-1.54l2.53 -0.61c30.96,-7.29 50.18,-38.28 42.89,-69.27 -7.27,-30.97 -38.28,-50.14 -69.25,-42.89l-2.55 0.61c-30.97,7.26 -50.17,38.27 -42.89,69.24 6.24,26.56 29.89,44.46 56.02,44.46z"/>
   <path class="fil4" d="M2017.74 3791.5l336.09 0 0 -100 -336.09 0 0 100zm0 400l336.09 0 0 -100 -336.09 0 0 100zm0 -200l336.09 0 0 -100 -336.09 0 0 100z"/>
   <polygon class="fil5" points="1784.51,1306.95 5193.72,1306.95 5193.72,1708.23 5094.23,1708.23 5094.23,1406.44 1884,1406.44 1884,4349.18 2153.51,4349.18 2153.51,4448.67 1784.51,4448.67 "/>
   <path class="fil0" d="M2353.09 2054.22l3409.21 0 0 3141.72 -3409.21 0 0 -3141.72zm99.49 99.49l3210.23 0 0 2942.74 -3210.23 0 0 -2942.74z"/>
    <path class="fil2" d="M6296.59 6161.49c117.29,0 212.73,-95.43 212.73,-212.73 0,-117.29 -95.44,-212.73 -212.73,-212.73 -117.29,0 -212.73,95.44 -212.73,212.73 0,117.3 95.44,212.73 212.73,212.73z"/>
    <path class="fil0" d="M5787.63 5220.58l1345.39 0 0 2250.98 -1345.39 0 0 -2250.98zm100 1384.67l254.29 -299.84c18.48,-22.42 50.07,-26.32 72.94,-9.04l196.8 148.81 246.99 -393.07c9.21,-14.66 24.26,-24.08 40.85,-25.56 4.15,-0.37 8.29,-0.24 12.33,0.39 12.12,1.81 23.46,7.94 32.02,17.54l289.17 304.79 0 -828.69 -1145.39 0 0 1084.67zm1145.39 272.36l-1145.39 -2.51 0 96.46 1145.39 0 0 -93.95zm-572.7 491.07c68.96,0 125.07,-56.11 125.07,-125.07 0,-68.96 -56.11,-125.07 -125.07,-125.07 -68.96,0 -125.07,56.11 -125.07,125.07 0,68.96 56.11,125.07 125.07,125.07zm-259.92 -2043.9l284.26 0 0 100 -284.26 0 0 -100zm459.62 107.93c4.37,0 8.79,-0.52 13.25,-1.54l2.53 -0.61c30.96,-7.29 50.18,-38.28 42.89,-69.27 -7.27,-30.97 -38.28,-50.14 -69.25,-42.89l-2.55 0.61c-30.97,7.26 -50.17,38.27 -42.89,69.24 6.24,26.56 29.89,44.46 56.02,44.46z"/>
  <rect class="fil6" x="-0" y="-0" width="8167.79" height="8165.85"/>
</svg>
